<svg width="120" height="120" viewBox="0 0 120 120" fill="none" xmlns="http://www.w3.org/2000/svg">
<circle cx="60" cy="60" r="60" fill="#282828"/>
<g opacity="0.6">
<mask id="mask0_610_83" style="mask-type:luminance" maskUnits="userSpaceOnUse" x="36" y="50" width="47" height="25">
<path d="M36 50.2979H82.9815V74.8646H36V50.2979Z" fill="white"/>
</mask>
<g mask="url(#mask0_610_83)">
<path d="M59.4954 50.2979L36 60.9835L59.4954 74.8646L82.9815 60.9835L59.4954 50.2979Z" fill="white"/>
</g>
</g>
<g opacity="0.45">
<mask id="mask1_610_83" style="mask-type:luminance" maskUnits="userSpaceOnUse" x="36" y="22" width="24" height="53">
<path d="M36 22H59.4954V74.8646H36V22Z" fill="white"/>
</mask>
<g mask="url(#mask1_610_83)">
<path d="M36 60.9835L59.4954 74.8646V22L36 60.9835Z" fill="white"/>
</g>
</g>
<g opacity="0.8">
<mask id="mask2_610_83" style="mask-type:luminance" maskUnits="userSpaceOnUse" x="59" y="22" width="24" height="53">
<path d="M59.4956 22H82.991V74.8646H59.4956V22Z" fill="white"/>
</mask>
<g mask="url(#mask2_610_83)">
<path d="M59.4956 22V74.8646L82.9818 60.9835L59.4956 22Z" fill="white"/>
</g>
</g>
<g opacity="0.45">
<mask id="mask3_610_83" style="mask-type:luminance" maskUnits="userSpaceOnUse" x="36" y="65" width="24" height="34">
<path d="M36 65.4351H59.4954V98.5355H36V65.4351Z" fill="white"/>
</mask>
<g mask="url(#mask3_610_83)">
<path d="M36 65.4351L59.4954 98.5355V79.3162L36 65.4351Z" fill="white"/>
</g>
</g>
<g opacity="0.8">
<mask id="mask4_610_83" style="mask-type:luminance" maskUnits="userSpaceOnUse" x="59" y="65" width="25" height="34">
<path d="M59.4956 65.4351H83.0002V98.5355H59.4956V65.4351Z" fill="white"/>
</mask>
<g mask="url(#mask4_610_83)">
<path d="M59.4956 79.3162V98.5355L83.0002 65.4351L59.4956 79.3162Z" fill="white"/>
</g>
</g>
</svg>
