<svg width="571" height="478" viewBox="0 0 571 478" fill="none" xmlns="http://www.w3.org/2000/svg">
<circle cx="288.5" cy="272.5" r="79.5" fill="white" fill-opacity="0.06"/>
<circle opacity="0.3" cx="288" cy="272" r="113.5" stroke="white" stroke-dasharray="12 12"/>
<path d="M236.9 278V264.92H232.18V263.42H243.36V264.92H238.62V278H236.9ZM247.489 278.18C244.449 278.18 242.409 276.04 242.409 272.78C242.409 269.56 244.389 267.34 247.489 267.34C250.509 267.34 252.529 269.46 252.529 272.76C252.529 275.96 250.569 278.18 247.489 278.18ZM247.489 276.78C249.529 276.78 250.889 275.3 250.889 272.76C250.889 270.24 249.589 268.7 247.489 268.7C245.449 268.7 244.069 270.2 244.069 272.78C244.069 275.26 245.389 276.78 247.489 276.78ZM254.829 278V263.42H256.469V272.86L257.409 271.86L261.729 267.5H263.769L259.669 271.56L263.949 278H262.049L259.189 273.7L258.549 272.66L256.469 274.68V278H254.829ZM269.298 278.18C266.278 278.18 264.538 276.06 264.538 272.8C264.538 269.48 266.258 267.34 269.238 267.34C272.418 267.34 273.978 269.68 273.738 273.02H266.118C266.158 275.62 267.398 276.92 269.298 276.92C270.838 276.92 271.858 276.08 272.138 274.82H273.698C273.398 276.94 271.598 278.18 269.298 278.18ZM269.238 268.6C267.478 268.6 266.318 269.72 266.158 271.86H272.158C272.098 269.58 270.918 268.6 269.238 268.6ZM276.04 278V267.5H277.58L277.64 269.68H277.76C278.4 268.14 279.84 267.34 281.42 267.34C283.6 267.34 285.2 268.58 285.2 271.82V278H283.58V272.14C283.58 269.78 282.72 268.7 280.9 268.7C278.92 268.7 277.64 270.26 277.64 272.32V278H276.04ZM292.489 278.18C289.449 278.18 287.409 276.04 287.409 272.78C287.409 269.56 289.389 267.34 292.489 267.34C295.509 267.34 297.529 269.46 297.529 272.76C297.529 275.96 295.569 278.18 292.489 278.18ZM292.489 276.78C294.529 276.78 295.889 275.3 295.889 272.76C295.889 270.24 294.589 268.7 292.489 268.7C290.449 268.7 289.069 270.2 289.069 272.78C289.069 275.26 290.389 276.78 292.489 276.78ZM299.829 278V267.5H301.369L301.429 269.68H301.549C302.169 268.14 303.569 267.34 305.149 267.34C306.749 267.34 308.069 268.06 308.589 269.86H308.749C309.369 268.2 310.829 267.34 312.549 267.34C314.669 267.34 316.229 268.58 316.229 271.82V278H314.629V272.14C314.629 269.78 313.789 268.7 311.989 268.7C310.069 268.7 308.849 270.26 308.849 272.32V278H307.209V272.14C307.209 269.78 306.389 268.7 304.609 268.7C302.669 268.7 301.429 270.26 301.429 272.32V278H299.829ZM319.165 265.76V263.42H320.785V265.76H319.165ZM319.165 278V267.5H320.785V278H319.165ZM328.133 278.18C325.093 278.18 323.093 276.02 323.093 272.76C323.093 269.52 325.093 267.34 328.192 267.34C330.673 267.34 332.493 268.82 332.673 271.02H331.113C330.833 269.52 329.653 268.72 328.153 268.72C325.993 268.72 324.733 270.36 324.733 272.78C324.733 275.32 326.073 276.8 328.133 276.8C329.813 276.8 330.973 275.8 331.153 274.32H332.733C332.533 276.66 330.673 278.18 328.133 278.18ZM338.485 278.2C335.785 278.2 334.185 276.8 334.185 274.72H335.805C335.805 276.26 336.905 276.98 338.525 276.98C340.165 276.98 341.045 276.34 341.045 275.22C341.045 273.98 340.285 273.62 338.385 273.34C335.785 272.98 334.485 272.32 334.485 270.38C334.485 268.54 336.085 267.3 338.485 267.3C340.965 267.3 342.465 268.58 342.485 270.58H340.905C340.865 269.12 339.925 268.54 338.465 268.54C336.965 268.54 336.105 269.2 336.105 270.22C336.105 271.38 336.965 271.74 338.925 272.02C341.285 272.36 342.685 273 342.685 275.08C342.685 277.08 341.005 278.2 338.485 278.2Z" fill="white"/>
<path d="M310.188 476.691C362.206 470.798 410.029 445.322 443.939 405.44C477.85 365.557 495.304 314.26 492.756 261.972C490.207 209.684 467.847 160.327 430.219 123.931C392.59 87.5354 342.517 66.8307 290.173 66.0244L289.662 99.1628C333.585 99.8393 375.603 117.213 407.177 147.753C438.752 178.293 457.514 219.709 459.653 263.585C461.791 307.461 447.145 350.505 418.69 383.971C390.235 417.437 350.106 438.814 306.458 443.759L310.188 476.691Z" fill="url(#paint0_linear_446_568)"/>
<path d="M105.557 174.458C88.263 206.627 79.8327 242.817 81.13 279.317C82.4273 315.818 93.4057 351.317 112.94 382.178C132.475 413.039 159.863 438.151 192.298 454.942C224.734 471.732 261.05 479.597 297.526 477.731L296.799 463.517C262.843 465.254 229.036 457.933 198.841 442.302C168.647 426.672 143.151 403.294 124.966 374.566C106.781 345.837 96.5613 312.79 95.3535 278.812C94.1458 244.833 101.994 211.144 118.093 181.197L105.557 174.458Z" fill="#EA4491"/>
<path d="M221.126 76.8166C174.569 92.5295 135.162 124.367 110.017 166.582L118.756 171.788C142.66 131.657 180.121 101.392 224.379 86.4549L221.126 76.8166Z" fill="#2A6EFF"/>
<path d="M287 66C266.381 66 245.878 69.0957 226.178 75.1837L228.023 81.154C247.125 75.2506 267.006 72.2488 287 72.2488L287 66Z" fill="url(#paint1_linear_446_568)"/>
<path d="M524.648 260.108C522.812 260.108 521.612 259.004 521.588 257.372H523.1C523.112 258.224 523.724 258.8 524.66 258.8C525.68 258.8 526.28 258.116 526.28 257.144C526.28 256.112 525.656 255.452 524.66 255.452C523.916 255.452 523.4 255.836 523.184 256.364H521.768L521.984 251.348H527.324V252.656H523.304L523.208 254.84L523.268 254.864C523.616 254.468 524.276 254.204 524.984 254.204C526.724 254.204 527.804 255.404 527.804 257.108C527.804 258.908 526.592 260.108 524.648 260.108ZM532.007 260.096C530.015 260.096 528.803 258.44 528.803 255.656C528.803 252.8 530.087 251.24 532.031 251.24C534.011 251.24 535.223 252.896 535.223 255.668C535.223 258.536 533.927 260.096 532.007 260.096ZM532.019 258.824C533.039 258.824 533.723 257.996 533.723 255.656C533.723 253.328 533.039 252.512 532.019 252.512C530.975 252.512 530.303 253.328 530.303 255.656C530.303 257.996 530.975 258.824 532.019 258.824ZM537.509 260L543.065 251.252H544.133L538.565 260H537.509ZM537.953 255.968C536.825 255.968 536.153 255.056 536.153 253.616C536.153 252.14 536.885 251.288 537.977 251.288C539.093 251.288 539.765 252.212 539.765 253.64C539.765 255.14 539.021 255.968 537.953 255.968ZM537.953 255.104C538.409 255.104 538.733 254.816 538.733 253.628C538.733 252.452 538.409 252.164 537.953 252.164C537.509 252.164 537.185 252.452 537.185 253.628C537.185 254.804 537.509 255.104 537.953 255.104ZM543.677 260.048C542.549 260.048 541.877 259.124 541.877 257.696C541.877 256.208 542.609 255.368 543.701 255.368C544.817 255.368 545.489 256.28 545.489 257.708C545.489 259.208 544.757 260.048 543.677 260.048ZM543.689 259.172C544.133 259.172 544.457 258.896 544.457 257.708C544.457 256.52 544.133 256.232 543.689 256.232C543.245 256.232 542.909 256.508 542.909 257.708C542.909 258.896 543.245 259.172 543.689 259.172Z" fill="#A8A8A8"/>
<path d="M521.84 278V270.71H523.88L525.62 275.89H525.67L527.4 270.71H529.44V278H528.15V274.85L528.18 272.1H528.11L526.2 278H525.08L523.18 272.1H523.11L523.13 274.87V278H521.84ZM532.748 278.09C531.468 278.09 530.608 277.14 530.608 275.34C530.608 273.53 531.468 272.58 532.748 272.58C533.608 272.58 534.248 273.01 534.508 273.66H534.578L534.628 272.68H535.828V278H534.578V277.01H534.508C534.248 277.66 533.608 278.09 532.748 278.09ZM533.218 277.07C534.108 277.07 534.558 276.36 534.558 275.61V275.06C534.558 274.3 534.108 273.6 533.218 273.6C532.418 273.6 531.878 274.17 531.878 275.34C531.878 276.5 532.418 277.07 533.218 277.07ZM537.168 278V272.68H538.298L538.358 273.57H538.398C538.638 272.89 539.218 272.61 539.908 272.61C540.028 272.61 540.128 272.61 540.218 272.61V273.79C540.138 273.79 540.018 273.78 539.888 273.78C538.918 273.78 538.458 274.26 538.418 275.09V278H537.168ZM541.035 278V270.71H542.305V275.05L542.755 274.54L544.535 272.68H546.085L544.025 274.77L546.135 278H544.665L543.465 276.15L543.145 275.6L542.305 276.43V278H541.035ZM548.802 278.09C547.192 278.09 546.262 277.01 546.262 275.37C546.262 273.66 547.212 272.58 548.762 272.58C550.502 272.58 551.342 273.84 551.192 275.6H547.482C547.492 276.62 548.012 277.14 548.802 277.14C549.432 277.14 549.862 276.82 549.982 276.34H551.162C551.022 277.42 550.072 278.09 548.802 278.09ZM548.762 273.53C548.032 273.53 547.562 273.98 547.492 274.79H549.962C549.932 273.93 549.452 273.53 548.762 273.53ZM553.847 278C552.857 278 552.587 277.55 552.587 276.79V273.69H551.607V272.68H552.587V271.18L553.827 271.05V272.68H554.957V273.69H553.827V276.56C553.827 276.9 553.967 276.98 554.277 276.98H554.957V278H553.847ZM555.918 271.93V270.71H557.168V271.93H555.918ZM555.918 278V272.68H557.168V278H555.918ZM558.516 278V272.68H559.716L559.766 273.69H559.826C560.126 272.96 560.806 272.58 561.576 272.58C562.656 272.58 563.466 273.2 563.466 274.81V278H562.216V275.08C562.216 274.08 561.876 273.61 561.096 273.61C560.256 273.61 559.766 274.27 559.766 275.07V278H558.516ZM566.926 279.77C565.586 279.77 564.756 279.16 564.666 278.2H565.866C565.946 278.61 566.346 278.87 566.956 278.87C567.856 278.87 568.286 278.5 568.286 277.64V276.66H568.216C567.976 277.28 567.346 277.69 566.536 277.69C565.256 277.69 564.426 276.79 564.426 275.13C564.426 273.48 565.276 272.58 566.556 272.58C567.356 272.58 567.976 272.98 568.216 273.59H568.286L568.326 272.68H569.536V277.44C569.536 279.16 568.486 279.77 566.926 279.77ZM566.986 276.72C567.826 276.72 568.266 276.09 568.286 275.45V274.81C568.256 274.18 567.826 273.55 566.996 273.55C566.206 273.55 565.696 274.1 565.696 275.13C565.696 276.18 566.216 276.72 566.986 276.72Z" fill="#A8A8A8"/>
<path d="M29.492 315.108C27.596 315.108 26.456 313.992 26.432 312.324H27.92C27.908 313.224 28.532 313.824 29.492 313.824C30.452 313.824 31.076 313.284 31.076 312.42C31.076 311.568 30.5 311.136 29.672 311.136H28.652V309.996H29.564C30.464 309.996 30.944 309.468 30.944 308.748C30.944 307.968 30.38 307.524 29.516 307.524C28.568 307.524 28.004 308.1 27.992 308.988H26.504C26.516 307.32 27.716 306.24 29.576 306.24C31.328 306.24 32.48 307.14 32.48 308.544C32.48 309.492 31.964 310.212 31.184 310.488V310.548C32.096 310.776 32.612 311.556 32.612 312.552C32.612 314.088 31.34 315.108 29.492 315.108ZM36.8668 315.108C35.0308 315.108 33.8308 314.004 33.8068 312.372H35.3188C35.3308 313.224 35.9428 313.8 36.8788 313.8C37.8988 313.8 38.4988 313.116 38.4988 312.144C38.4988 311.112 37.8748 310.452 36.8788 310.452C36.1348 310.452 35.6188 310.836 35.4028 311.364H33.9868L34.2028 306.348H39.5428V307.656H35.5228L35.4268 309.84L35.4868 309.864C35.8348 309.468 36.4948 309.204 37.2028 309.204C38.9428 309.204 40.0228 310.404 40.0228 312.108C40.0228 313.908 38.8108 315.108 36.8668 315.108ZM42.5093 315L48.0653 306.252H49.1333L43.5653 315H42.5093ZM42.9533 310.968C41.8253 310.968 41.1533 310.056 41.1533 308.616C41.1533 307.14 41.8853 306.288 42.9773 306.288C44.0933 306.288 44.7653 307.212 44.7653 308.64C44.7653 310.14 44.0213 310.968 42.9533 310.968ZM42.9533 310.104C43.4093 310.104 43.7333 309.816 43.7333 308.628C43.7333 307.452 43.4093 307.164 42.9533 307.164C42.5093 307.164 42.1853 307.452 42.1853 308.628C42.1853 309.804 42.5093 310.104 42.9533 310.104ZM48.6773 315.048C47.5493 315.048 46.8773 314.124 46.8773 312.696C46.8773 311.208 47.6093 310.368 48.7013 310.368C49.8173 310.368 50.4893 311.28 50.4893 312.708C50.4893 314.208 49.7573 315.048 48.6773 315.048ZM48.6893 314.172C49.1333 314.172 49.4573 313.896 49.4573 312.708C49.4573 311.52 49.1333 311.232 48.6893 311.232C48.2453 311.232 47.9093 311.508 47.9093 312.708C47.9093 313.896 48.2453 314.172 48.6893 314.172Z" fill="#A8A8A8"/>
<path d="M16.6196 333L19.1296 325.71H20.9896L23.4996 333H22.1296L21.5796 331.4H18.5396L17.9996 333H16.6196ZM18.8596 330.38H21.2696L20.5496 328.33L20.0896 326.92H20.0396L19.5696 328.33L18.8596 330.38ZM24.1934 326.93V325.71H25.4434V326.93H24.1934ZM24.1934 333V327.68H25.4434V333H24.1934ZM26.7911 333V327.68H27.9211L27.9811 328.57H28.0211C28.2611 327.89 28.8411 327.61 29.5311 327.61C29.6511 327.61 29.7511 327.61 29.8411 327.61V328.79C29.7611 328.79 29.6411 328.78 29.5111 328.78C28.5411 328.78 28.0811 329.26 28.0411 330.09V333H26.7911ZM32.3413 333.09C31.0613 333.09 30.2013 332.14 30.2013 330.34C30.2013 328.53 31.0613 327.58 32.3413 327.58C33.2013 327.58 33.8413 328.01 34.1013 328.66H34.1713V325.71H35.4213L35.4113 333H34.2113L34.1713 332.01H34.1013C33.8413 332.66 33.2013 333.09 32.3413 333.09ZM32.8113 332.07C33.7013 332.07 34.1513 331.36 34.1513 330.61V330.06C34.1513 329.3 33.7013 328.6 32.8113 328.6C32.0113 328.6 31.4713 329.17 31.4713 330.34C31.4713 331.5 32.0113 332.07 32.8113 332.07ZM36.7618 333V327.68H37.8918L37.9518 328.57H37.9918C38.2318 327.89 38.8118 327.61 39.5018 327.61C39.6218 327.61 39.7218 327.61 39.8118 327.61V328.79C39.7318 328.79 39.6118 328.78 39.4818 328.78C38.5118 328.78 38.0518 329.26 38.0118 330.09V333H36.7618ZM42.812 333.09C41.232 333.09 40.172 332.05 40.172 330.34C40.172 328.7 41.162 327.58 42.812 327.58C44.382 327.58 45.432 328.63 45.432 330.34C45.432 331.98 44.452 333.09 42.812 333.09ZM42.802 332.06C43.622 332.06 44.172 331.48 44.172 330.34C44.172 329.21 43.642 328.61 42.812 328.61C41.982 328.61 41.432 329.2 41.432 330.34C41.432 331.46 41.962 332.06 42.802 332.06ZM46.4395 334.67L46.4495 327.68H47.6495L47.6895 328.66H47.7695C48.0195 328.01 48.6595 327.58 49.5195 327.58C50.7995 327.58 51.6695 328.53 51.6695 330.34C51.6695 332.14 50.7995 333.1 49.5195 333.1C48.6595 333.1 48.0195 332.66 47.7695 332.02H47.6895V334.67H46.4395ZM49.0595 332.08C49.8595 332.08 50.3895 331.51 50.3895 330.34C50.3895 329.17 49.8595 328.6 49.0595 328.6C48.1595 328.6 47.7095 329.31 47.7095 330.06V330.62C47.7095 331.37 48.1595 332.08 49.0595 332.08ZM11.1603 349V341.71H14.6603C16.3003 341.71 17.1303 342.45 17.1303 343.76C17.1303 344.64 16.6603 345.31 15.8603 345.51V345.58C16.6203 345.72 16.9603 346.18 16.9603 347V348.18C16.9603 348.44 16.9603 348.72 17.0803 349H15.7503C15.6603 348.81 15.6303 348.53 15.6303 348.17V347.23C15.6303 346.55 15.3903 346.18 14.4303 346.18H12.4803V349H11.1603ZM12.4803 345.12H14.4703C15.4103 345.12 15.7803 344.63 15.7803 343.94C15.7803 343.13 15.2503 342.81 14.4703 342.81H12.4803V345.12ZM20.3585 349.09C18.7485 349.09 17.8185 348.01 17.8185 346.37C17.8185 344.66 18.7685 343.58 20.3185 343.58C22.0585 343.58 22.8985 344.84 22.7485 346.6H19.0385C19.0485 347.62 19.5685 348.14 20.3585 348.14C20.9885 348.14 21.4185 347.82 21.5385 347.34H22.7185C22.5785 348.42 21.6285 349.09 20.3585 349.09ZM20.3185 344.53C19.5885 344.53 19.1185 344.98 19.0485 345.79H21.5185C21.4885 344.93 21.0085 344.53 20.3185 344.53ZM24.3463 349L23.0563 343.67H24.3263L25.2463 347.77H25.2963L26.1163 343.67H27.5263L28.3763 347.78H28.4063L29.3263 343.67H30.5563L29.2563 349H27.6163L26.8063 345.26H26.7563L25.9863 349H24.3463ZM33.0445 349.09C31.7645 349.09 30.9045 348.14 30.9045 346.34C30.9045 344.53 31.7645 343.58 33.0445 343.58C33.9045 343.58 34.5445 344.01 34.8045 344.66H34.8745L34.9245 343.68H36.1245V349H34.8745V348.01H34.8045C34.5445 348.66 33.9045 349.09 33.0445 349.09ZM33.5145 348.07C34.4045 348.07 34.8545 347.36 34.8545 346.61V346.06C34.8545 345.3 34.4045 344.6 33.5145 344.6C32.7145 344.6 32.1745 345.17 32.1745 346.34C32.1745 347.5 32.7145 348.07 33.5145 348.07ZM37.4649 349V343.68H38.5949L38.6549 344.57H38.6949C38.9349 343.89 39.5149 343.61 40.2049 343.61C40.3249 343.61 40.4249 343.61 40.5149 343.61V344.79C40.4349 344.79 40.3149 344.78 40.1849 344.78C39.2149 344.78 38.7549 345.26 38.7149 346.09V349H37.4649ZM43.0152 349.09C41.7352 349.09 40.8752 348.14 40.8752 346.34C40.8752 344.53 41.7352 343.58 43.0152 343.58C43.8752 343.58 44.5152 344.01 44.7752 344.66H44.8452V341.71H46.0952L46.0852 349H44.8852L44.8452 348.01H44.7752C44.5152 348.66 43.8752 349.09 43.0152 349.09ZM43.4852 348.07C44.3752 348.07 44.8252 347.36 44.8252 346.61V346.06C44.8252 345.3 44.3752 344.6 43.4852 344.6C42.6852 344.6 42.1452 345.17 42.1452 346.34C42.1452 347.5 42.6852 348.07 43.4852 348.07ZM49.3756 349.1C47.9556 349.1 47.0856 348.39 47.0956 347.32H48.3256C48.3356 347.93 48.7656 348.2 49.4156 348.2C50.0456 348.2 50.3756 347.96 50.3756 347.54C50.3756 347.05 50.0656 346.93 49.2456 346.81C47.8856 346.61 47.2356 346.25 47.2356 345.23C47.2356 344.24 48.1056 343.58 49.4156 343.58C50.6956 343.58 51.5256 344.24 51.5456 345.26H50.3156C50.3056 344.71 49.9456 344.47 49.3856 344.47C48.8156 344.47 48.4856 344.71 48.4856 345.12C48.4856 345.57 48.8456 345.71 49.7356 345.83C51.0056 346 51.6556 346.38 51.6556 347.43C51.6556 348.5 50.7456 349.1 49.3756 349.1Z" fill="#A8A8A8"/>
<path d="M114.448 78V71.964H112.312V70.824H112.66C113.812 70.824 114.436 70.236 114.52 69.348H115.948V78H114.448ZM120.698 78.096C118.706 78.096 117.494 76.44 117.494 73.656C117.494 70.8 118.778 69.24 120.722 69.24C122.702 69.24 123.914 70.896 123.914 73.668C123.914 76.536 122.618 78.096 120.698 78.096ZM120.71 76.824C121.73 76.824 122.414 75.996 122.414 73.656C122.414 71.328 121.73 70.512 120.71 70.512C119.666 70.512 118.994 71.328 118.994 73.656C118.994 75.996 119.666 76.824 120.71 76.824ZM126.201 78L131.757 69.252H132.825L127.257 78H126.201ZM126.645 73.968C125.517 73.968 124.845 73.056 124.845 71.616C124.845 70.14 125.577 69.288 126.669 69.288C127.785 69.288 128.457 70.212 128.457 71.64C128.457 73.14 127.713 73.968 126.645 73.968ZM126.645 73.104C127.101 73.104 127.425 72.816 127.425 71.628C127.425 70.452 127.101 70.164 126.645 70.164C126.201 70.164 125.877 70.452 125.877 71.628C125.877 72.804 126.201 73.104 126.645 73.104ZM132.369 78.048C131.241 78.048 130.569 77.124 130.569 75.696C130.569 74.208 131.301 73.368 132.393 73.368C133.509 73.368 134.181 74.28 134.181 75.708C134.181 77.208 133.449 78.048 132.369 78.048ZM132.381 77.172C132.825 77.172 133.149 76.896 133.149 75.708C133.149 74.52 132.825 74.232 132.381 74.232C131.937 74.232 131.601 74.508 131.601 75.708C131.601 76.896 131.937 77.172 132.381 77.172Z" fill="#A8A8A8"/>
<path d="M33.5505 96.09C31.3805 96.09 29.9305 94.69 29.9305 92.35C29.9305 90.02 31.3805 88.62 33.5505 88.62C35.3805 88.62 36.7005 89.64 36.9105 91.19H35.5605C35.3805 90.35 34.6205 89.76 33.5505 89.76C32.1705 89.76 31.3005 90.67 31.3005 92.35C31.3005 94.05 32.1705 94.95 33.5505 94.95C34.6005 94.95 35.4005 94.38 35.5605 93.51H36.9105C36.7205 95.07 35.3705 96.09 33.5505 96.09ZM40.2042 96.09C38.5942 96.09 37.6642 95.01 37.6642 93.37C37.6642 91.66 38.6142 90.58 40.1642 90.58C41.9042 90.58 42.7442 91.84 42.5942 93.6H38.8842C38.8942 94.62 39.4142 95.14 40.2042 95.14C40.8342 95.14 41.2642 94.82 41.3842 94.34H42.5642C42.4242 95.42 41.4742 96.09 40.2042 96.09ZM40.1642 91.53C39.4342 91.53 38.9642 91.98 38.8942 92.79H41.3642C41.3342 91.93 40.8542 91.53 40.1642 91.53ZM43.5997 96V90.68H44.7997L44.8497 91.69H44.9097C45.2097 90.96 45.8897 90.58 46.6597 90.58C47.7397 90.58 48.5497 91.2 48.5497 92.81V96H47.2997V93.08C47.2997 92.08 46.9597 91.61 46.1797 91.61C45.3397 91.61 44.8497 92.27 44.8497 93.07V96H43.5997ZM51.3532 96C50.3632 96 50.0932 95.55 50.0932 94.79V91.69H49.1132V90.68H50.0932V89.18L51.3332 89.05V90.68H52.4632V91.69H51.3332V94.56C51.3332 94.9 51.4732 94.98 51.7832 94.98H52.4632V96H51.3532ZM53.4239 96V90.68H54.5539L54.6139 91.57H54.6539C54.8939 90.89 55.4739 90.61 56.1639 90.61C56.2839 90.61 56.3839 90.61 56.4739 90.61V91.79C56.3939 91.79 56.2739 91.78 56.1439 91.78C55.1739 91.78 54.7139 92.26 54.6739 93.09V96H53.4239ZM58.9741 96.09C57.6941 96.09 56.8341 95.14 56.8341 93.34C56.8341 91.53 57.6941 90.58 58.9741 90.58C59.8341 90.58 60.4741 91.01 60.7341 91.66H60.8041L60.8541 90.68H62.0541V96H60.8041V95.01H60.7341C60.4741 95.66 59.8341 96.09 58.9741 96.09ZM59.4441 95.07C60.3341 95.07 60.7841 94.36 60.7841 93.61V93.06C60.7841 92.3 60.3341 91.6 59.4441 91.6C58.6441 91.6 58.1041 92.17 58.1041 93.34C58.1041 94.5 58.6441 95.07 59.4441 95.07ZM63.3946 96V88.71H64.6446V96H63.3946ZM65.9923 89.93V88.71H67.2423V89.93H65.9923ZM65.9923 96V90.68H67.2423V96H65.9923ZM68.1999 96V95.1L71.1199 91.69H68.3499V90.68H72.7099V91.56L69.7899 94.99H72.8199V96H68.1999ZM75.8488 96.09C74.2388 96.09 73.3088 95.01 73.3088 93.37C73.3088 91.66 74.2588 90.58 75.8088 90.58C77.5488 90.58 78.3888 91.84 78.2388 93.6H74.5288C74.5388 94.62 75.0588 95.14 75.8488 95.14C76.4788 95.14 76.9088 94.82 77.0288 94.34H78.2088C78.0688 95.42 77.1188 96.09 75.8488 96.09ZM75.8088 91.53C75.0788 91.53 74.6088 91.98 74.5388 92.79H77.0088C76.9788 91.93 76.4988 91.53 75.8088 91.53ZM81.1519 96.09C79.8719 96.09 79.0119 95.14 79.0119 93.34C79.0119 91.53 79.8719 90.58 81.1519 90.58C82.0119 90.58 82.6519 91.01 82.9119 91.66H82.9819V88.71H84.2319L84.2219 96H83.0219L82.9819 95.01H82.9119C82.6519 95.66 82.0119 96.09 81.1519 96.09ZM81.6219 95.07C82.5119 95.07 82.9619 94.36 82.9619 93.61V93.06C82.9619 92.3 82.5119 91.6 81.6219 91.6C80.8219 91.6 80.2819 92.17 80.2819 93.34C80.2819 94.5 80.8219 95.07 81.6219 95.07ZM87.9201 96V88.71H93.1201V89.85H89.2401V91.75H92.6301V92.82H89.2401V94.86H93.1401V96H87.9201ZM93.6028 96L95.6328 93.26L93.7928 90.68H95.2728L96.4628 92.4H96.5228L97.7028 90.68H99.1228L97.3228 93.23L99.3128 96H97.8428L96.4828 94.06H96.4228L95.0028 96H93.6028ZM101.934 96.09C100.354 96.09 99.3244 95 99.3244 93.34C99.3244 91.68 100.364 90.58 101.974 90.58C103.314 90.58 104.274 91.39 104.344 92.56H103.124C103.014 91.94 102.544 91.61 101.944 91.61C101.064 91.61 100.584 92.3 100.584 93.34C100.584 94.47 101.124 95.06 101.934 95.06C102.624 95.06 103.074 94.66 103.144 94.07H104.364C104.284 95.3 103.294 96.09 101.934 96.09ZM105.338 96V88.71H106.588V91.69H106.648C106.948 90.96 107.628 90.58 108.398 90.58C109.478 90.58 110.288 91.2 110.288 92.81V96H109.038V93.08C109.038 92.08 108.698 91.61 107.918 91.61C107.078 91.61 106.588 92.27 106.588 93.07V96H105.338ZM113.388 96.09C112.108 96.09 111.248 95.14 111.248 93.34C111.248 91.53 112.108 90.58 113.388 90.58C114.248 90.58 114.888 91.01 115.148 91.66H115.218L115.268 90.68H116.468V96H115.218V95.01H115.148C114.888 95.66 114.248 96.09 113.388 96.09ZM113.858 95.07C114.748 95.07 115.198 94.36 115.198 93.61V93.06C115.198 92.3 114.748 91.6 113.858 91.6C113.058 91.6 112.518 92.17 112.518 93.34C112.518 94.5 113.058 95.07 113.858 95.07ZM117.809 96V90.68H119.009L119.059 91.69H119.119C119.419 90.96 120.099 90.58 120.869 90.58C121.949 90.58 122.759 91.2 122.759 92.81V96H121.509V93.08C121.509 92.08 121.169 91.61 120.389 91.61C119.549 91.61 119.059 92.27 119.059 93.07V96H117.809ZM126.219 97.77C124.879 97.77 124.049 97.16 123.959 96.2H125.159C125.239 96.61 125.639 96.87 126.249 96.87C127.149 96.87 127.579 96.5 127.579 95.64V94.66H127.509C127.269 95.28 126.639 95.69 125.829 95.69C124.549 95.69 123.719 94.79 123.719 93.13C123.719 91.48 124.569 90.58 125.849 90.58C126.649 90.58 127.269 90.98 127.509 91.59H127.579L127.619 90.68H128.829V95.44C128.829 97.16 127.779 97.77 126.219 97.77ZM126.279 94.72C127.119 94.72 127.559 94.09 127.579 93.45V92.81C127.549 92.18 127.119 91.55 126.289 91.55C125.499 91.55 124.989 92.1 124.989 93.13C124.989 94.18 125.509 94.72 126.279 94.72ZM132.275 96.09C130.665 96.09 129.735 95.01 129.735 93.37C129.735 91.66 130.685 90.58 132.235 90.58C133.975 90.58 134.815 91.84 134.665 93.6H130.955C130.965 94.62 131.485 95.14 132.275 95.14C132.905 95.14 133.335 94.82 133.455 94.34H134.635C134.495 95.42 133.545 96.09 132.275 96.09ZM132.235 91.53C131.505 91.53 131.035 91.98 130.965 92.79H133.435C133.405 91.93 132.925 91.53 132.235 91.53ZM59.1936 113.67C58.0736 112.61 57.4036 110.72 57.4036 108.87C57.4036 107.02 58.0736 105.13 59.1936 104.07H60.2836C59.2536 105.15 58.6136 107.03 58.6136 108.87C58.6136 110.76 59.2836 112.62 60.2836 113.67H59.1936ZM64.6638 112.09C62.4938 112.09 61.0438 110.69 61.0438 108.35C61.0438 106.02 62.4938 104.62 64.6638 104.62C66.4938 104.62 67.8138 105.64 68.0238 107.19H66.6738C66.4938 106.35 65.7338 105.76 64.6638 105.76C63.2838 105.76 62.4138 106.67 62.4138 108.35C62.4138 110.05 63.2838 110.95 64.6638 110.95C65.7138 110.95 66.5138 110.38 66.6738 109.51H68.0238C67.8338 111.07 66.4838 112.09 64.6638 112.09ZM69.2287 112V104.71H74.4287V105.85H70.5487V107.75H73.9387V108.82H70.5487V110.86H74.4487V112H69.2287ZM74.9314 112L77.6114 108.09L75.2514 104.71H76.8014L78.4514 107.23H78.4914L80.1414 104.71H81.6914L79.3614 108.08L82.0414 112H80.4714L78.4914 109.03H78.4514L76.4614 112H74.9314ZM83.6066 104.07C84.7266 105.13 85.4066 107.02 85.4066 108.87C85.4066 110.72 84.7266 112.61 83.6066 113.67H82.5266C83.5566 112.59 84.1866 110.71 84.1866 108.87C84.1866 106.98 83.5166 105.12 82.5266 104.07H83.6066ZM88.8966 112V104.71H90.2166V110.82H93.5766V112H88.8966ZM96.0542 112.09C94.7742 112.09 93.9142 111.14 93.9142 109.34C93.9142 107.53 94.7742 106.58 96.0542 106.58C96.9142 106.58 97.5542 107.01 97.8142 107.66H97.8842L97.9342 106.68H99.1342V112H97.8842V111.01H97.8142C97.5542 111.66 96.9142 112.09 96.0542 112.09ZM96.5242 111.07C97.4142 111.07 97.8642 110.36 97.8642 109.61V109.06C97.8642 108.3 97.4142 107.6 96.5242 107.6C95.7242 107.6 95.1842 108.17 95.1842 109.34C95.1842 110.5 95.7242 111.07 96.5242 111.07ZM102.335 112.09C101.115 112.09 100.425 111.36 100.425 109.98V106.68H101.675V109.65C101.675 110.56 102.005 111.07 102.815 111.07C103.625 111.07 104.125 110.42 104.125 109.58V106.68H105.375V112H104.175L104.125 110.97H104.065C103.795 111.69 103.125 112.09 102.335 112.09ZM106.666 112V106.68H107.866L107.916 107.69H107.976C108.276 106.96 108.956 106.58 109.726 106.58C110.806 106.58 111.616 107.2 111.616 108.81V112H110.366V109.08C110.366 108.08 110.026 107.61 109.246 107.61C108.406 107.61 107.916 108.27 107.916 109.07V112H106.666ZM115.186 112.09C113.606 112.09 112.576 111 112.576 109.34C112.576 107.68 113.616 106.58 115.226 106.58C116.566 106.58 117.526 107.39 117.596 108.56H116.376C116.266 107.94 115.796 107.61 115.196 107.61C114.316 107.61 113.836 108.3 113.836 109.34C113.836 110.47 114.376 111.06 115.186 111.06C115.876 111.06 116.326 110.66 116.396 110.07H117.616C117.536 111.3 116.546 112.09 115.186 112.09ZM118.59 112V104.71H119.84V107.69H119.9C120.2 106.96 120.88 106.58 121.65 106.58C122.73 106.58 123.54 107.2 123.54 108.81V112H122.29V109.08C122.29 108.08 121.95 107.61 121.17 107.61C120.33 107.61 119.84 108.27 119.84 109.07V112H118.59ZM127.04 112.09C125.43 112.09 124.5 111.01 124.5 109.37C124.5 107.66 125.45 106.58 127 106.58C128.74 106.58 129.58 107.84 129.43 109.6H125.72C125.73 110.62 126.25 111.14 127.04 111.14C127.67 111.14 128.1 110.82 128.22 110.34H129.4C129.26 111.42 128.31 112.09 127.04 112.09ZM127 107.53C126.27 107.53 125.8 107.98 125.73 108.79H128.2C128.17 107.93 127.69 107.53 127 107.53ZM132.376 112.1C130.956 112.1 130.086 111.39 130.096 110.32H131.326C131.336 110.93 131.766 111.2 132.416 111.2C133.046 111.2 133.376 110.96 133.376 110.54C133.376 110.05 133.066 109.93 132.246 109.81C130.886 109.61 130.236 109.25 130.236 108.23C130.236 107.24 131.106 106.58 132.416 106.58C133.696 106.58 134.526 107.24 134.546 108.26H133.316C133.306 107.71 132.946 107.47 132.386 107.47C131.816 107.47 131.486 107.71 131.486 108.12C131.486 108.57 131.846 108.71 132.736 108.83C134.006 109 134.656 109.38 134.656 110.43C134.656 111.5 133.746 112.1 132.376 112.1Z" fill="#A8A8A8"/>
<path d="M257.648 12.108C255.812 12.108 254.612 11.004 254.588 9.372H256.1C256.112 10.224 256.724 10.8 257.66 10.8C258.68 10.8 259.28 10.116 259.28 9.144C259.28 8.112 258.656 7.452 257.66 7.452C256.916 7.452 256.4 7.836 256.184 8.364H254.768L254.984 3.348H260.324V4.656H256.304L256.208 6.84L256.268 6.864C256.616 6.468 257.276 6.204 257.984 6.204C259.724 6.204 260.804 7.404 260.804 9.108C260.804 10.908 259.592 12.108 257.648 12.108ZM263.291 12L268.847 3.252H269.915L264.347 12H263.291ZM263.735 7.968C262.607 7.968 261.935 7.056 261.935 5.616C261.935 4.14 262.667 3.288 263.759 3.288C264.875 3.288 265.547 4.212 265.547 5.64C265.547 7.14 264.803 7.968 263.735 7.968ZM263.735 7.104C264.191 7.104 264.515 6.816 264.515 5.628C264.515 4.452 264.191 4.164 263.735 4.164C263.291 4.164 262.967 4.452 262.967 5.628C262.967 6.804 263.291 7.104 263.735 7.104ZM269.459 12.048C268.331 12.048 267.659 11.124 267.659 9.696C267.659 8.208 268.391 7.368 269.483 7.368C270.599 7.368 271.271 8.28 271.271 9.708C271.271 11.208 270.539 12.048 269.459 12.048ZM269.471 11.172C269.915 11.172 270.239 10.896 270.239 9.708C270.239 8.52 269.915 8.232 269.471 8.232C269.027 8.232 268.691 8.508 268.691 9.708C268.691 10.896 269.027 11.172 269.471 11.172Z" fill="#A8A8A8"/>
<path d="M156.16 30V22.71H159.18C161.32 22.71 162.51 24.17 162.51 26.36C162.51 28.54 161.31 30 159.18 30H156.16ZM157.48 28.86H158.98C160.27 28.86 161.16 28.14 161.16 26.33C161.16 24.55 160.27 23.84 158.98 23.84H157.48V28.86ZM165.818 30.09C164.208 30.09 163.278 29.01 163.278 27.37C163.278 25.66 164.228 24.58 165.778 24.58C167.518 24.58 168.358 25.84 168.208 27.6H164.498C164.508 28.62 165.028 29.14 165.818 29.14C166.448 29.14 166.878 28.82 166.998 28.34H168.178C168.038 29.42 167.088 30.09 165.818 30.09ZM165.778 25.53C165.048 25.53 164.578 25.98 164.508 26.79H166.978C166.948 25.93 166.468 25.53 165.778 25.53ZM171.591 30.09C170.011 30.09 168.981 29 168.981 27.34C168.981 25.68 170.021 24.58 171.631 24.58C172.971 24.58 173.931 25.39 174.001 26.56H172.781C172.671 25.94 172.201 25.61 171.601 25.61C170.721 25.61 170.241 26.3 170.241 27.34C170.241 28.47 170.781 29.06 171.591 29.06C172.281 29.06 172.731 28.66 172.801 28.07H174.021C173.941 29.3 172.951 30.09 171.591 30.09ZM177.204 30.09C175.594 30.09 174.664 29.01 174.664 27.37C174.664 25.66 175.614 24.58 177.164 24.58C178.904 24.58 179.744 25.84 179.594 27.6H175.884C175.894 28.62 176.414 29.14 177.204 29.14C177.834 29.14 178.264 28.82 178.384 28.34H179.564C179.424 29.42 178.474 30.09 177.204 30.09ZM177.164 25.53C176.434 25.53 175.964 25.98 175.894 26.79H178.364C178.334 25.93 177.854 25.53 177.164 25.53ZM180.6 30V24.68H181.8L181.85 25.69H181.91C182.21 24.96 182.89 24.58 183.66 24.58C184.74 24.58 185.55 25.2 185.55 26.81V30H184.3V27.08C184.3 26.08 183.96 25.61 183.18 25.61C182.34 25.61 181.85 26.27 181.85 27.07V30H180.6ZM188.353 30C187.363 30 187.093 29.55 187.093 28.79V25.69H186.113V24.68H187.093V23.18L188.333 23.05V24.68H189.463V25.69H188.333V28.56C188.333 28.9 188.473 28.98 188.783 28.98H189.463V30H188.353ZM190.424 30V24.68H191.554L191.614 25.57H191.654C191.894 24.89 192.474 24.61 193.164 24.61C193.284 24.61 193.384 24.61 193.474 24.61V25.79C193.394 25.79 193.274 25.78 193.144 25.78C192.174 25.78 191.714 26.26 191.674 27.09V30H190.424ZM195.974 30.09C194.694 30.09 193.834 29.14 193.834 27.34C193.834 25.53 194.694 24.58 195.974 24.58C196.834 24.58 197.474 25.01 197.734 25.66H197.804L197.854 24.68H199.054V30H197.804V29.01H197.734C197.474 29.66 196.834 30.09 195.974 30.09ZM196.444 29.07C197.334 29.07 197.784 28.36 197.784 27.61V27.06C197.784 26.3 197.334 25.6 196.444 25.6C195.644 25.6 195.104 26.17 195.104 27.34C195.104 28.5 195.644 29.07 196.444 29.07ZM200.395 30V22.71H201.645V30H200.395ZM202.992 23.93V22.71H204.242V23.93H202.992ZM202.992 30V24.68H204.242V30H202.992ZM205.2 30V29.1L208.12 25.69H205.35V24.68H209.71V25.56L206.79 28.99H209.82V30H205.2ZM212.849 30.09C211.239 30.09 210.309 29.01 210.309 27.37C210.309 25.66 211.259 24.58 212.809 24.58C214.549 24.58 215.389 25.84 215.239 27.6H211.529C211.539 28.62 212.059 29.14 212.849 29.14C213.479 29.14 213.909 28.82 214.029 28.34H215.209C215.069 29.42 214.119 30.09 212.849 30.09ZM212.809 25.53C212.079 25.53 211.609 25.98 211.539 26.79H214.009C213.979 25.93 213.499 25.53 212.809 25.53ZM218.152 30.09C216.872 30.09 216.012 29.14 216.012 27.34C216.012 25.53 216.872 24.58 218.152 24.58C219.012 24.58 219.652 25.01 219.912 25.66H219.982V22.71H221.232L221.222 30H220.022L219.982 29.01H219.912C219.652 29.66 219.012 30.09 218.152 30.09ZM218.622 29.07C219.512 29.07 219.962 28.36 219.962 27.61V27.06C219.962 26.3 219.512 25.6 218.622 25.6C217.822 25.6 217.282 26.17 217.282 27.34C217.282 28.5 217.822 29.07 218.622 29.07ZM224.92 30V22.71H230.12V23.85H226.24V25.75H229.63V26.82H226.24V28.86H230.14V30H224.92ZM230.603 30L232.633 27.26L230.793 24.68H232.273L233.463 26.4H233.523L234.703 24.68H236.123L234.323 27.23L236.313 30H234.843L233.483 28.06H233.423L232.003 30H230.603ZM238.934 30.09C237.354 30.09 236.324 29 236.324 27.34C236.324 25.68 237.364 24.58 238.974 24.58C240.314 24.58 241.274 25.39 241.344 26.56H240.124C240.014 25.94 239.544 25.61 238.944 25.61C238.064 25.61 237.584 26.3 237.584 27.34C237.584 28.47 238.124 29.06 238.934 29.06C239.624 29.06 240.074 28.66 240.144 28.07H241.364C241.284 29.3 240.294 30.09 238.934 30.09ZM242.338 30V22.71H243.588V25.69H243.648C243.948 24.96 244.628 24.58 245.398 24.58C246.478 24.58 247.288 25.2 247.288 26.81V30H246.038V27.08C246.038 26.08 245.698 25.61 244.918 25.61C244.078 25.61 243.588 26.27 243.588 27.07V30H242.338ZM250.388 30.09C249.108 30.09 248.248 29.14 248.248 27.34C248.248 25.53 249.108 24.58 250.388 24.58C251.248 24.58 251.888 25.01 252.148 25.66H252.218L252.268 24.68H253.468V30H252.218V29.01H252.148C251.888 29.66 251.248 30.09 250.388 30.09ZM250.858 29.07C251.748 29.07 252.198 28.36 252.198 27.61V27.06C252.198 26.3 251.748 25.6 250.858 25.6C250.058 25.6 249.518 26.17 249.518 27.34C249.518 28.5 250.058 29.07 250.858 29.07ZM254.809 30V24.68H256.009L256.059 25.69H256.119C256.419 24.96 257.099 24.58 257.869 24.58C258.949 24.58 259.759 25.2 259.759 26.81V30H258.509V27.08C258.509 26.08 258.169 25.61 257.389 25.61C256.549 25.61 256.059 26.27 256.059 27.07V30H254.809ZM263.219 31.77C261.879 31.77 261.049 31.16 260.959 30.2H262.159C262.239 30.61 262.639 30.87 263.249 30.87C264.149 30.87 264.579 30.5 264.579 29.64V28.66H264.509C264.269 29.28 263.639 29.69 262.829 29.69C261.549 29.69 260.719 28.79 260.719 27.13C260.719 25.48 261.569 24.58 262.849 24.58C263.649 24.58 264.269 24.98 264.509 25.59H264.579L264.619 24.68H265.829V29.44C265.829 31.16 264.779 31.77 263.219 31.77ZM263.279 28.72C264.119 28.72 264.559 28.09 264.579 27.45V26.81C264.549 26.18 264.119 25.55 263.289 25.55C262.499 25.55 261.989 26.1 261.989 27.13C261.989 28.18 262.509 28.72 263.279 28.72ZM269.275 30.09C267.665 30.09 266.735 29.01 266.735 27.37C266.735 25.66 267.685 24.58 269.235 24.58C270.975 24.58 271.815 25.84 271.665 27.6H267.955C267.965 28.62 268.485 29.14 269.275 29.14C269.905 29.14 270.335 28.82 270.455 28.34H271.635C271.495 29.42 270.545 30.09 269.275 30.09ZM269.235 25.53C268.505 25.53 268.035 25.98 267.965 26.79H270.435C270.405 25.93 269.925 25.53 269.235 25.53ZM202.287 47.67C201.167 46.61 200.497 44.72 200.497 42.87C200.497 41.02 201.167 39.13 202.287 38.07H203.377C202.347 39.15 201.707 41.03 201.707 42.87C201.707 44.76 202.377 46.62 203.377 47.67H202.287ZM204.52 46V38.71H207.54C209.68 38.71 210.87 40.17 210.87 42.36C210.87 44.54 209.67 46 207.54 46H204.52ZM205.84 44.86H207.34C208.63 44.86 209.52 44.14 209.52 42.33C209.52 40.55 208.63 39.84 207.34 39.84H205.84V44.86ZM212.088 46V38.71H217.288V39.85H213.408V41.75H216.798V42.82H213.408V44.86H217.308V46H212.088ZM217.791 46L220.471 42.09L218.111 38.71H219.661L221.311 41.23H221.351L223.001 38.71H224.551L222.221 42.08L224.901 46H223.331L221.351 43.03H221.311L219.321 46H217.791ZM226.466 38.07C227.586 39.13 228.266 41.02 228.266 42.87C228.266 44.72 227.586 46.61 226.466 47.67H225.386C226.416 46.59 227.046 44.71 227.046 42.87C227.046 40.98 226.376 39.12 225.386 38.07H226.466ZM231.756 46V38.71H233.076V44.82H236.436V46H231.756ZM237.191 39.93V38.71H238.441V39.93H237.191ZM237.191 46V40.68H238.441V46H237.191ZM243.429 47.67V45.01H243.359C243.099 45.66 242.459 46.09 241.599 46.09C240.319 46.09 239.459 45.14 239.459 43.34C239.459 41.53 240.319 40.58 241.599 40.58C242.459 40.58 243.099 41.01 243.359 41.66H243.429L243.479 40.68H244.679V47.67H243.429ZM242.069 45.07C242.959 45.07 243.409 44.36 243.409 43.61V43.06C243.409 42.3 242.959 41.6 242.069 41.6C241.269 41.6 240.729 42.17 240.729 43.34C240.729 44.5 241.269 45.07 242.069 45.07ZM247.88 46.09C246.66 46.09 245.97 45.36 245.97 43.98V40.68H247.22V43.65C247.22 44.56 247.55 45.07 248.36 45.07C249.17 45.07 249.67 44.42 249.67 43.58V40.68H250.92V46H249.72L249.67 44.97H249.61C249.34 45.69 248.67 46.09 247.88 46.09ZM252.211 39.93V38.71H253.461V39.93H252.211ZM252.211 46V40.68H253.461V46H252.211ZM256.619 46.09C255.339 46.09 254.479 45.14 254.479 43.34C254.479 41.53 255.339 40.58 256.619 40.58C257.479 40.58 258.119 41.01 258.379 41.66H258.449V38.71H259.699L259.689 46H258.489L258.449 45.01H258.379C258.119 45.66 257.479 46.09 256.619 46.09ZM257.089 45.07C257.979 45.07 258.429 44.36 258.429 43.61V43.06C258.429 42.3 257.979 41.6 257.089 41.6C256.289 41.6 255.749 42.17 255.749 43.34C255.749 44.5 256.289 45.07 257.089 45.07ZM261.039 39.93V38.71H262.289V39.93H261.039ZM261.039 46V40.68H262.289V46H261.039ZM265.287 46C264.297 46 264.027 45.55 264.027 44.79V41.69H263.047V40.68H264.027V39.18L265.267 39.05V40.68H266.397V41.69H265.267V44.56C265.267 44.9 265.407 44.98 265.717 44.98H266.397V46H265.287ZM267.205 47.67V46.64H267.795C268.255 46.64 268.495 46.46 268.645 46.06L268.825 45.6L266.765 40.68H268.135L269.225 43.72L269.425 44.32H269.475L269.655 43.72L270.685 40.68H272.015L269.865 46.35C269.495 47.37 268.905 47.67 268.025 47.67H267.205Z" fill="#A8A8A8"/>
<defs>
<linearGradient id="paint0_linear_446_568" x1="-6.67475" y1="-218.338" x2="521.041" y2="541.998" gradientUnits="userSpaceOnUse">
<stop stop-color="#CDFF3A"/>
<stop offset="0.764573" stop-color="#547000"/>
</linearGradient>
<linearGradient id="paint1_linear_446_568" x1="-92.8125" y1="-51.0454" x2="528.076" y2="443.385" gradientUnits="userSpaceOnUse">
<stop offset="0.149" stop-color="#22C55E"/>
<stop offset="0.684" stop-color="#18763C"/>
</linearGradient>
</defs>
</svg>
