<svg width="182" height="40" viewBox="0 0 182 40" fill="none" xmlns="http://www.w3.org/2000/svg">
<path d="M19.9771 -0.000243167C31.0103 -0.000243167 39.9543 8.94383 39.9543 19.977C39.9543 31.01 31.0103 39.9541 19.9771 39.9541C8.94408 39.9541 0 31.01 0 19.977C0 8.94383 8.94408 -0.000243167 19.9771 -0.000243167Z" fill="black"/>
<path d="M12.9148 24.491C12.7129 24.491 12.5226 24.5716 12.3841 24.7101L8.7675 28.3268C8.531 28.5632 8.69828 28.967 9.03282 28.967H27.341C27.5428 28.967 27.7331 28.8862 27.8717 28.748L31.4884 25.1311C31.7249 24.8946 31.5576 24.491 31.2231 24.491H12.9148Z" fill="url(#paint0_linear_584_26)"/>
<path d="M12.9148 10.9872C12.7187 10.9872 12.5283 11.068 12.3841 11.2064L8.7675 14.8232C8.531 15.0596 8.69828 15.4634 9.03282 15.4634H27.341C27.5428 15.4634 27.7331 15.3828 27.8717 15.2442L31.4884 11.6276C31.7249 11.3912 31.5576 10.9872 31.2231 10.9872H12.9148Z" fill="url(#paint1_linear_584_26)"/>
<path d="M9.03282 17.6958C8.69828 17.6958 8.531 18.0995 8.7675 18.336L12.3841 21.9527C12.5226 22.0913 12.7129 22.1719 12.9148 22.1719H31.2231C31.5576 22.1719 31.7249 21.7682 31.4884 21.5317L27.8717 17.915C27.7331 17.7766 27.5428 17.6958 27.341 17.6958H9.03282Z" fill="url(#paint2_linear_584_26)"/>
<path d="M45.9787 27.4771V11.5716H49.6878L54.0515 23.7461H54.1387L58.5024 11.5716H62.1897V27.4771H59.8769V20.0371L59.9424 14.0807H59.7897L55.0987 27.4771H53.0697L48.4224 14.0807H48.2697L48.3133 20.0589V27.4771H45.9787ZM72.4207 27.6734C68.3407 27.6734 65.9189 25.3389 65.9189 21.5861V11.5716H68.297V21.5425C68.297 24.2043 69.868 25.5352 72.4425 25.5352C75.2352 25.5352 76.588 24.008 76.588 21.5425V11.5716H78.9443V21.5861C78.9443 25.3389 76.5007 27.6734 72.4207 27.6734ZM82.6691 27.4771V11.5716H85.0473V25.3389H92.64V27.4771H82.6691ZM95.402 27.4771V13.6443H90.4057V11.5716H102.82V13.6443H97.7802V27.4771H95.402ZM104.956 27.4771V11.5716H107.334V27.4771H104.956ZM117.941 27.6734C113.25 27.6734 110.152 24.5534 110.152 19.5352C110.152 14.4952 113.272 11.397 117.941 11.397C121.868 11.397 124.683 13.5571 125.163 16.8952H122.763C122.326 14.8661 120.537 13.448 117.941 13.448C114.646 13.448 112.595 15.6516 112.595 19.5352C112.595 23.3971 114.646 25.6225 117.941 25.6225C120.515 25.6225 122.37 24.2261 122.763 22.088L125.163 22.1098C124.748 25.4698 121.868 27.6734 117.941 27.6734ZM127.946 27.4771V11.5716H130.324V18.3789H139.226V11.5716H141.604V27.4771H139.226V20.4516H130.324V27.4771H127.946ZM143.606 27.4771L149.257 11.5716H152.595L158.246 27.4771H155.758L154.449 23.768H147.402L146.093 27.4771H143.606ZM147.969 21.9134H153.86L152.115 17.0043L151.002 13.7534H150.871L149.758 17.0043L147.969 21.9134ZM160.205 27.4771V11.5716H162.583V27.4771H160.205ZM166.447 27.4771V11.5716H169.371L177.597 24.3134H177.749L177.618 18.9898V11.5716H179.931V27.4771H177.138L168.913 14.888H168.782L168.869 19.8407V27.4771H166.447Z" fill="white"/>
<defs>
<linearGradient id="paint0_linear_584_26" x1="20.4872" y1="8.64843" x2="20.0001" y2="33.1602" gradientUnits="userSpaceOnUse">
<stop stop-color="#00FFA3"/>
<stop offset="1" stop-color="#DC1FFF"/>
</linearGradient>
<linearGradient id="paint1_linear_584_26" x1="20.2743" y1="5.86149" x2="19.7871" y2="30.3733" gradientUnits="userSpaceOnUse">
<stop stop-color="#00FFA3"/>
<stop offset="1" stop-color="#DC1FFF"/>
</linearGradient>
<linearGradient id="paint2_linear_584_26" x1="20.3801" y1="7.24602" x2="19.893" y2="31.7578" gradientUnits="userSpaceOnUse">
<stop stop-color="#00FFA3"/>
<stop offset="1" stop-color="#DC1FFF"/>
</linearGradient>
</defs>
</svg>
