<?xml version="1.0" standalone="no"?>
<!DOCTYPE svg PUBLIC "-//W3C//DTD SVG 20010904//EN"
 "http://www.w3.org/TR/2001/REC-SVG-20010904/DTD/svg10.dtd">
<svg version="1.0" xmlns="http://www.w3.org/2000/svg"
 width="512.000000pt" height="512.000000pt" viewBox="0 0 512.000000 512.000000"
 preserveAspectRatio="xMidYMid meet">
<metadata>
Created by potrace 1.14, written by Peter Selinger 2001-2017
</metadata>
<g transform="translate(0.000000,512.000000) scale(0.100000,-0.100000)"
fill="#000000" stroke="none">
<path d="M2378 5115 c-2 -1 -37 -5 -78 -9 -41 -3 -88 -9 -105 -11 -124 -22
-207 -38 -251 -51 -28 -8 -62 -17 -74 -19 -13 -3 -60 -17 -104 -31 -474 -156
-894 -447 -1199 -829 -27 -33 -54 -67 -62 -77 -70 -86 -182 -273 -260 -435
-72 -151 -173 -446 -189 -553 -2 -14 -9 -48 -14 -75 -6 -28 -13 -73 -16 -100
-3 -28 -10 -81 -15 -120 -9 -71 -7 -480 3 -525 3 -14 7 -43 10 -65 15 -133 66
-349 117 -495 162 -461 448 -862 834 -1170 338 -269 771 -457 1200 -521 137
-20 192 -24 380 -24 221 0 298 6 478 40 507 95 959 332 1331 700 63 63 101
105 191 210 31 36 167 230 186 265 8 14 19 32 25 40 22 29 110 206 151 300 39
92 118 326 128 379 6 32 10 52 24 111 14 64 20 98 26 155 3 28 9 84 14 125 23
207 6 515 -39 736 -140 678 -530 1253 -1113 1638 -414 274 -887 412 -1409 414
-91 0 -168 -1 -170 -3z m487 -33 c39 -6 88 -14 110 -17 89 -14 276 -59 374
-91 761 -249 1362 -847 1619 -1609 29 -87 69 -233 78 -285 3 -14 9 -47 14 -75
37 -194 49 -490 29 -680 -89 -836 -538 -1539 -1252 -1959 -403 -237 -838 -349
-1327 -341 -374 6 -710 84 -1038 241 -1056 505 -1627 1645 -1401 2794 48 240
115 431 237 670 369 724 1100 1239 1907 1344 66 9 131 17 145 19 54 8 439 -1
505 -11z"/>
<path d="M473 3287 c-10 -16 146 -164 191 -181 l41 -16 0 -220 0 -220 35 -14
c72 -29 137 -43 193 -41 l57 1 -27 -24 -28 -24 33 22 c17 12 32 26 32 31 0 6
5 7 12 3 6 -4 8 -3 4 4 -3 6 -2 13 4 17 6 3 7 18 4 33 -15 68 -16 95 -3 103
11 7 9 9 -6 10 -11 0 -15 2 -10 5 6 2 9 24 7 49 -3 28 1 52 9 62 8 10 9 14 2
10 -6 -4 -14 -3 -18 3 -3 5 1 10 9 10 9 0 16 5 16 11 0 5 -4 8 -9 5 -5 -3 -11
10 -13 29 -4 35 8 48 18 20 4 -8 10 -12 16 -9 5 3 0 13 -12 21 -15 11 -20 23
-18 46 4 39 30 47 46 15 9 -17 11 -19 9 -5 -2 20 92 126 106 119 5 -2 0 -11
-10 -19 -13 -11 -14 -13 -3 -10 14 4 16 -21 15 -199 l0 -203 45 -46 c24 -24
59 -50 77 -56 18 -6 31 -14 28 -19 -3 -5 0 -12 6 -16 8 -4 9 -3 5 4 -10 16 5
15 30 -3 12 -8 25 -11 29 -7 3 4 97 8 208 9 111 2 213 4 227 5 20 2 24 -1 22
-17 -5 -27 7 -14 13 13 2 12 -1 25 -7 28 -7 5 -8 2 -3 -6 6 -9 4 -11 -4 -5 -9
5 -7 12 8 26 23 22 39 26 22 6 -6 -8 -8 -17 -4 -21 4 -4 8 -35 9 -69 1 -34 2
-64 3 -67 2 -10 66 -45 78 -42 6 1 14 -2 18 -8 8 -13 25 -13 25 0 0 5 -3 9 -7
7 -12 -3 -15 6 -8 26 8 19 26 24 21 5 -1 -7 -1 -10 1 -5 3 4 9 5 13 2 5 -3 12
0 16 6 4 7 3 9 -3 6 -6 -4 -13 -1 -16 7 -7 17 37 61 52 52 5 -4 13 -1 17 5 4
8 3 9 -4 5 -7 -4 -12 -3 -12 2 0 6 7 12 15 16 8 3 15 13 15 21 0 9 4 14 8 11
10 -6 9 45 -2 62 -4 7 -3 12 1 12 5 0 8 14 7 30 -1 17 2 30 8 30 5 0 2 8 -8
17 -11 11 -13 18 -5 21 6 2 8 9 5 14 -5 7 -2 8 5 4 7 -5 10 -14 7 -22 -3 -8 0
-11 10 -7 10 4 17 -2 21 -16 3 -11 9 -19 13 -16 12 7 61 -55 54 -67 -5 -7 -2
-8 5 -4 7 5 21 0 32 -10 21 -19 26 -39 7 -28 -8 4 -10 3 -5 -2 5 -5 14 -9 20
-9 7 -1 11 -6 10 -11 -1 -6 11 -10 28 -9 29 2 39 -9 17 -18 -10 -4 -10 -6 0
-6 7 -1 15 6 19 14 5 14 8 14 24 -1 16 -14 22 -15 32 -5 9 10 9 11 -4 6 -10
-4 -20 -2 -23 3 -3 6 25 9 70 8 42 0 80 2 86 5 18 12 -3 49 -62 111 -33 34
-57 65 -54 70 3 4 -2 5 -10 2 -11 -4 -16 0 -16 10 0 9 -4 16 -9 16 -5 0 -12 7
-15 16 -4 10 -2 13 6 8 18 -11 80 -5 97 9 12 9 13 9 7 0 -4 -7 -2 -13 3 -13 6
0 11 8 11 18 0 21 34 57 47 49 5 -3 8 57 8 132 -1 154 -4 164 -76 232 l-38 35
-240 0 -240 -1 -33 -32 c-37 -36 -48 -40 -48 -20 0 14 -50 47 -72 47 -7 0 -48
-35 -90 -77 l-77 -78 -3 -155 -3 -155 -88 0 c-49 0 -93 3 -99 6 -14 9 -12 20
4 30 11 7 11 9 -1 9 -11 0 -11 3 0 17 10 11 10 14 2 9 -8 -4 -13 -1 -13 9 0 9
4 14 8 11 5 -3 9 1 9 9 0 8 -4 12 -9 9 -4 -3 -8 0 -8 5 0 6 6 11 13 11 7 0 8
3 2 8 -12 9 -13 32 -1 51 6 9 5 12 0 8 -6 -3 -11 12 -11 35 -2 35 -11 48 -82
121 -58 60 -94 88 -133 103 -42 17 -54 19 -56 8 -3 -10 -9 -11 -30 -2 -34 14
-670 19 -679 5z m547 -647 c0 -5 -4 -10 -10 -10 -5 0 -10 5 -10 10 0 6 5 10
10 10 6 0 10 -4 10 -10z"/>
<path d="M2601 3291 c-14 -9 12 -63 47 -96 17 -16 29 -32 26 -37 -3 -4 2 -8
10 -8 11 0 16 -10 17 -27 0 -25 1 -26 9 -8 6 14 9 16 10 5 2 -8 2 -18 1 -22 0
-5 5 -7 12 -5 6 1 11 -4 10 -10 -2 -7 4 -13 12 -13 8 0 15 -4 15 -10 0 -5 5
-10 11 -10 5 0 7 5 4 10 -3 6 1 10 9 10 19 0 20 -11 4 -29 -9 -9 -9 -12 -1 -7
6 3 13 3 16 -1 2 -5 2 -2 1 5 -2 6 0 12 5 12 4 0 8 -58 8 -130 0 -88 -3 -130
-11 -130 -6 0 -4 -5 4 -10 13 -8 13 -13 2 -31 -8 -11 -9 -18 -4 -15 5 3 10
-21 11 -57 1 -34 2 -67 3 -72 1 -7 28 -10 67 -9 40 1 69 -3 73 -10 6 -8 8 -7
8 2 0 7 4 11 9 7 18 -11 24 42 23 222 0 135 2 183 11 183 8 0 8 3 2 8 -17 12
-16 39 1 53 13 11 17 10 25 -2 6 -10 9 -10 9 -1 0 6 4 12 9 12 6 0 8 -10 6
-21 -3 -12 -1 -18 3 -15 4 4 7 17 7 29 0 12 10 26 23 33 13 6 24 15 24 20 1
18 10 34 19 34 4 0 6 -8 3 -17 -5 -14 -4 -15 4 -4 6 8 8 21 4 29 -4 11 -1 14
12 9 9 -4 15 -3 12 2 -3 5 4 19 15 32 28 33 52 79 44 87 -8 9 -631 11 -644 3z"/>
<path d="M3298 3283 c-11 -14 -26 -124 -22 -173 2 -20 -1 -28 -8 -24 -7 5 -8
2 -2 -7 12 -19 13 -159 0 -152 -5 4 -6 1 0 -8 13 -20 13 -159 0 -151 -6 3 -5
-2 3 -11 7 -9 11 -26 8 -36 -5 -22 27 -81 45 -81 6 0 9 -3 6 -6 -4 -3 -17 -1
-30 6 -22 11 -22 10 -4 -4 11 -9 25 -16 32 -16 6 0 17 -6 23 -14 6 -7 22 -12
36 -10 16 1 23 -2 19 -8 -5 -7 -2 -8 7 -2 19 12 119 13 112 1 -4 -6 -1 -7 8
-1 20 13 119 13 112 0 -4 -7 -1 -6 8 0 18 15 69 15 66 0 -1 -6 -6 -14 -11 -17
-4 -4 -3 -10 3 -13 6 -4 12 -2 12 3 1 6 2 16 3 23 0 6 7 13 14 16 8 2 10 -3 6
-15 -5 -17 -5 -17 6 0 11 18 36 25 25 7 -3 -5 -1 -10 4 -10 6 0 11 5 11 10 0
6 7 10 16 10 8 0 13 -4 9 -9 -3 -5 0 -13 6 -17 8 -4 9 -3 5 4 -8 13 72 99 87
94 4 -1 6 2 2 7 -3 6 3 14 13 20 15 8 18 6 18 -14 0 -13 -4 -21 -8 -19 -4 3
-8 0 -8 -5 0 -6 4 -11 9 -11 6 0 8 -9 6 -20 -2 -11 1 -22 6 -25 5 -4 6 -12 2
-18 -5 -9 -3 -9 8 -1 17 14 50 14 42 1 -4 -6 -1 -7 8 -1 19 12 119 13 112 1
-4 -6 -1 -7 8 -1 20 13 119 13 112 0 -4 -7 -1 -6 8 0 18 15 69 15 66 0 -1 -6
-6 -14 -11 -17 -4 -4 -3 -10 3 -13 6 -4 12 -2 12 3 1 6 2 17 3 24 1 7 17 12
41 12 22 1 60 11 85 24 45 23 210 177 210 196 0 6 -74 10 -210 10 -115 0 -210
1 -210 2 0 0 21 11 48 24 50 24 225 186 216 200 -3 5 -31 9 -62 9 l-57 0 60
29 c63 31 223 181 212 198 -4 5 -124 9 -284 9 -255 -1 -281 -3 -308 -20 -52
-34 -115 -98 -115 -117 0 -11 -6 -19 -12 -19 -9 0 -9 -3 -3 -8 13 -8 14 -71 2
-89 -5 -8 -4 -13 2 -13 15 0 7 -40 -10 -50 -8 -5 -46 -42 -86 -82 l-72 -72
-141 -1 c-77 0 -141 2 -141 5 -1 3 -3 104 -3 225 -1 121 -5 226 -9 232 -10 17
-164 13 -179 -4z"/>
<path d="M2648 3173 c6 -2 9 -10 6 -15 -4 -7 -2 -8 5 -4 13 9 5 26 -12 25 -9
0 -8 -2 1 -6z"/>
<path d="M1140 3116 c0 -9 -4 -15 -9 -12 -5 3 -15 -2 -22 -11 -11 -13 -11 -17
-1 -20 6 -3 9 -10 6 -16 -4 -7 -1 -7 7 1 12 11 12 14 -1 22 -14 9 -7 14 13 11
10 -2 21 28 13 36 -3 4 -6 -1 -6 -11z"/>
<path d="M1149 3083 c-13 -16 -12 -17 4 -4 9 7 17 15 17 17 0 8 -8 3 -21 -13z"/>
<path d="M1086 3057 c3 -10 9 -15 12 -12 3 3 0 11 -7 18 -10 9 -11 8 -5 -6z"/>
<path d="M1023 3045 c0 -8 4 -12 9 -9 5 3 6 10 3 15 -9 13 -12 11 -12 -6z"/>
<path d="M3030 3040 c0 -5 5 -10 11 -10 5 0 7 5 4 10 -3 6 -8 10 -11 10 -2 0
-4 -4 -4 -10z"/>
<path d="M1030 3020 c-13 -8 -12 -10 3 -10 9 0 17 5 17 10 0 12 -1 12 -20 0z"/>
<path d="M1030 2850 c-9 -6 -10 -10 -3 -10 6 0 15 5 18 10 8 12 4 12 -15 0z"/>
<path d="M2473 2800 c1 -21 10 -18 13 5 1 8 -2 15 -6 15 -5 0 -8 -9 -7 -20z"/>
<path d="M1026 2798 c3 -5 10 -6 15 -3 13 9 11 12 -6 12 -8 0 -12 -4 -9 -9z"/>
<path d="M1025 2720 c3 -5 8 -10 11 -10 2 0 4 5 4 10 0 6 -5 10 -11 10 -5 0
-7 -4 -4 -10z"/>
<path d="M2190 2716 c0 -2 8 -10 18 -17 15 -13 16 -12 3 4 -13 16 -21 21 -21
13z"/>
<path d="M2250 2639 c0 -5 5 -7 10 -4 6 3 10 8 10 11 0 2 -4 4 -10 4 -5 0 -10
-5 -10 -11z"/>
<path d="M3920 2615 c-7 -9 -11 -17 -9 -20 3 -2 10 5 17 15 14 24 10 26 -8 5z"/>
<path d="M3296 2607 c3 -10 9 -15 12 -12 3 3 0 11 -7 18 -10 9 -11 8 -5 -6z"/>
<path d="M3331 2594 c0 -11 3 -14 6 -6 3 7 2 16 -1 19 -3 4 -6 -2 -5 -13z"/>
<path d="M1830 2591 c0 -7 -5 -9 -12 -5 -7 5 -8 3 -3 -5 5 -9 10 -10 18 -2 6
6 8 14 4 18 -4 3 -7 1 -7 -6z"/>
<path d="M920 2576 c7 -7 13 -7 20 0 6 6 3 10 -10 10 -13 0 -16 -4 -10 -10z"/>
<path d="M1417 2578 c2 -5 13 -8 23 -8 10 0 21 3 23 8 3 4 -8 7 -23 7 -15 0
-26 -3 -23 -7z"/>
<path d="M1473 2566 c-17 -20 -17 -20 1 -6 10 8 29 13 41 12 13 -2 25 0 28 5
12 19 -54 9 -70 -11z"/>
<path d="M1553 2566 c-17 -20 -17 -20 1 -6 10 8 29 13 41 12 13 -2 25 0 28 5
12 19 -54 9 -70 -11z"/>
<path d="M1633 2566 c-17 -20 -17 -20 1 -6 10 8 29 13 41 12 13 -2 25 0 28 5
12 19 -54 9 -70 -11z"/>
<path d="M1713 2566 c-17 -20 -17 -20 1 -6 10 8 29 13 41 12 13 -2 25 0 28 5
12 19 -54 9 -70 -11z"/>
<path d="M2441 2577 c-14 -14 -14 -27 -1 -27 6 0 9 5 8 11 -2 7 11 12 32 12
19 0 34 -5 33 -10 -1 -5 5 -10 13 -10 13 0 13 2 0 15 -18 18 -71 23 -85 9z"/>
<path d="M2855 2579 c-4 -6 -4 -13 -1 -16 3 -4 6 -1 6 6 0 7 5 9 12 5 7 -4 8
-3 4 4 -9 15 -13 15 -21 1z"/>
<path d="M2910 2568 c-10 -21 -10 -21 3 -6 8 10 18 14 22 10 5 -4 5 -1 1 6
-10 17 -14 15 -26 -10z"/>
<path d="M2950 2583 c0 -6 8 -17 18 -24 16 -13 16 -13 2 6 -8 11 -16 22 -17
24 -2 2 -3 0 -3 -6z"/>
<path d="M3370 2580 c0 -5 5 -10 11 -10 5 0 7 5 4 10 -3 6 -8 10 -11 10 -2 0
-4 -4 -4 -10z"/>
<path d="M3430 2580 c0 -5 5 -10 10 -10 6 0 10 5 10 10 0 6 -4 10 -10 10 -5 0
-10 -4 -10 -10z"/>
<path d="M3490 2580 c0 -5 5 -10 11 -10 5 0 7 5 4 10 -3 6 -8 10 -11 10 -2 0
-4 -4 -4 -10z"/>
<path d="M3550 2580 c0 -5 5 -10 10 -10 6 0 10 5 10 10 0 6 -4 10 -10 10 -5 0
-10 -4 -10 -10z"/>
<path d="M3610 2580 c0 -5 5 -10 11 -10 5 0 7 5 4 10 -3 6 -8 10 -11 10 -2 0
-4 -4 -4 -10z"/>
<path d="M3670 2580 c0 -5 5 -10 10 -10 6 0 10 5 10 10 0 6 -4 10 -10 10 -5 0
-10 -4 -10 -10z"/>
<path d="M3970 2580 c0 -5 5 -10 11 -10 5 0 7 5 4 10 -3 6 -8 10 -11 10 -2 0
-4 -4 -4 -10z"/>
<path d="M4030 2580 c0 -5 5 -10 10 -10 6 0 10 5 10 10 0 6 -4 10 -10 10 -5 0
-10 -4 -10 -10z"/>
<path d="M4090 2580 c0 -5 5 -10 11 -10 5 0 7 5 4 10 -3 6 -8 10 -11 10 -2 0
-4 -4 -4 -10z"/>
<path d="M4150 2580 c0 -5 5 -10 10 -10 6 0 10 5 10 10 0 6 -4 10 -10 10 -5 0
-10 -4 -10 -10z"/>
<path d="M4210 2580 c0 -5 5 -10 11 -10 5 0 7 5 4 10 -3 6 -8 10 -11 10 -2 0
-4 -4 -4 -10z"/>
<path d="M4270 2580 c0 -5 5 -10 10 -10 6 0 10 5 10 10 0 6 -4 10 -10 10 -5 0
-10 -4 -10 -10z"/>
<path d="M895 2560 c3 -5 8 -10 11 -10 2 0 4 5 4 10 0 6 -5 10 -11 10 -5 0 -7
-4 -4 -10z"/>
<path d="M1785 2560 c-3 -6 1 -7 9 -4 18 7 21 14 7 14 -6 0 -13 -4 -16 -10z"/>
<path d="M2110 2559 c0 -5 5 -7 10 -4 6 3 10 8 10 11 0 2 -4 4 -10 4 -5 0 -10
-5 -10 -11z"/>
<path d="M2375 2560 c3 -5 8 -10 11 -10 2 0 4 5 4 10 0 6 -5 10 -11 10 -5 0
-7 -4 -4 -10z"/>
<path d="M3465 2560 c3 -5 8 -10 11 -10 2 0 4 5 4 10 0 6 -5 10 -11 10 -5 0
-7 -4 -4 -10z"/>
<path d="M3516 2562 c-2 -4 4 -8 14 -8 10 0 16 4 14 8 -3 4 -9 8 -14 8 -5 0
-11 -4 -14 -8z"/>
<path d="M3585 2560 c3 -5 8 -10 11 -10 2 0 4 5 4 10 0 6 -5 10 -11 10 -5 0
-7 -4 -4 -10z"/>
<path d="M3636 2562 c-2 -4 4 -8 14 -8 10 0 16 4 14 8 -3 4 -9 8 -14 8 -5 0
-11 -4 -14 -8z"/>
<path d="M3755 2560 c-3 -6 1 -7 9 -4 18 7 21 14 7 14 -6 0 -13 -4 -16 -10z"/>
<path d="M4000 2559 c0 -5 5 -7 10 -4 6 3 10 8 10 11 0 2 -4 4 -10 4 -5 0 -10
-5 -10 -11z"/>
<path d="M4060 2559 c0 -5 5 -7 10 -4 6 3 10 8 10 11 0 2 -4 4 -10 4 -5 0 -10
-5 -10 -11z"/>
<path d="M4185 2560 c3 -5 8 -10 11 -10 2 0 4 5 4 10 0 6 -5 10 -11 10 -5 0
-7 -4 -4 -10z"/>
<path d="M4236 2562 c-2 -4 4 -8 14 -8 10 0 16 4 14 8 -3 4 -9 8 -14 8 -5 0
-11 -4 -14 -8z"/>
<path d="M2047 2520 c-9 -11 -13 -20 -7 -20 5 0 14 9 20 20 6 11 9 20 8 20 -2
0 -11 -9 -21 -20z"/>
<path d="M1262 2399 c-9 -4 -33 -23 -52 -43 l-35 -37 0 -355 c0 -225 4 -359
10 -364 16 -13 126 -60 121 -51 -3 5 17 29 44 55 28 26 50 52 50 57 0 6 5 7
10 4 6 -3 10 2 10 11 0 10 3 15 6 11 14 -14 31 20 28 56 -2 23 0 35 6 32 6 -3
10 -1 10 4 0 6 -4 11 -8 11 -4 0 -9 16 -10 36 -2 25 1 34 9 28 9 -5 9 -3 3 7
-5 8 -9 29 -9 47 -1 24 3 32 17 32 10 0 18 -6 18 -14 0 -8 5 -18 12 -22 6 -4
8 -3 5 4 -8 12 2 42 14 42 4 0 18 -10 29 -22 19 -21 21 -21 14 -3 -7 18 -6 19
11 5 11 -9 16 -10 11 -2 -4 8 -1 12 9 12 12 0 15 -5 11 -16 -3 -9 -6 -18 -6
-20 0 -3 -4 -3 -9 1 -5 3 -12 2 -15 -3 -3 -5 2 -9 10 -9 8 0 22 13 32 29 19
32 25 34 46 12 9 -8 16 -12 16 -7 0 5 25 9 55 10 54 1 115 18 115 32 0 4 7 16
16 27 12 15 15 16 10 2 -3 -9 0 -19 7 -22 7 -2 4 -5 -5 -5 -10 -1 -18 -6 -18
-11 0 -6 5 -9 12 -8 8 2 12 -26 12 -95 1 -96 2 -98 31 -122 29 -23 42 -27 92
-28 12 0 20 -4 17 -8 -3 -5 0 -9 6 -9 6 0 8 -4 5 -10 -3 -5 -1 -10 5 -10 6 0
9 8 6 18 -5 14 -1 18 19 18 14 0 25 -4 25 -9 0 -5 -6 -7 -13 -4 -8 3 -14 -1
-14 -9 0 -18 2 -18 32 10 24 22 42 86 24 86 -5 0 -5 10 -1 23 5 12 7 49 6 82
-1 36 1 52 5 40 8 -19 8 -19 15 3 9 26 19 28 40 6 9 -8 16 -11 16 -6 0 12 32
12 48 -1 14 -11 17 -31 3 -22 -5 3 -12 1 -15 -4 -4 -5 1 -8 9 -7 23 3 29 14
16 30 -9 11 -7 14 14 14 19 0 23 -4 15 -13 -7 -9 -6 -16 4 -24 10 -8 16 -9 21
-1 4 6 3 10 -2 9 -20 -3 -25 2 -13 16 13 16 35 21 25 6 -3 -5 -1 -13 5 -16 6
-4 9 -1 8 6 -2 6 2 13 7 15 6 3 10 -26 10 -74 0 -88 6 -114 39 -153 14 -16 23
-39 22 -52 -2 -14 2 -24 10 -24 9 0 10 5 3 19 -6 11 -6 18 0 18 10 0 25 -30
22 -43 -1 -5 3 -6 8 -3 5 4 16 -2 23 -11 29 -38 69 -68 76 -56 4 6 7 153 6
326 0 364 9 327 -114 447 l-77 75 -161 0 -161 0 -73 -72 c-75 -75 -88 -83 -88
-59 0 15 -84 96 -121 117 -18 10 -82 13 -257 14 -128 0 -240 -3 -250 -6z m225
-225 c-3 -3 -12 -4 -19 -1 -8 3 -5 6 6 6 11 1 17 -2 13 -5z m40 0 c-3 -3 -12
-4 -19 -1 -8 3 -5 6 6 6 11 1 17 -2 13 -5z m50 0 c-3 -3 -12 -4 -19 -1 -8 3
-5 6 6 6 11 1 17 -2 13 -5z m590 0 c-3 -3 -12 -4 -19 -1 -8 3 -5 6 6 6 11 1
17 -2 13 -5z"/>
<path d="M2636 2360 l-44 -45 0 -355 c-1 -302 2 -360 15 -389 15 -34 16 -34
32 -15 9 11 22 19 28 17 7 -3 20 1 30 7 16 10 15 10 -4 5 -31 -9 -29 9 4 34
14 12 37 36 50 53 12 18 23 28 23 22 0 -5 4 -3 8 4 5 6 8 57 8 112 -1 55 2
100 7 100 4 0 7 8 7 18 1 13 6 11 24 -12 17 -20 26 -25 31 -16 5 8 4 11 -1 7
-6 -3 -15 3 -22 14 -10 16 -9 19 3 19 8 0 15 -6 15 -12 1 -8 6 -6 14 5 16 20
46 13 47 -12 0 -13 1 -14 7 -1 9 19 52 26 52 8 1 -9 5 -7 14 5 16 20 46 13 47
-12 0 -13 2 -12 8 3 7 18 8 18 24 -5 9 -13 17 -19 17 -13 0 5 -5 15 -12 22 -9
9 -8 12 5 12 9 0 17 -6 17 -12 0 -7 5 -5 11 5 7 12 15 15 25 9 11 -6 26 2 53
30 63 63 71 90 69 227 l-2 120 -43 43 -44 43 -240 0 -239 0 -44 -45z"/>
<path d="M3385 2324 c-46 -44 -88 -91 -95 -104 -9 -16 -13 -94 -14 -259 -2
-237 4 -282 31 -259 10 8 20 5 38 -12 14 -13 25 -19 25 -13 0 6 -6 13 -12 16
-7 2 -10 8 -5 12 4 5 13 3 19 -3 16 -16 31 -15 22 1 -5 7 0 6 11 -3 15 -12 17
-12 10 -1 -6 11 -4 13 7 8 30 -11 61 40 62 104 1 32 5 61 9 65 4 4 2 13 -4 21
-9 9 -8 13 0 13 6 0 11 5 11 11 0 5 -4 7 -10 4 -5 -3 -10 -1 -10 4 0 6 7 11
15 11 8 0 15 -6 15 -12 0 -8 3 -9 8 -3 4 6 17 11 30 13 16 2 22 -2 22 -15 1
-16 2 -16 12 2 6 11 12 21 13 23 6 8 35 -12 35 -24 0 -8 4 -14 10 -14 5 0 6 8
3 18 -6 15 -5 16 12 2 15 -12 17 -12 10 -1 -6 11 -2 13 19 7 20 -5 26 -4 20 5
-4 8 -3 9 4 5 16 -10 15 -37 0 -34 -7 2 -17 8 -21 13 -5 6 -7 5 -5 -3 2 -8 6
-12 9 -10 3 2 13 -3 23 -11 12 -10 13 -17 6 -26 -7 -8 -7 -15 -1 -19 8 -5 8
-27 1 -46 -1 -3 -2 -9 -1 -13 8 -45 7 -66 -3 -60 -6 4 -5 -1 3 -10 10 -13 10
-17 1 -17 -7 0 -10 -7 -6 -16 4 -9 1 -24 -6 -33 -12 -14 -11 -14 5 -2 13 10
17 10 17 1 0 -10 3 -10 15 0 21 17 53 -14 35 -35 -7 -8 -10 -20 -7 -27 3 -8 6
-5 6 6 1 15 3 16 16 6 13 -10 13 -15 3 -21 -7 -4 -9 -11 -5 -16 17 -16 26 21
10 39 -24 26 -8 22 22 -6 23 -22 24 -25 9 -34 -15 -8 -15 -9 0 -15 10 -4 15
-3 11 3 -3 6 0 10 9 10 8 0 16 -6 18 -12 3 -9 11 -8 30 4 55 36 53 21 53 361
l-1 317 -82 83 -82 82 -162 0 -161 0 -82 -81z m363 -642 c6 -18 -15 -14 -22 4
-4 10 -1 14 6 12 6 -2 14 -10 16 -16z"/>
<path d="M1830 1940 c0 -5 5 -10 10 -10 6 0 10 5 10 10 0 6 -4 10 -10 10 -5 0
-10 -4 -10 -10z"/>
<path d="M1520 1927 c0 -9 5 -17 11 -17 5 0 7 -5 3 -12 -4 -7 -3 -8 5 -4 9 6
9 12 -1 24 -7 10 -14 19 -15 21 -2 2 -3 -3 -3 -12z"/>
<path d="M1640 1927 c0 -9 5 -17 11 -17 5 0 7 -5 3 -12 -4 -7 -3 -8 5 -4 9 6
9 12 -1 24 -7 10 -14 19 -15 21 -2 2 -3 -3 -3 -12z"/>
<path d="M2156 1925 c-3 -8 -1 -15 4 -15 6 0 10 7 10 15 0 8 -2 15 -4 15 -2 0
-6 -7 -10 -15z"/>
<path d="M2877 1926 c-4 -10 -3 -15 3 -11 6 3 10 1 10 -6 0 -7 3 -10 6 -6 3 3
2 13 -4 22 -8 16 -9 16 -15 1z"/>
<path d="M2997 1926 c-4 -10 -3 -15 3 -11 6 3 10 1 10 -6 0 -7 3 -10 6 -6 3 3
2 13 -4 22 -8 16 -9 16 -15 1z"/>
<path d="M3113 1925 c0 -8 4 -15 9 -15 4 0 8 4 8 9 0 6 -4 12 -8 15 -5 3 -9
-1 -9 -9z"/>
<path d="M3596 1923 c-8 -20 9 -40 19 -22 6 8 4 10 -5 4 -9 -5 -10 -2 -5 14 8
25 0 29 -9 4z"/>
<path d="M1465 1920 c-3 -5 -1 -10 4 -10 6 0 11 5 11 10 0 6 -2 10 -4 10 -3 0
-8 -4 -11 -10z"/>
<path d="M1695 1919 c-4 -6 -4 -13 -1 -16 3 -4 6 -1 6 6 0 7 5 9 12 5 7 -4 8
-3 4 4 -9 15 -13 15 -21 1z"/>
<path d="M1735 1919 c-5 -8 -5 -11 0 -7 4 4 13 0 20 -9 10 -13 13 -14 20 -2 5
8 5 11 0 7 -4 -4 -13 0 -20 9 -10 13 -13 14 -20 2z"/>
<path d="M1784 1918 c12 -7 21 -7 28 0 6 6 0 10 -18 10 -23 0 -24 -2 -10 -10z"/>
<path d="M2215 1920 c-3 -5 -1 -10 4 -10 6 0 11 5 11 10 0 6 -2 10 -4 10 -3 0
-8 -4 -11 -10z"/>
<path d="M2935 1919 c-5 -8 -5 -11 0 -7 4 4 13 0 20 -9 10 -13 13 -14 20 -2 5
8 5 11 0 7 -4 -4 -13 0 -20 9 -10 13 -13 14 -20 2z"/>
<path d="M3535 1919 c-4 -6 -4 -13 -1 -16 3 -4 6 -1 6 6 0 7 5 9 12 5 7 -4 8
-3 4 4 -9 15 -13 15 -21 1z"/>
<path d="M1830 1900 c0 -5 5 -10 11 -10 5 0 7 5 4 10 -3 6 -8 10 -11 10 -2 0
-4 -4 -4 -10z"/>
<path d="M2180 1900 c-12 -7 -10 -9 7 -7 12 0 19 5 17 9 -6 10 -6 10 -24 -2z"/>
<path d="M1460 1880 c0 -5 7 -7 15 -4 8 4 15 8 15 10 0 2 -7 4 -15 4 -8 0 -15
-4 -15 -10z"/>
<path d="M3690 1864 c0 -6 7 -19 16 -30 14 -18 14 -18 3 6 -14 31 -19 36 -19
24z"/>
<path d="M3696 1758 c3 -5 10 -6 15 -3 13 9 11 12 -6 12 -8 0 -12 -4 -9 -9z"/>
<path d="M1990 1691 c0 -5 7 -12 16 -15 14 -5 15 -4 4 9 -14 17 -20 19 -20 6z"/>
<path d="M3323 1679 c9 -6 14 -15 11 -21 -4 -7 -2 -8 5 -4 14 9 -3 36 -23 36
-6 0 -3 -5 7 -11z"/>
<path d="M1401 1641 c0 -8 -9 -20 -18 -28 -17 -13 -16 -13 2 -5 11 6 24 10 28
10 5 0 12 4 15 8 4 4 2 4 -5 0 -6 -3 -13 1 -16 11 -3 11 -5 12 -6 4z"/>
<path d="M1420 1645 c0 -7 30 -13 34 -7 3 4 -4 9 -15 9 -10 1 -19 0 -19 -2z"/>
<path d="M3750 1640 c0 -5 5 -10 10 -10 6 0 10 5 10 10 0 6 -4 10 -10 10 -5 0
-10 -4 -10 -10z"/>
<path d="M1340 1580 c-12 -22 -1 -33 20 -19 10 6 11 9 3 9 -7 0 -13 4 -13 10
0 5 7 7 15 4 8 -4 15 -4 15 -1 0 16 -31 14 -40 -3z"/>
<path d="M2507 1559 c7 -7 15 -10 18 -7 3 3 -2 9 -12 12 -14 6 -15 5 -6 -5z"/>
</g>
</svg>
