<svg width="512" height="512" viewBox="0 0 512 512" fill="none" xmlns="http://www.w3.org/2000/svg">
<path d="M219.141 64.4489C215.266 62.8259 210.464 64.3909 208.574 68.9739C206.424 74.2369 210.31 80.0019 215.977 80.0019C224.571 80.0019 227.304 67.8679 219.141 64.4489Z" fill="white"/>
<path d="M434.971 179.113C436.336 84.174 357.233 0 255.98 0C153.976 0 75.6096 85.092 76.9876 179.111C77.0476 183.517 74.1146 178.903 202.435 321.043C172.801 339.15 152.98 371.803 152.98 409C152.98 465.794 199.186 512 255.98 512C312.774 512 358.98 465.794 358.98 409C358.98 360.541 325.339 319.798 280.186 308.88L319.063 180.216C345.508 154.352 387.317 152.495 416.036 179.184L312.243 294.154C307.575 299.324 311.325 307.515 318.179 307.515C320.364 307.515 322.54 306.625 324.119 304.876C441.788 174.536 434.911 183.472 434.971 179.113ZM95.9606 179.226C125.109 152.568 166.286 154.318 192.899 180.226L231.773 308.881C226.778 310.089 221.925 311.661 217.242 313.569L95.9606 179.226ZM342.98 409C342.98 456.972 303.952 496 255.98 496C208.008 496 168.98 456.972 168.98 409C168.98 361.028 208.008 322 255.98 322C303.952 322 342.98 361.028 342.98 409ZM247.718 306.332L209.047 178.35C236.77 153.415 276.925 154.438 302.921 178.319L264.241 306.331C258.737 305.893 253.31 305.886 247.718 306.332ZM312.038 165.001C283.781 140.447 241.412 135.92 207.259 159.467C207.1 141.304 209.158 123.286 213.428 105.718C214.472 101.425 211.837 97.098 207.544 96.055C203.25 95.011 198.925 97.646 197.881 101.939C193.382 120.447 191.168 139.414 191.249 158.533C161.007 138.555 123.513 139.186 94.0606 160.17C102.757 84.923 162.907 25.127 238.311 16.961C230.921 26.722 224.294 37.024 218.554 47.768C216.472 51.665 217.943 56.512 221.84 58.594C225.721 60.668 230.575 59.221 232.666 55.308C239.256 42.973 247.096 31.258 255.995 20.352C282.905 53.314 299.319 92.974 303.594 135.345C304.01 139.468 307.487 142.543 311.544 142.543C316.301 142.543 319.988 138.442 319.513 133.74C315.061 89.613 298.55 49.807 273.671 16.965C349.054 25.14 409.185 84.914 417.894 160.138C384.463 136.303 342.016 139.571 312.038 165.001Z" fill="white"/>
<path d="M253.98 373V370C253.98 365.582 250.398 362 245.98 362C241.562 362 237.98 365.582 237.98 370V373H232.98C228.562 373 224.98 376.582 224.98 381C224.98 385.418 228.562 389 232.98 389H233.98V429H232.98C228.562 429 224.98 432.582 224.98 437C224.98 441.418 228.562 445 232.98 445H237.98V448C237.98 452.418 241.562 456 245.98 456C250.398 456 253.98 452.418 253.98 448V445H257.98V448C257.98 452.418 261.562 456 265.98 456C270.398 456 273.98 452.418 273.98 448V443.067C287.258 437.088 291.173 420.167 281.938 409C291.18 397.825 287.246 380.906 273.98 374.933V370C273.98 365.582 270.398 362 265.98 362C261.562 362 257.98 365.582 257.98 370V373H253.98ZM270.98 423C270.98 426.308 268.289 429 264.98 429H249.98V417H264.98C268.288 417 270.98 419.692 270.98 423ZM249.98 401V389H264.98C268.289 389 270.98 391.692 270.98 395C270.98 398.308 268.289 401 264.98 401H249.98Z" fill="white"/>
<path d="M182.98 409C182.98 449.252 215.728 482 255.98 482C296.232 482 328.98 449.252 328.98 409C328.98 368.748 296.232 336 255.98 336C215.728 336 182.98 368.748 182.98 409ZM312.98 409C312.98 440.43 287.41 466 255.98 466C224.55 466 198.98 440.43 198.98 409C198.98 377.57 224.55 352 255.98 352C287.41 352 312.98 377.57 312.98 409Z" fill="white"/>
</svg>
