<svg width="102" height="102" viewBox="0 0 102 102" fill="none" xmlns="http://www.w3.org/2000/svg">
<mask id="mask0_446_494" style="mask-type:alpha" maskUnits="userSpaceOnUse" x="0" y="0" width="102" height="102">
<circle cx="51" cy="51" r="51" fill="#D9D9D9"/>
</mask>
<g mask="url(#mask0_446_494)">
<g filter="url(#filter0_di_446_494)">
<rect x="-44" y="-36" width="268" height="175" fill="url(#paint0_linear_446_494)"/>
</g>
</g>
<g clip-path="url(#clip0_446_494)">
<path d="M69.732 41.0695C68.7952 36.7986 66.4272 32.9762 63.0203 30.2356C59.6134 27.495 55.3723 26.0009 51 26.0009C46.6276 26.0009 42.3865 27.495 38.9796 30.2356C35.5728 32.9762 33.2047 36.7986 32.2679 41.0695C32.237 41.2113 32.2462 41.359 32.2945 41.4958C32.3428 41.6327 32.4283 41.7535 32.5414 41.8445L43.2273 50.4382L38.8906 52.9382C38.5341 53.1441 38.2381 53.4402 38.0323 53.7968C37.8266 54.1533 37.7184 54.5578 37.7187 54.9695V67.3414C37.7184 67.753 37.8266 68.1575 38.0323 68.5141C38.2381 68.8707 38.5341 69.1668 38.8906 69.3726L49.8281 75.6882C50.1844 75.8939 50.5885 76.0022 51 76.0022C51.4114 76.0022 51.8155 75.8939 52.1718 75.6882L63.1093 69.3726C63.4659 69.1668 63.7619 68.8707 63.9676 68.5141C64.1733 68.1575 64.2815 67.753 64.2812 67.3414V54.971C64.2815 54.5594 64.1733 54.1549 63.9676 53.7983C63.7619 53.4417 63.4659 53.1456 63.1093 52.9398L58.7726 50.4398L69.4578 41.846C69.5713 41.755 69.6571 41.634 69.7055 41.4968C69.754 41.3596 69.7631 41.2116 69.732 41.0695ZM67.5914 39.2914C66.4852 38.7444 65.2546 38.498 64.023 38.5769C62.7915 38.6557 61.6024 39.057 60.575 39.7406C59.8101 34.6531 58.0312 30.575 55.7015 28.221C58.421 28.9876 60.9183 30.3919 62.9862 32.3173C65.0541 34.2426 66.6328 36.6335 67.5914 39.2914ZM51.7812 27.646C55.0367 28.3 57.8687 32.9812 58.95 39.464C57.85 38.8473 56.605 38.5366 55.3443 38.5641C54.0836 38.5915 52.8532 38.9563 51.7812 39.6203V27.646ZM55.4921 40.125C56.7644 40.1218 57.9977 40.5641 58.9781 41.375L54.7765 48.132L52.1718 46.625C52.0466 46.5613 51.9158 46.509 51.7812 46.4687V41.5757C52.7904 40.6406 54.1163 40.1222 55.4921 40.125ZM47.2234 48.1304L43.0211 41.3734C44.0431 40.5326 45.3348 40.09 46.6578 40.1272C47.9807 40.1644 49.2455 40.6789 50.2187 41.5757V46.4687C50.0839 46.5108 49.9532 46.5649 49.8281 46.6304L47.2234 48.1304ZM50.2187 27.646V39.6203C49.1468 38.9563 47.9166 38.5917 46.656 38.5642C45.3955 38.5367 44.1506 38.8474 43.0507 39.464C44.1312 32.9812 46.964 28.3 50.2187 27.646ZM46.2976 28.221C43.9687 30.575 42.1898 34.6531 41.425 39.7398C40.3975 39.0566 39.2085 38.6555 37.9772 38.5768C36.7458 38.4981 35.5154 38.7445 34.4093 39.2914C35.3675 36.6336 36.946 34.2427 39.0136 32.3173C41.0812 30.392 43.5784 28.9877 46.2976 28.221ZM34.2492 41.2125C35.3059 40.4242 36.6114 40.0433 37.9262 40.1396C39.2411 40.2359 40.4771 40.8029 41.4078 41.7367L45.8695 48.9117L44.6781 49.6L34.2492 41.2125ZM62.7187 54.971V67.3414C62.7188 67.4786 62.6828 67.6135 62.6142 67.7324C62.5457 67.8513 62.447 67.9501 62.3281 68.0187L51.3906 74.3328C51.2718 74.4013 51.1371 74.4374 51 74.4374C50.8628 74.4374 50.7281 74.4013 50.6093 74.3328L39.6718 68.0187C39.553 67.9501 39.4543 67.8513 39.3857 67.7324C39.3171 67.6135 39.2811 67.4786 39.2812 67.3414V54.971C39.2812 54.8339 39.3173 54.6992 39.3859 54.5804C39.4545 54.4617 39.5531 54.3631 39.6718 54.2945L50.6093 47.9796C50.7281 47.9111 50.8628 47.875 51 47.875C51.1371 47.875 51.2718 47.9111 51.3906 47.9796L62.3281 54.2945C62.4469 54.3631 62.5455 54.4617 62.614 54.5804C62.6826 54.6992 62.7187 54.8339 62.7187 54.971ZM57.3211 49.6L56.1304 48.9125L60.5945 41.7343C61.5252 40.8016 62.7608 40.2354 64.0749 40.1396C65.3891 40.0437 66.6938 40.4246 67.75 41.2125L57.3211 49.6Z" fill="white"/>
<path d="M50.6094 50.714L49.8281 51.1648C49.7094 51.2334 49.6107 51.332 49.5422 51.4508C49.4736 51.5695 49.4375 51.7043 49.4375 51.8414V70.5312C49.4375 70.7384 49.5198 70.9371 49.6663 71.0837C49.8128 71.2302 50.0115 71.3125 50.2187 71.3125C50.426 71.3125 50.6247 71.2302 50.7712 71.0837C50.9177 70.9371 51 70.7384 51 70.5312V62.3281H53.7344C53.9416 62.3281 54.1403 62.2458 54.2868 62.0993C54.4333 61.9528 54.5156 61.7541 54.5156 61.5469C54.5156 61.3397 54.4333 61.1409 54.2868 60.9944C54.1403 60.8479 53.9416 60.7656 53.7344 60.7656H51V52.2929L53.7344 53.8719C53.9138 53.9755 54.1271 54.0035 54.3272 53.9499C54.5273 53.8963 54.698 53.7654 54.8016 53.5859C54.9052 53.4065 54.9332 53.1932 54.8796 52.9931C54.826 52.793 54.6951 52.6223 54.5156 52.5187L51.3906 50.714C51.2719 50.6455 51.1371 50.6094 51 50.6094C50.8629 50.6094 50.7281 50.6455 50.6094 50.714Z" fill="white"/>
<path d="M56.078 55.225L57.2499 55.9016V67.4062C57.2499 67.6134 57.3322 67.8122 57.4787 67.9587C57.6252 68.1052 57.824 68.1875 58.0312 68.1875C58.2384 68.1875 58.4371 68.1052 58.5836 67.9587C58.7301 67.8122 58.8124 67.6134 58.8124 67.4062V56.8039L59.9843 57.4805C60.1638 57.5841 60.3772 57.6121 60.5774 57.5584C60.7776 57.5047 60.9483 57.3737 61.0519 57.1941C61.1555 57.0146 61.1835 56.8013 61.1298 56.6011C61.0761 56.4008 60.9451 56.2302 60.7655 56.1266L56.8593 53.8719C56.6799 53.7699 56.4675 53.743 56.2685 53.7971C56.0694 53.8511 55.8997 53.9817 55.7966 54.1604C55.6934 54.3391 55.6651 54.5513 55.7178 54.7507C55.7706 54.9502 55.9001 55.1207 56.078 55.225Z" fill="white"/>
<path d="M46.7031 53.7344C46.4959 53.7344 46.2972 53.8167 46.1507 53.9632C46.0042 54.1097 45.9219 54.3084 45.9219 54.5156V64.5219L42.7406 56.5695C42.673 56.4012 42.549 56.2617 42.3898 56.1748C42.2306 56.0879 42.0461 56.0592 41.868 56.0934C41.6899 56.1277 41.5293 56.2229 41.4137 56.3626C41.298 56.5024 41.2347 56.678 41.2344 56.8594V67.0156C41.2344 67.2228 41.3167 67.4215 41.4632 67.5681C41.6097 67.7146 41.8084 67.7969 42.0156 67.7969C42.2228 67.7969 42.4215 67.7146 42.5681 67.5681C42.7146 67.4215 42.7969 67.2228 42.7969 67.0156V60.9164L45.9781 68.868C46.0457 69.0363 46.1697 69.1758 46.3289 69.2627C46.4882 69.3496 46.6726 69.3783 46.8508 69.3441C47.0289 69.3098 47.1895 69.2146 47.3051 69.0749C47.4207 68.9351 47.4841 68.7595 47.4844 68.5781V54.5156C47.4844 54.3084 47.4021 54.1097 47.2556 53.9632C47.109 53.8167 46.9103 53.7344 46.7031 53.7344Z" fill="white"/>
</g>
<defs>
<filter id="filter0_di_446_494" x="-62" y="-50" width="304" height="211" filterUnits="userSpaceOnUse" color-interpolation-filters="sRGB">
<feFlood flood-opacity="0" result="BackgroundImageFix"/>
<feColorMatrix in="SourceAlpha" type="matrix" values="0 0 0 0 0 0 0 0 0 0 0 0 0 0 0 0 0 0 127 0" result="hardAlpha"/>
<feMorphology radius="2" operator="dilate" in="SourceAlpha" result="effect1_dropShadow_446_494"/>
<feOffset dy="4"/>
<feGaussianBlur stdDeviation="8"/>
<feComposite in2="hardAlpha" operator="out"/>
<feColorMatrix type="matrix" values="0 0 0 0 0 0 0 0 0 0 0 0 0 0 0 0 0 0 0.08 0"/>
<feBlend mode="normal" in2="BackgroundImageFix" result="effect1_dropShadow_446_494"/>
<feBlend mode="normal" in="SourceGraphic" in2="effect1_dropShadow_446_494" result="shape"/>
<feColorMatrix in="SourceAlpha" type="matrix" values="0 0 0 0 0 0 0 0 0 0 0 0 0 0 0 0 0 0 127 0" result="hardAlpha"/>
<feOffset dy="4"/>
<feGaussianBlur stdDeviation="3.65"/>
<feComposite in2="hardAlpha" operator="arithmetic" k2="-1" k3="1"/>
<feColorMatrix type="matrix" values="0 0 0 0 0.375 0 0 0 0 0.375 0 0 0 0 0.375 0 0 0 0.25 0"/>
<feBlend mode="normal" in2="shape" result="effect2_innerShadow_446_494"/>
</filter>
<linearGradient id="paint0_linear_446_494" x1="-157.063" y1="-85.7159" x2="108.291" y2="237.887" gradientUnits="userSpaceOnUse">
<stop offset="0.149" stop-color="#22C55E"/>
<stop offset="0.684" stop-color="#18763C"/>
</linearGradient>
<clipPath id="clip0_446_494">
<rect width="50" height="50" fill="white" transform="translate(26 26)"/>
</clipPath>
</defs>
</svg>
