<svg width="104" height="104" viewBox="0 0 104 104" fill="none" xmlns="http://www.w3.org/2000/svg">
<g clip-path="url(#clip0_446_403)">
<path d="M0 71.161C0 72.002 0.681477 72.6835 1.52251 72.6835H16.4222C16.9931 72.6835 17.5462 72.5166 18.0225 72.2005L18.7639 71.7079C20.6524 70.4535 22.8489 69.7905 25.1156 69.7905H35.7265C37.9635 69.7905 40.0664 70.6616 41.648 72.2434C41.9334 72.529 42.3208 72.6894 42.7247 72.6894H50.2821C51.1231 72.6894 51.8046 72.0079 51.8046 71.1669C51.8046 70.3258 51.1231 69.6443 50.2821 69.6443H43.3301C41.2355 67.7702 38.5598 66.7455 35.7267 66.7455H25.1158C22.2476 66.7455 19.4687 67.5845 17.0793 69.1716L16.3761 69.6385H1.52251C0.681477 69.6385 0 70.3199 0 71.161Z" fill="white"/>
<path d="M95.7277 68.2138L68.3953 77.8263C68.4631 77.4362 68.5007 77.0355 68.5007 76.6262C68.5007 72.7765 65.3686 69.6444 61.5187 69.6444H56.7702C55.9292 69.6444 55.2477 70.3258 55.2477 71.1669C55.2477 72.0079 55.9292 72.6894 56.7702 72.6894H61.5187C63.6893 72.6894 65.4557 74.4553 65.4557 76.6262C65.4557 78.7971 63.6896 80.5632 61.5187 80.5632H46.2787C45.5743 80.5632 44.9121 80.8377 44.4139 81.3356L41.7932 83.9562C41.1984 84.5508 41.1984 85.5148 41.793 86.1092C42.0904 86.4066 42.4799 86.5552 42.8697 86.5552C43.2593 86.5552 43.649 86.4066 43.9462 86.1094L46.4476 83.6082H61.5187C63.2953 83.6082 64.9183 82.9402 66.1518 81.8433L96.7378 71.0867C98.2333 70.5603 99.8632 71.2491 100.528 72.6884C101.217 74.1768 100.615 75.9334 99.1588 76.6875L66.1656 93.7733C64.2342 94.7735 62.0637 95.3022 59.8885 95.3022H31.4906C28.2231 95.3022 25.0597 94.128 22.5835 91.9959L21.6877 91.2243C21.4114 90.9861 21.0588 90.8554 20.694 90.8554H1.52251C0.681477 90.8554 0 91.5369 0 92.3779C0 93.219 0.681477 93.9004 1.52251 93.9004H20.1288L20.5966 94.3032C23.6253 96.9109 27.4943 98.3472 31.4906 98.3472H59.8885C62.5487 98.3472 65.2037 97.7004 67.5659 96.4773L100.559 79.3915C103.465 77.8864 104.666 74.3806 103.292 71.4105C101.965 68.5384 98.713 67.1631 95.7277 68.2138Z" fill="white"/>
<path d="M102.477 31.3168H87.5777C87.0068 31.3168 86.4537 31.4837 85.9772 31.7999L85.2361 32.2924C83.3473 33.547 81.1511 34.2098 78.8843 34.2098H68.2734C66.0364 34.2098 63.9335 33.3387 62.3519 31.7569C62.0663 31.4715 61.6791 31.3111 61.2752 31.3111H42.4813C40.3106 31.3111 38.5442 29.545 38.5442 27.3741C38.5442 25.2032 40.3104 23.4371 42.4813 23.4371H57.7214C58.4262 23.4371 59.0884 23.1624 59.586 22.6647L62.2067 20.0441C62.8015 19.4495 62.8015 18.4855 62.2069 17.8911C61.6123 17.2967 60.6483 17.2963 60.0539 17.8909L57.5525 20.3921H42.4815C40.705 20.3921 39.0822 21.0601 37.8486 22.1566L7.2623 32.914C5.76658 33.4398 4.13668 32.7514 3.47124 31.3121C2.78306 29.8237 3.38476 28.0672 4.84089 27.313L26.625 16.0322C27.3716 15.6455 27.6634 14.7267 27.2768 13.9801C26.8901 13.2334 25.9711 12.9423 25.2247 13.3282L3.44059 24.609C0.534821 26.1141 -0.665934 29.6199 0.707372 32.59C1.73456 34.8121 3.91358 36.1377 6.23003 36.1375C6.90745 36.1375 7.59684 36.024 8.27243 35.7865L35.6046 26.1736C35.5368 26.5639 35.4992 26.9644 35.4992 27.3739C35.4992 31.2238 38.6313 34.3559 42.4813 34.3559H60.67C62.7648 36.2299 65.4406 37.2546 68.2734 37.2546H78.8843C81.7523 37.2546 84.5312 36.4158 86.921 34.8287L87.624 34.3616H102.478C103.319 34.3616 104 33.6802 104 32.8391C104 31.9981 103.318 31.3168 102.477 31.3168Z" fill="white"/>
<path d="M31.6944 13.2159C31.9303 13.2159 32.1696 13.1609 32.3933 13.045L37.8346 10.2269C39.7665 9.22672 41.937 8.6981 44.112 8.6981H72.5099C75.7778 8.6981 78.941 9.87247 81.4172 12.0048L82.3133 12.7762C82.5893 13.0141 82.942 13.1449 83.3066 13.1449H102.478C103.319 13.1449 104.001 12.4634 104.001 11.6223C104.001 10.7813 103.319 10.0998 102.478 10.0998H83.8715L83.404 9.69748C80.3756 7.08931 76.5066 5.65308 72.5099 5.65308H44.112C41.4519 5.65308 38.7972 6.29984 36.4345 7.52292L30.993 10.341C30.2464 10.7277 29.9547 11.6465 30.3412 12.3931C30.612 12.9159 31.1436 13.2159 31.6944 13.2159Z" fill="white"/>
<path d="M51.9292 63.9432C51.9326 63.9432 51.9361 63.943 51.9397 63.943C52.7962 63.94 53.6184 63.5752 54.1951 62.9422L62.6351 53.6819C65.323 50.7323 65.2185 46.2114 62.3913 43.3842L62.3771 43.37C59.4756 40.4691 54.7582 40.4639 51.8504 43.355L51.8464 43.3507C48.9396 40.4563 44.2155 40.4612 41.315 43.3615C38.4734 46.2033 38.3841 50.7412 41.1122 53.6923L49.6773 62.9583C50.256 63.5845 51.0762 63.9432 51.9292 63.9432ZM43.4683 45.5149C44.3272 44.656 45.4567 44.2261 46.586 44.2261C47.7124 44.2261 48.8389 44.6534 49.6972 45.5084L50.7777 46.5848C51.3727 47.1767 52.3348 47.1761 52.929 46.5825L53.9882 45.5233C55.7072 43.804 58.5046 43.8038 60.2291 45.5285L60.2433 45.5427C61.9126 47.2118 61.9743 49.886 60.3844 51.6306L51.9444 60.8909H51.9133L43.3483 51.6249C41.7346 49.8799 41.7874 47.1956 43.4683 45.5149Z" fill="white"/>
<path d="M75.0057 66.3897C74.3193 65.9037 73.3689 66.0663 72.8835 66.7526C72.1294 67.8178 71.2928 68.8283 70.3969 69.7561C69.8129 70.361 69.8298 71.3251 70.4347 71.9089C70.7303 72.1941 71.1115 72.336 71.4921 72.336C71.8908 72.336 72.2889 72.1803 72.5875 71.8711C73.59 70.8328 74.5258 69.7025 75.3687 68.5117C75.8546 67.8255 75.692 66.8755 75.0057 66.3897Z" fill="white"/>
<path d="M76.6573 63.3384C76.8404 63.4105 77.0292 63.4446 77.2149 63.4446C77.8221 63.4446 78.3958 63.0788 78.6319 62.4797C79.9475 59.1398 80.6148 55.6138 80.6148 52C80.6148 48.2861 79.9114 44.6692 78.5243 41.2496C78.2082 40.4705 77.3201 40.0952 76.541 40.411C75.7619 40.7273 75.3863 41.6152 75.7024 42.3944C76.9415 45.4485 77.5696 48.6805 77.5696 52C77.5696 55.2302 76.9736 58.3805 75.7984 61.3636C75.4906 62.1462 75.8751 63.0301 76.6573 63.3384Z" fill="white"/>
<path d="M33.565 32.0909C32.9598 31.5069 31.9962 31.524 31.4123 32.1289C26.236 37.4906 23.3853 44.5477 23.3853 52.0001C23.3853 55.7141 24.0887 59.3309 25.4758 62.7505C25.7159 63.3422 26.2855 63.7011 26.8872 63.7011C27.0777 63.7011 27.2717 63.665 27.4589 63.5891C28.238 63.2728 28.6136 62.3849 28.2975 61.6058C27.0584 58.5516 26.4303 55.3196 26.4303 52.0001C26.4303 45.3409 28.9775 39.035 33.6029 34.2438C34.1868 33.6388 34.1699 32.675 33.565 32.0909Z" fill="white"/>
<path d="M13.4721 42.1099C12.6507 41.9343 11.8403 42.4559 11.6631 43.2778C11.0486 46.1322 10.7368 49.0668 10.7368 52.0002C10.7368 54.691 10.9997 57.3889 11.5184 60.0191C11.6615 60.7447 12.2979 61.2473 13.0106 61.2473C13.1081 61.2473 13.2073 61.238 13.3068 61.2183C14.1316 61.0555 14.6686 60.255 14.5059 59.4298C14.0256 56.9934 13.782 54.4936 13.782 52C13.782 49.2816 14.0707 46.5628 14.6401 43.9187C14.8169 43.0967 14.294 42.287 13.4721 42.1099Z" fill="white"/>
<path d="M90.6923 61.2181C90.7917 61.2378 90.891 61.2471 90.9887 61.2471C91.7012 61.2471 92.3376 60.7445 92.4809 60.0191C93 57.3894 93.2633 54.6914 93.2633 52C93.2633 49.0672 92.9513 46.1324 92.336 43.2774C92.1586 42.4552 91.3476 41.9341 90.5268 42.1097C89.7047 42.2869 89.1821 43.0969 89.3592 43.9189C89.9294 46.5634 90.2183 49.2824 90.2183 52C90.2183 54.4936 89.9745 56.9934 89.4936 59.4296C89.3305 60.2544 89.8671 61.0553 90.6923 61.2181Z" fill="white"/>
</g>
<defs>
<clipPath id="clip0_446_403">
<rect width="104" height="104" fill="white"/>
</clipPath>
</defs>
</svg>
