<svg width="110" height="110" viewBox="0 0 110 110" fill="none" xmlns="http://www.w3.org/2000/svg">
<path d="M27.1667 89.1669C26 97.3335 24.3333 105.5 22.8333 105.334C20.6667 105.167 19.8333 97.3335 19.5 87.6669" stroke="white" stroke-width="2.5" stroke-miterlimit="10" stroke-linecap="round" stroke-linejoin="round"/>
<path d="M35.1665 105.667C34.8332 106.334 34.4998 106.667 33.9998 106.667C32.1665 106.667 30.8332 98.0002 30.1665 89.5002" stroke="white" stroke-width="2.5" stroke-miterlimit="10" stroke-linecap="round" stroke-linejoin="round"/>
<path d="M57.1665 42.3337V43.6671V44.3337V45.1671V50.5004" stroke="white" stroke-width="2.5" stroke-miterlimit="10" stroke-linecap="round" stroke-linejoin="round"/>
<path d="M59.8332 104.167C60.3332 105.667 60.9998 106.667 61.6665 106.667C65.9998 106.667 67.4998 71.1668 67.6665 65.8334C67.6665 65.3334 67.6665 65.1668 67.6665 65.1668C67.6665 65.1668 67.6665 65.3334 67.6665 65.6668C68.1665 70.6668 71.8332 105.333 75.4998 105C82.4998 104.333 78.8332 35.1668 78.8332 34.5001C78.8332 34.5001 103.667 8.16678 99.6665 3.83345C95.9998 -0.333221 77.9998 21.8334 65.8332 26.3334C62.9998 27.3334 58.9998 27.8334 54.6665 27.8334" stroke="white" stroke-width="2.5" stroke-miterlimit="10" stroke-linecap="round" stroke-linejoin="round"/>
<path d="M55.4997 37.5C55.1663 37.5 54.833 37.5 54.333 37.5H55.4997Z" stroke="white" stroke-width="2.5" stroke-miterlimit="10" stroke-linecap="round" stroke-linejoin="round"/>
<path d="M63.6668 20.0002C68.2692 20.0002 72.0002 16.2692 72.0002 11.6668C72.0002 7.06446 68.2692 3.3335 63.6668 3.3335C59.0645 3.3335 55.3335 7.06446 55.3335 11.6668C55.3335 16.2692 59.0645 20.0002 63.6668 20.0002Z" stroke="white" stroke-width="2.5" stroke-miterlimit="10"/>
<path d="M33.3336 84.6668C22.5003 84.1668 9.16694 80.3334 9.83361 75.3334C9.83361 75.3334 22.6669 46.6668 22.5003 36.5001C22.3336 29.0001 12.5003 8.0001 18.1669 6.83343C23.6669 5.83343 28.3336 30.1668 35.0003 34.6668C38.3336 37.0001 46.3336 37.1668 53.5003 37.3334H54.1669H55.3336H57.1669" stroke="white" stroke-width="2.5" stroke-miterlimit="10" stroke-linecap="round" stroke-linejoin="round"/>
<path d="M41.8339 62.0002C35.0006 59.0002 25.3339 50.5002 22.6672 54.8335C19.3339 59.8335 39.3339 72.5002 39.3339 72.5002" stroke="white" stroke-width="2.5" stroke-miterlimit="10" stroke-linecap="round" stroke-linejoin="round"/>
<path d="M67.8334 65.6668C67.8334 65.3334 67.8334 65.1667 67.8334 65.1667C67.8334 65.1667 67.6667 65.3334 67.8334 65.6668Z" stroke="white" stroke-width="2.5" stroke-miterlimit="10" stroke-linecap="round" stroke-linejoin="round"/>
<path d="M47.3336 88.0002C47.3336 88.0002 49.0002 106.667 52.6669 106.667C58.1669 106.667 57.0002 68.8335 57.0002 68.8335C57.0002 68.8335 72.5002 56.1669 69.1669 52.1669C65.1669 47.1669 52.3336 62.6669 45.8336 63.0002C39.6669 63.3335 26.0002 49.5002 22.5002 54.8335C19.1669 59.8335 39.1669 72.5002 39.1669 72.5002C39.1669 72.5002 35.5002 106.667 42.6669 106.667C47.3336 106.667 47.3336 88.0002 47.3336 88.0002Z" stroke="white" stroke-width="2.5" stroke-miterlimit="10" stroke-linecap="round" stroke-linejoin="round"/>
<path d="M45.9997 57.5001C49.4054 57.5001 52.1663 54.7392 52.1663 51.3334C52.1663 47.9277 49.4054 45.1667 45.9997 45.1667C42.5939 45.1667 39.833 47.9277 39.833 51.3334C39.833 54.7392 42.5939 57.5001 45.9997 57.5001Z" stroke="white" stroke-width="2.5" stroke-miterlimit="10" stroke-linecap="round" stroke-linejoin="round"/>
<path d="M42.8333 30.6667C47.4357 30.6667 51.1667 26.9357 51.1667 22.3333C51.1667 17.731 47.4357 14 42.8333 14C38.231 14 34.5 17.731 34.5 22.3333C34.5 26.9357 38.231 30.6667 42.8333 30.6667Z" stroke="white" stroke-width="2.5" stroke-miterlimit="10"/>
</svg>
