<svg width="512" height="512" viewBox="0 0 512 512" fill="none" xmlns="http://www.w3.org/2000/svg">
<path d="M407.945 176.922C408.147 175.181 407.772 173.422 406.877 171.915C405.982 170.408 404.617 169.237 402.992 168.582L345.328 145.324C323.443 136.587 303.285 124.028 285.796 108.235L261.375 86.0745C259.903 84.7396 257.987 84.0002 256 84.0002C254.013 84.0002 252.097 84.7396 250.625 86.0745L226.203 108.235C208.714 124.028 188.557 136.587 166.672 145.324L109.008 168.582C107.382 169.237 106.017 170.408 105.122 171.915C104.227 173.422 103.852 175.181 104.054 176.922L109.461 223.516C119.39 309.078 170.242 385.469 248.969 433.098L251.851 434.844C253.103 435.6 254.537 436 256 436C257.462 436 258.897 435.6 260.148 434.844L263.023 433.098C341.758 385.469 392.609 309.078 402.539 223.516L407.945 176.922ZM386.648 221.672C377.344 301.828 329.757 373.543 256 418.645C182.242 373.547 134.656 301.832 125.352 221.672L120.648 181.137L172.656 160.16C196.294 150.718 218.065 137.149 236.952 120.086L256 102.801L275.046 120.086C293.934 137.149 315.706 150.718 339.344 160.16L391.352 181.137L386.648 221.672Z" fill="white"/>
<path d="M256 504C296.33 503.994 336.054 494.175 371.742 475.391L364.258 461.242C319.067 485.062 267.28 493.305 216.927 484.691C166.575 476.078 120.471 451.091 85.768 413.604C51.0645 376.118 29.7003 328.228 24.989 277.362C20.2778 226.495 32.4828 175.496 59.711 132.273L46.1797 123.727C22.5388 161.25 9.39062 204.426 8.10437 248.757C6.81811 293.088 17.4409 336.953 38.8663 375.784C60.2918 414.615 91.7363 446.992 129.925 469.542C168.114 492.092 211.65 503.991 256 504Z" fill="white"/>
<path d="M256 24C297.487 24.0076 338.214 35.1381 373.938 56.2322C409.663 77.3262 439.079 107.612 459.122 143.937C479.166 180.261 489.104 221.295 487.903 262.765C486.701 304.235 474.403 344.624 452.289 379.727L465.82 388.273C494.921 342.068 507.963 287.552 502.924 233.179C497.885 178.806 475.046 127.615 437.95 87.5442C400.853 47.4736 351.572 20.7626 297.748 11.5534C243.925 2.34419 188.566 11.1515 140.258 36.6094L147.742 50.7579C181.122 33.1867 218.277 24.0031 256 24Z" fill="white"/>
<path d="M312 176H200C193.637 176.007 187.536 178.538 183.037 183.037C178.538 187.536 176.007 193.637 176 200V216C176.018 221.924 178.244 227.629 182.242 232C178.244 236.371 176.018 242.076 176 248V264C176.018 269.924 178.244 275.629 182.242 280C178.244 284.371 176.018 290.076 176 296V312C176.007 318.363 178.538 324.464 183.037 328.963C187.536 333.462 193.637 335.993 200 336H312C318.363 335.993 324.464 333.462 328.963 328.963C333.462 324.464 335.993 318.363 336 312V296C335.982 290.076 333.756 284.371 329.758 280C333.756 275.629 335.982 269.924 336 264V248C335.982 242.076 333.756 236.371 329.758 232C333.756 227.629 335.982 221.924 336 216V200C335.993 193.637 333.462 187.536 328.963 183.037C324.464 178.538 318.363 176.007 312 176ZM320 312C319.998 314.121 319.154 316.155 317.655 317.655C316.155 319.154 314.121 319.998 312 320H200C197.879 319.998 195.845 319.154 194.345 317.655C192.846 316.155 192.002 314.121 192 312V296C192.002 293.879 192.846 291.845 194.345 290.345C195.845 288.846 197.879 288.002 200 288H312C314.121 288.002 316.155 288.846 317.655 290.345C319.154 291.845 319.998 293.879 320 296V312ZM320 264C319.998 266.121 319.154 268.155 317.655 269.655C316.155 271.154 314.121 271.998 312 272H200C197.879 271.998 195.845 271.154 194.345 269.655C192.846 268.155 192.002 266.121 192 264V248C192.002 245.879 192.846 243.845 194.345 242.345C195.845 240.846 197.879 240.002 200 240H312C314.121 240.002 316.155 240.846 317.655 242.345C319.154 243.845 319.998 245.879 320 248V264ZM320 216C319.998 218.121 319.154 220.155 317.655 221.655C316.155 223.154 314.121 223.998 312 224H200C197.879 223.998 195.845 223.154 194.345 221.655C192.846 220.155 192.002 218.121 192 216V200C192.002 197.879 192.846 195.845 194.345 194.345C195.845 192.846 197.879 192.002 200 192H312C314.121 192.002 316.155 192.846 317.655 194.345C319.154 195.845 319.998 197.879 320 200V216Z" fill="white"/>
<path d="M200 200H216V216H200V200Z" fill="white"/>
<path d="M248 200H312V216H248V200Z" fill="white"/>
<path d="M200 248H216V264H200V248Z" fill="white"/>
<path d="M248 248H312V264H248V248Z" fill="white"/>
<path d="M200 296H216V312H200V296Z" fill="white"/>
<path d="M248 296H312V312H248V296Z" fill="white"/>
<path d="M392 464H440C441.051 464 442.091 463.794 443.062 463.392C444.033 462.99 444.915 462.4 445.657 461.657C446.4 460.915 446.99 460.033 447.392 459.062C447.794 458.091 448 457.051 448 456V408C448 406.949 447.794 405.909 447.392 404.938C446.99 403.967 446.4 403.085 445.657 402.343C444.915 401.6 444.033 401.01 443.062 400.608C442.091 400.206 441.051 400 440 400H392C390.949 400 389.909 400.206 388.938 400.608C387.967 401.01 387.085 401.6 386.343 402.343C385.6 403.085 385.01 403.967 384.608 404.938C384.206 405.909 384 406.949 384 408V456C384 457.051 384.206 458.091 384.608 459.062C385.01 460.033 385.6 460.915 386.343 461.657C387.085 462.4 387.967 462.99 388.938 463.392C389.909 463.794 390.949 464 392 464ZM400 416H432V448H400V416Z" fill="white"/>
<path d="M72 112H120C121.051 112 122.091 111.794 123.062 111.392C124.033 110.99 124.915 110.4 125.657 109.657C126.4 108.915 126.99 108.033 127.392 107.062C127.794 106.091 128 105.051 128 104V56C128 54.9493 127.794 53.9089 127.392 52.9382C126.99 51.9675 126.4 51.0855 125.657 50.3425C124.915 49.5996 124.033 49.0103 123.062 48.6084C122.091 48.2065 121.051 47.9997 120 48H72C70.9493 47.9997 69.9089 48.2065 68.9382 48.6084C67.9675 49.0103 67.0855 49.5996 66.3425 50.3425C65.5996 51.0855 65.0103 51.9675 64.6084 52.9382C64.2065 53.9089 63.9997 54.9493 64 56V104C63.9997 105.051 64.2065 106.091 64.6084 107.062C65.0103 108.033 65.5996 108.915 66.3425 109.657C67.0855 110.4 67.9675 110.99 68.9382 111.392C69.9089 111.794 70.9493 112 72 112ZM80 64H112V96H80V64Z" fill="white"/>
</svg>
