<svg width="115" height="115" viewBox="0 0 115 115" fill="none" xmlns="http://www.w3.org/2000/svg">
<path d="M57.5001 3.59326C53.5097 3.59326 50.309 6.8254 50.309 10.7735C50.309 14.7218 53.5097 17.9679 57.5001 17.9679C61.4903 17.9679 64.6911 14.7218 64.6911 10.7735C64.6911 6.8254 61.4903 3.59326 57.5001 3.59326ZM57.5001 7.1869C59.4639 7.1869 61.0973 8.76758 61.0973 10.7735C61.0973 12.7796 59.471 14.3742 57.5001 14.3742C55.529 14.3742 53.9028 12.7796 53.9028 10.7735C53.9028 8.76758 55.5361 7.1869 57.5001 7.1869ZM45.4167 14.3741L21.3555 25.4745C19.1876 26.4272 20.6422 29.7522 22.861 28.7383L46.9258 17.6379C48.6033 16.8891 48.1678 14.3379 46.2907 14.2022C45.989 14.1819 45.6895 14.243 45.4167 14.3741ZM92.1392 28.7384C94.358 29.7523 95.8126 26.4273 93.6447 25.4746L69.5835 14.3742C69.3112 14.2438 69.011 14.1854 68.7095 14.2024C66.8321 14.3381 66.3966 16.8892 68.0743 17.638L92.1392 28.7384ZM52.7902 24.0954C51.4482 24.7454 50.9518 25.7482 50.6564 26.4573C50.361 27.1664 50.2449 27.5672 49.8738 28.0225C49.5023 28.4775 48.8251 29.0594 47.2592 29.721C45.6875 30.3852 44.7726 30.479 44.1673 30.437C43.5622 30.3962 43.1996 30.2129 42.5108 29.946C41.8221 29.6784 40.7488 29.3354 39.4189 29.7742C38.2178 30.1701 37.0339 31.1241 35.7199 32.4554C34.2945 33.8993 33.4337 35.0912 33.0912 36.1824C32.6756 37.5074 33.0505 38.5746 33.3296 39.2566C33.6101 39.9387 33.7969 40.3046 33.8492 40.9026C33.9035 41.5009 33.822 42.4196 33.1856 43.9944C32.5466 45.5692 31.969 46.2803 31.5151 46.6721C31.0614 47.0639 30.6724 47.1848 30.0025 47.4688C29.1312 47.8376 28.2592 48.3531 27.6792 49.4726C27.1522 50.4904 26.9365 51.9156 26.9528 53.9015C26.9391 55.726 27.1008 57.2142 27.6792 58.3305C28.2592 59.45 29.1358 59.9672 30.0025 60.3344C30.6722 60.6182 31.0401 60.7323 31.4941 61.124C31.9477 61.5159 32.5463 62.2339 33.1856 63.8087C33.8132 65.3532 33.8945 66.2654 33.8492 66.8619C33.8016 67.4589 33.6278 67.8193 33.3575 68.4658C33.0315 69.2447 32.7279 70.2186 33.0383 71.4102C33.2665 72.286 33.7296 73.0882 34.4772 73.9966C33.254 76.0035 32.2926 78.138 31.6239 80.4471C30.3264 78.5297 28.621 77.0146 26.5983 75.9058C27.9417 74.3329 28.7461 72.2998 28.7461 70.0766C28.7461 65.136 24.755 61.0889 19.7653 61.0889C14.7755 61.0889 10.7704 65.136 10.7704 70.0766C10.7704 72.3023 11.5795 74.3322 12.9287 75.9058C8.41336 78.3395 5.39033 83.1064 5.39033 88.5994V90.7086C5.39033 95.2094 9.0203 98.826 13.4728 98.826H26.0473C27.7098 98.826 29.2577 98.3288 30.5466 97.4573V104.231C30.5466 106.388 31.2244 108.501 32.8699 109.891C34.5151 111.282 36.9216 111.715 39.6748 111.179C39.7156 111.172 39.755 111.159 39.7944 111.152L57.4894 106.39L75.2546 111.166C78.0675 111.716 80.4064 111.34 82.1262 109.892C83.7711 108.507 84.4531 106.402 84.4531 104.256V97.465C85.7418 98.3363 87.2899 98.8266 88.9522 98.8266H101.527C105.979 98.8266 109.609 95.2101 109.609 90.7093V88.6001C109.609 83.1071 106.586 78.3402 102.071 75.9065C103.42 74.3329 104.229 72.303 104.229 70.0773C104.229 65.1367 100.224 61.0896 95.2343 61.0896C90.2445 61.0896 86.2534 65.1367 86.2534 70.0773C86.2534 72.3004 87.0578 74.3336 88.4013 75.9065C86.3926 76.9872 84.6661 78.5374 83.3686 80.4547C82.6997 78.1459 81.7424 75.99 80.5188 73.9832C81.2672 73.0741 81.7331 72.2873 81.9612 71.4109C82.2716 70.2192 81.9677 69.2454 81.6421 68.4664C81.3724 67.8199 81.1965 67.4592 81.1504 66.8626C81.1028 66.2663 81.1843 65.3539 81.8139 63.8094C82.4529 62.2346 83.0516 61.5165 83.5055 61.1247C83.9591 60.7328 84.3271 60.6187 84.997 60.335C85.8638 59.9676 86.7404 59.4507 87.3204 58.3312C87.899 57.2149 88.0618 55.7267 88.0468 53.9022C88.0604 51.9163 87.8478 50.4911 87.3204 49.4733C86.7404 48.3538 85.8684 47.8385 84.997 47.4695C84.3274 47.1856 83.9384 47.0647 83.4845 46.6728C83.0308 46.2809 82.4531 45.5699 81.8139 43.9951C81.1749 42.4202 81.0985 41.5012 81.1504 40.9032C81.2048 40.3056 81.3895 39.9394 81.67 39.2573C81.9504 38.5752 82.3247 37.5081 81.9083 36.1831C81.5661 35.0918 80.7051 33.9 79.2798 32.456C77.9657 31.1248 76.7819 30.1711 75.5807 29.7748C74.2509 29.3361 73.1776 29.6791 72.4888 29.9466C71.8 30.2142 71.4375 30.3956 70.8323 30.4377C70.2272 30.4784 69.3121 30.3833 67.7404 29.7217C66.1745 29.0602 65.4971 28.4785 65.1258 28.0231C64.7543 27.5681 64.6388 27.1671 64.3432 26.4579C64.0478 25.7488 63.5514 24.7463 62.2094 24.0961C61.0451 23.5317 59.649 23.3556 57.4998 23.3552C55.3505 23.3549 53.9545 23.5315 52.7902 24.0954ZM10.7812 25.1518C6.79084 25.1518 3.59375 28.3839 3.59375 32.3321C3.59375 36.2802 6.79084 39.5264 10.7812 39.5264C14.7716 39.5264 17.9722 36.2802 17.9722 32.3321C17.9722 28.3839 14.7716 25.1518 10.7812 25.1518ZM104.219 25.1518C100.228 25.1518 97.0277 28.3839 97.0277 32.3321C97.0277 36.2802 100.228 39.5264 104.219 39.5264C108.209 39.5264 111.406 36.2802 111.406 32.3321C111.406 28.3839 108.209 25.1518 104.219 25.1518ZM60.6445 27.3208C60.8917 27.4403 60.9162 27.6332 61.0303 27.8505C61.2293 28.3279 61.5355 29.2994 62.3428 30.2895C63.1501 31.2796 64.3919 32.2172 66.3332 33.0375C68.2688 33.8553 69.8092 34.119 71.0816 34.0306C72.354 33.9423 73.2953 33.4968 73.8015 33.3006C74.1023 33.1838 74.2538 33.1166 74.4507 33.1811C74.7088 33.2667 75.3642 33.5994 76.7213 34.9744C78.0157 36.2857 78.3929 37.0017 78.4726 37.2556C78.5269 37.4681 78.4386 37.6562 78.3395 37.8905C78.1697 38.3028 77.6814 39.3128 77.5709 40.5823C77.4602 41.8519 77.6945 43.4016 78.4834 45.3446C79.272 47.2877 80.1702 48.5568 81.1366 49.391C82.103 50.2252 83.0887 50.5706 83.5932 50.7843C83.8784 50.9052 84.0129 50.916 84.1229 51.1279C84.2329 51.3405 84.4829 52.0437 84.4666 53.9004C84.4802 55.6479 84.2703 56.388 84.1229 56.6729C84.0129 56.8854 83.8132 56.9235 83.5932 57.0165C83.0886 57.2304 82.103 57.5754 81.1366 58.4098C80.1702 59.2439 79.272 60.5132 78.4834 62.4562C77.7099 64.3617 77.4749 65.8806 77.5709 67.1378C77.6667 68.3949 78.0776 69.2502 78.3254 69.8435C78.4307 70.1403 78.5353 70.3067 78.4837 70.507C78.4701 70.5614 78.392 70.7529 78.322 70.886C75.6585 67.66 72.2347 65.0494 68.3445 63.3477C70.5546 60.8171 71.8785 57.5166 71.8785 53.9038C71.8785 45.986 65.4179 39.5291 57.5001 39.5291C49.5822 39.5291 43.1216 45.986 43.1216 53.9038C43.1216 57.5174 44.4445 60.8169 46.6557 63.3477C42.7652 65.0486 39.341 67.6603 36.6782 70.886C36.6089 70.7529 36.5315 70.5634 36.5165 70.507C36.4622 70.3067 36.5709 70.1403 36.6748 69.8435C36.9226 69.25 37.3335 68.3949 37.4293 67.1377C37.525 65.8806 37.2901 64.3617 36.5168 62.4562C35.7282 60.5132 34.83 59.2439 33.8636 58.4098C32.8972 57.5756 31.9114 57.2302 31.407 57.0165C31.1863 56.9235 30.9873 56.8848 30.8773 56.6729C30.7299 56.3883 30.5187 55.6479 30.5336 53.9004C30.52 52.0437 30.7672 51.3405 30.8773 51.1279C30.9873 50.9154 31.1218 50.9052 31.407 50.7843C31.9116 50.5704 32.8972 50.2254 33.8636 49.391C34.83 48.5568 35.7282 47.2877 36.5168 45.3446C37.3055 43.4016 37.5401 41.8519 37.4293 40.5823C37.3186 39.3128 36.8303 38.3026 36.6607 37.8905C36.5643 37.6556 36.4705 37.4674 36.5276 37.2556C36.607 37.0016 36.9846 36.2857 38.2789 34.9744C39.636 33.5996 40.2914 33.2663 40.5496 33.1811C40.7465 33.1132 40.898 33.1836 41.1988 33.3006C41.7048 33.4969 42.6463 33.9424 43.9187 34.0306C45.191 34.1189 46.7314 33.8554 48.667 33.0375C50.6083 32.2172 51.8501 31.2796 52.6574 30.2895C53.4646 29.2994 53.7711 28.3276 53.9699 27.8505C54.0847 27.6332 54.1085 27.4403 54.3563 27.3208C54.6457 27.1802 55.5922 26.9486 57.5004 26.9486C59.4086 26.9486 60.3549 27.1802 60.6445 27.3208ZM10.7812 28.7455C12.7451 28.7455 14.3785 30.3261 14.3785 32.3321C14.3785 34.3381 12.7522 35.9328 10.7812 35.9328C8.81024 35.9328 7.18745 34.3381 7.18745 32.3321C7.18745 30.3261 8.81731 28.7455 10.7812 28.7455ZM104.219 28.7455C106.183 28.7455 107.812 30.3261 107.812 32.3321C107.812 34.3381 106.19 35.9328 104.219 35.9328C102.248 35.9328 100.621 34.3381 100.621 32.3321C100.621 30.3261 102.255 28.7455 104.219 28.7455ZM14.017 42.4533C12.7808 42.3759 11.8384 43.5423 12.1745 44.7344L15.3331 56.6982C15.8845 59.1103 19.5127 58.1575 18.8075 55.7857L15.6489 43.822C15.4628 43.0579 14.8018 42.5033 14.017 42.4533ZM100.983 42.4533C100.198 42.5008 99.5369 43.0577 99.351 43.822L96.1924 55.7857C95.4873 58.1575 99.1156 59.1103 99.6669 56.6982L102.825 44.7344C103.162 43.5423 102.219 42.3755 100.983 42.4533ZM57.5 43.1236C63.4194 43.1236 68.2847 47.9289 68.2847 53.9047C68.2847 59.8804 63.4404 64.6892 57.5 64.6892C51.5595 64.6892 46.7152 59.8804 46.7152 53.9047C46.7152 47.9289 51.5735 43.1236 57.5 43.1236ZM19.7656 64.6822C22.7219 64.6822 25.1492 67.0778 25.1492 70.0762C25.1492 73.0746 22.729 75.4632 19.7656 75.4632C16.8022 75.4632 14.3679 73.0746 14.3679 70.0762C14.3679 67.0778 16.8093 64.6822 19.7656 64.6822ZM95.2344 64.6822C98.1906 64.6822 100.632 67.0778 100.632 70.0762C100.632 73.0746 98.1977 75.4632 95.2344 75.4632C92.271 75.4632 89.8507 73.0746 89.8507 70.0762C89.8507 67.0778 92.278 64.6822 95.2344 64.6822ZM44.9254 94.2492V88.027C44.871 85.6838 41.3836 85.6838 41.3316 88.027V95.1722L40.8827 95.2877C38.5566 95.8799 39.4445 99.3683 41.7706 98.776L68.9343 91.7993C71.0064 91.2669 73.0234 92.4662 73.5494 94.4384C74.0838 96.4335 72.9273 98.507 70.8856 99.0568L38.984 107.651C38.9772 107.653 38.9772 107.65 38.9704 107.651C36.9298 108.045 35.8325 107.685 35.1906 107.146C34.5461 106.602 34.1448 105.661 34.1448 104.23V88.0478C34.1448 77.8035 40.6774 69.1595 49.72 65.9979C51.9574 67.4367 54.6401 68.2826 57.5006 68.2826C60.3591 68.2826 63.0343 67.4384 65.2707 66.0015C74.3729 69.1836 80.86 77.8032 80.86 88.0478V104.254C80.86 105.669 80.4552 106.604 79.8106 107.146C79.1689 107.687 78.0715 108.045 76.0309 107.651L64.4143 104.525L71.8124 102.531C75.7168 101.48 78.072 97.4727 77.0135 93.5225C76.4893 91.5649 75.249 90.0354 73.6689 89.1006V88.0267C73.6146 85.6834 70.1272 85.7045 70.0752 88.0878C69.5332 88.047 68.7166 88.1353 68.0324 88.3109L44.9254 94.2492ZM64.691 77.2635C62.3477 77.3179 62.3477 80.8052 64.691 80.8572H70.0746C72.4179 80.8028 72.4179 77.3156 70.0746 77.2635H64.691ZM16.2842 78.3514C17.2852 78.7881 18.5466 79.0569 19.7656 79.0569C20.9846 79.0569 22.198 78.7879 23.2541 78.3514C27.521 79.7848 30.5469 83.8624 30.5469 88.599V90.7082C30.5469 93.2108 28.5634 95.2319 26.0476 95.2319H13.473C10.9573 95.2318 8.98437 93.1864 8.98437 90.7082V88.599C8.98437 83.8553 12.0143 79.7869 16.2842 78.3514ZM91.7459 78.3514C92.7598 78.7949 94.0155 79.0604 95.2344 79.0604C96.4533 79.0604 97.6796 78.8091 98.7158 78.3514C102.986 79.7869 106.016 83.8553 106.016 88.599V90.7082C106.016 93.1864 104.043 95.2318 101.527 95.2319H88.9523C86.4366 95.2319 84.4531 93.1864 84.4531 90.7082V88.599C84.4531 83.8624 87.4789 79.7848 91.7459 78.3514Z" fill="white"/>
</svg>
