<svg width="102" height="102" viewBox="0 0 102 102" fill="none" xmlns="http://www.w3.org/2000/svg">
<mask id="mask0_446_519" style="mask-type:alpha" maskUnits="userSpaceOnUse" x="0" y="0" width="102" height="102">
<circle cx="51" cy="51" r="51" fill="#D9D9D9"/>
</mask>
<g mask="url(#mask0_446_519)">
<g filter="url(#filter0_di_446_519)">
<rect x="-44" y="-36" width="268" height="175" fill="url(#paint0_linear_446_519)"/>
</g>
</g>
<g clip-path="url(#clip0_446_519)">
<path d="M51.6356 61.2658C58.0282 61.2658 63.2376 56.1062 63.32 49.7327C65.9467 48.8567 67.8462 46.377 67.8462 43.4607C67.8462 42.4224 67.612 41.429 67.1511 40.5103C66.3797 38.9617 64.8383 36.7874 63.4782 34.8688C62.9143 34.0734 62.3817 33.322 61.9621 32.6967C61.799 32.4533 61.5252 32.3074 61.2323 32.3074C60.9393 32.3074 60.6657 32.4533 60.5024 32.6967C60.0829 33.3219 59.5508 34.073 58.9873 34.8681C58.4926 35.5662 57.9744 36.2979 57.4774 37.0213C56.7304 35.9465 55.9705 34.8745 55.2296 33.8293C54.1655 32.3282 53.1604 30.9103 52.3658 29.7249C52.2027 29.4814 51.9288 29.3353 51.6357 29.3353C51.3427 29.3353 51.0689 29.4814 50.9057 29.7249C50.1047 30.9195 49.0916 32.3489 48.019 33.8623C45.4792 37.4459 42.6006 41.5077 41.1753 44.3637C40.3617 45.9936 39.9492 47.7484 39.9492 49.5794C39.9492 56.0234 45.1917 61.2658 51.6356 61.2658ZM60.4215 35.8845C60.7025 35.4879 60.9757 35.1024 61.2324 34.7361C61.4893 35.1027 61.7629 35.4886 62.0442 35.8855C63.3673 37.7519 64.8669 39.8673 65.5788 41.2962C65.9169 41.9703 66.0884 42.6985 66.0884 43.4607C66.0884 46.137 63.91 48.3144 61.2323 48.3144C58.556 48.3144 56.3786 46.1371 56.3786 43.4607C56.3786 42.6996 56.5496 41.9707 56.8864 41.2948C57.5992 39.8673 59.0987 37.7514 60.4215 35.8845ZM42.7481 45.1487C44.113 42.4137 46.9501 38.4106 49.4532 34.8787C50.2298 33.7829 50.9755 32.7308 51.6356 31.7749C52.2893 32.7213 53.0271 33.762 53.7954 34.8458C54.6656 36.0734 55.5604 37.3378 56.4283 38.5959C55.9849 39.289 55.5972 39.9418 55.3135 40.51C54.8539 41.4322 54.6208 42.425 54.6208 43.4606C54.6208 47.1062 57.5867 50.0722 61.2323 50.0722C61.3396 50.0722 61.4461 50.0691 61.5522 50.0641C61.2986 55.3145 56.9478 59.508 51.6356 59.508C46.161 59.508 41.707 55.0541 41.707 49.5794C41.707 48.0233 42.0573 46.5326 42.7481 45.1487Z" fill="white"/>
<path d="M34.3613 61.5728C34.3613 65.2443 42.9825 67.1653 51.4987 67.1653C60.0149 67.1653 68.6361 65.2444 68.6361 61.5728C68.6361 59.9151 66.8763 58.5019 63.5468 57.486C63.0821 57.3444 62.5913 57.6057 62.4497 58.0701C62.308 58.5344 62.5695 59.0256 63.0338 59.1672C65.6897 59.9777 66.8784 60.9594 66.8784 61.5728C66.8784 62.216 65.6021 63.2351 62.7504 64.0617C59.7568 64.9296 55.7609 65.4074 51.4988 65.4074C47.2366 65.4074 43.2407 64.9295 40.2472 64.0617C37.3956 63.2351 36.1191 62.216 36.1191 61.5728C36.1191 60.9592 37.3087 59.9775 39.966 59.1673C40.4304 59.0258 40.692 58.5347 40.5504 58.0703C40.4088 57.606 39.9175 57.3444 39.4534 57.486C36.1222 58.5014 34.3613 59.9147 34.3613 61.5728Z" fill="white"/>
<path d="M66.2595 53.8067C65.8062 53.6324 65.2979 53.8581 65.1233 54.311C64.9489 54.764 65.1746 55.2726 65.6275 55.4471C69.8313 57.0663 72.2422 59.2799 72.2422 61.5205C72.2422 63.5912 70.1279 65.6846 66.4417 67.2643C62.4645 68.9684 57.1577 69.9069 51.4988 69.9069C45.8399 69.9069 40.5336 68.9684 36.5572 67.2643C32.8716 65.6847 30.7578 63.5912 30.7578 61.5205C30.7578 59.279 33.1687 57.0655 37.3722 55.4471C37.8252 55.2728 38.0511 54.7641 37.8767 54.3111C37.7022 53.8582 37.1936 53.632 36.7407 53.8067C31.749 55.7283 29 58.4678 29 61.5205C29 64.3691 31.4379 66.9828 35.8647 68.8799C40.055 70.6758 45.6072 71.6647 51.4987 71.6647C57.3903 71.6647 62.9429 70.6758 67.1339 68.8799C71.5616 66.9827 73.9999 64.3691 73.9999 61.5205C74 58.4689 71.251 55.7294 66.2595 53.8067Z" fill="white"/>
</g>
<defs>
<filter id="filter0_di_446_519" x="-62" y="-50" width="304" height="211" filterUnits="userSpaceOnUse" color-interpolation-filters="sRGB">
<feFlood flood-opacity="0" result="BackgroundImageFix"/>
<feColorMatrix in="SourceAlpha" type="matrix" values="0 0 0 0 0 0 0 0 0 0 0 0 0 0 0 0 0 0 127 0" result="hardAlpha"/>
<feMorphology radius="2" operator="dilate" in="SourceAlpha" result="effect1_dropShadow_446_519"/>
<feOffset dy="4"/>
<feGaussianBlur stdDeviation="8"/>
<feComposite in2="hardAlpha" operator="out"/>
<feColorMatrix type="matrix" values="0 0 0 0 0 0 0 0 0 0 0 0 0 0 0 0 0 0 0.08 0"/>
<feBlend mode="normal" in2="BackgroundImageFix" result="effect1_dropShadow_446_519"/>
<feBlend mode="normal" in="SourceGraphic" in2="effect1_dropShadow_446_519" result="shape"/>
<feColorMatrix in="SourceAlpha" type="matrix" values="0 0 0 0 0 0 0 0 0 0 0 0 0 0 0 0 0 0 127 0" result="hardAlpha"/>
<feOffset dy="4"/>
<feGaussianBlur stdDeviation="3.65"/>
<feComposite in2="hardAlpha" operator="arithmetic" k2="-1" k3="1"/>
<feColorMatrix type="matrix" values="0 0 0 0 0.375 0 0 0 0 0.375 0 0 0 0 0.375 0 0 0 0.25 0"/>
<feBlend mode="normal" in2="shape" result="effect2_innerShadow_446_519"/>
</filter>
<linearGradient id="paint0_linear_446_519" x1="-157.063" y1="-85.7159" x2="108.291" y2="237.887" gradientUnits="userSpaceOnUse">
<stop offset="0.149" stop-color="#22C55E"/>
<stop offset="0.684" stop-color="#18763C"/>
</linearGradient>
<clipPath id="clip0_446_519">
<rect width="45" height="45" fill="white" transform="translate(29 28)"/>
</clipPath>
</defs>
</svg>
