<svg width="104" height="104" viewBox="0 0 104 104" fill="none" xmlns="http://www.w3.org/2000/svg">
<g clip-path="url(#clip0_446_399)">
<path d="M4.42 102.267C10.0382 102.274 15.5494 100.731 20.3459 97.8052C26.8078 101.599 34.1114 103.728 41.6 104C53.8339 104 61.1867 100.49 65.3172 97.3164C77.2131 100.223 93.0939 96.8588 96.6472 92.0228C98.6995 89.2148 99.2888 85.0392 98.3996 79.6052C102.131 73.3606 104.069 66.2079 104 58.9335C104 49.9098 100.745 40.0124 97.5971 30.4427C95.3068 24.0805 93.5002 17.5544 92.1925 10.9202C92.0136 9.81561 91.4747 8.80112 90.6597 8.03441C89.8447 7.26769 88.7993 6.7917 87.6859 6.68042C77.6906 5.48741 67.8266 3.37536 58.2192 0.371085L57.6992 0.209885C56.7513 -0.0722268 55.7408 -0.0657836 54.7965 0.228394C53.8523 0.522571 53.0169 1.09117 52.3969 1.86175L47.8903 7.49855C47.329 8.20365 46.9684 9.0471 46.8464 9.94C46.7243 10.8329 46.8454 11.7422 47.1969 12.572L50.8127 21.0168C50.2413 21.7275 49.8337 22.5555 49.6189 23.4417C49.4041 24.3279 49.3873 25.2506 49.5699 26.144C49.8493 27.5706 50.6165 28.8555 51.74 29.7781C52.8634 30.7007 54.273 31.2035 55.7267 31.2002H71.0667V37.2148C71.0919 40.3942 70.1256 43.5023 68.302 46.1068C66.7876 48.2099 65.5061 50.4713 64.48 52.8512C57.2073 46.4781 47.8 43.0797 38.1333 43.3335C32.0748 43.1776 26.096 44.7401 20.8884 47.8402C16.1903 44.8847 10.7504 43.322 5.2 43.3335H4.42C3.24831 43.3353 2.12513 43.8016 1.29661 44.6301C0.4681 45.4586 0.00183364 46.5818 0 47.7535L0 97.8468C0.0013762 99.0187 0.467495 100.142 1.29611 100.971C2.12472 101.799 3.24817 102.265 4.42 102.267ZM3.46667 47.7535C3.46551 47.628 3.48938 47.5035 3.53688 47.3873C3.58438 47.2711 3.65456 47.1656 3.74331 47.0768C3.83207 46.988 3.93762 46.9179 4.05381 46.8704C4.17 46.8229 4.29448 46.799 4.42 46.8002H5.2C9.61999 46.7979 13.967 47.9269 17.8273 50.0796C14.5662 52.7463 12.0406 56.2021 10.4901 60.1191C10.3455 60.554 10.379 61.0285 10.5833 61.4388C10.7877 61.849 11.1462 62.1617 11.5804 62.3083C12.0153 62.4547 12.4905 62.4228 12.9019 62.2194C13.3133 62.016 13.6272 61.6577 13.7748 61.2232C15.4418 57.2098 18.255 53.7769 21.8625 51.3536C26.6947 48.2117 32.3722 46.6228 38.1333 46.8002C42.7493 46.6555 47.3476 47.4345 51.6582 49.0916C55.9689 50.7486 59.905 53.2503 63.2355 56.4496C62.6951 58.3875 62.4142 60.3884 62.4 62.4002C62.4 73.3202 66.0868 75.7156 66.8252 76.0935C67.0752 76.2172 67.3505 76.2812 67.6295 76.2807C67.951 76.2842 68.2673 76.1982 68.5428 76.0323C68.8183 75.8664 69.0422 75.6271 69.1895 75.3412C69.295 75.1428 69.3599 74.9253 69.3803 74.7014C69.4007 74.4776 69.3762 74.252 69.3082 74.0377C69.2403 73.8235 69.1302 73.625 68.9845 73.4538C68.8388 73.2827 68.6604 73.1424 68.4597 73.0411C68.4372 73.0151 65.8667 71.2055 65.8667 62.4002C65.8788 60.389 66.2015 58.3917 66.8235 56.4791C67.8269 53.4892 69.278 50.6687 71.1273 48.114C73.3681 44.9234 74.5586 41.1136 74.5333 37.2148V31.0026C76.1012 30.699 77.568 30.0074 78.7998 28.9909C80.0315 27.9744 80.9889 26.6655 81.5845 25.1838L83.0769 21.4398C83.2429 21.0135 83.2337 20.539 83.0513 20.1195C82.8689 19.7001 82.528 19.3697 82.1031 19.2005C81.6782 19.0312 81.2036 19.0368 80.7827 19.216C80.3619 19.3952 80.0289 19.7335 79.8564 20.1571L78.3675 23.8959C77.9177 25.0163 77.1464 25.9786 76.1507 26.6615C75.155 27.3444 73.9795 27.7174 72.7723 27.7335H55.7267C55.0811 27.7357 54.4546 27.5147 53.9535 27.1078C53.4468 26.6917 53.1001 26.1128 52.9724 25.4698C52.8687 24.9732 52.9047 24.4576 53.0763 23.9803C53.248 23.5029 53.5486 23.0825 53.9448 22.7658L53.9639 22.7432L53.9864 22.7311C54.4183 22.3734 54.9494 22.1568 55.5083 22.1105L67.8617 21.0706C68.5201 21.0164 69.1576 20.8136 69.7263 20.4775C70.295 20.1415 70.7801 19.6808 71.1451 19.1303C71.5102 18.5797 71.7456 17.9536 71.8338 17.2989C71.922 16.6442 71.8606 15.9781 71.6543 15.3506L70.9783 13.3226C70.9063 13.1063 70.7925 12.9064 70.6433 12.7341C70.4941 12.5618 70.3124 12.4207 70.1087 12.3186C69.9049 12.2166 69.683 12.1557 69.4557 12.1394C69.2284 12.1231 69.0001 12.1517 68.7839 12.2236C68.5676 12.2955 68.3677 12.4094 68.1954 12.5586C68.0232 12.7078 67.882 12.8895 67.7799 13.0932C67.6779 13.297 67.617 13.5189 67.6007 13.7462C67.5844 13.9735 67.613 14.2018 67.6849 14.418L68.3609 16.446C68.4041 16.5739 68.4172 16.7101 68.3992 16.8439C68.3811 16.9776 68.3325 17.1055 68.2569 17.2174C68.1818 17.3327 68.0812 17.4291 67.9627 17.4992C67.8443 17.5692 67.7112 17.611 67.574 17.6212L64.5996 17.8708L62.2267 13.0938C62.0212 12.6823 61.6607 12.3694 61.2244 12.2237C60.7882 12.0781 60.312 12.1117 59.9005 12.3172C59.4891 12.5227 59.1761 12.8832 59.0305 13.3195C58.8849 13.7557 58.9185 14.2319 59.124 14.6434L60.892 18.1776L55.2136 18.656C54.7063 18.7066 54.2069 18.8184 53.7264 18.9888L50.3984 11.2166C50.2893 10.9619 50.2511 10.6825 50.2877 10.4079C50.3243 10.1333 50.4344 9.87372 50.6064 9.65655L55.1027 4.03535C55.2896 3.80044 55.5423 3.62651 55.8284 3.53576C56.1146 3.445 56.4213 3.44151 56.7095 3.52575L57.2295 3.68522C67.0333 6.75249 77.0993 8.90865 87.2993 10.1263C87.6586 10.1579 87.9975 10.3072 88.2632 10.551C88.529 10.7948 88.7069 11.1196 88.7692 11.4748C90.1108 18.2872 91.9602 24.9896 94.302 31.526C97.3665 40.8375 100.533 50.4644 100.533 58.9335C100.61 65.7798 98.7307 72.5056 95.1167 78.3208C95.107 78.3394 95.0983 78.3585 95.0907 78.378C94.3029 79.6614 93.3933 80.8658 92.3745 81.9747C92.209 82.1346 92.0769 82.3258 91.9861 82.5373C91.8953 82.7488 91.8474 82.9762 91.8454 83.2064C91.8434 83.4365 91.8873 83.6648 91.9744 83.8778C92.0616 84.0908 92.1903 84.2844 92.3531 84.4471C92.5158 84.6098 92.7093 84.7386 92.9224 84.8257C93.1354 84.9129 93.3636 84.9567 93.5938 84.9547C93.8239 84.9527 94.0514 84.9049 94.2628 84.8141C94.4743 84.7232 94.6656 84.5912 94.8255 84.4256C94.8463 84.4048 95.0317 84.2159 95.3177 83.89C95.4856 86.0221 94.9722 88.1525 93.8513 89.974C91.5131 93.1547 76.8647 96.9074 65.3796 93.751C62.816 93.0817 60.3899 91.9669 58.2123 90.4576C57.8388 90.1896 57.3741 90.081 56.9204 90.1556C56.4668 90.2302 56.0614 90.4819 55.7934 90.8554C55.5254 91.2289 55.4167 91.6936 55.4913 92.1472C55.5659 92.6009 55.8177 93.0063 56.1912 93.2743C57.7381 94.3579 59.4073 95.2556 61.1641 95.9488C57.2347 98.3287 51.0536 100.533 41.6 100.533C33.6267 100.533 26.0884 97.1344 21.1657 94.2935C18.3787 92.711 15.7387 90.8826 13.2773 88.83C12.9295 88.5499 12.487 88.4148 12.042 88.4529C11.597 88.4911 11.1839 88.6996 10.8888 89.0348C10.5938 89.3701 10.4395 89.8064 10.4582 90.2526C10.477 90.6988 10.6672 91.1206 10.9893 91.43C12.8608 93.0009 14.8379 94.4412 16.9069 95.7408C13.0511 97.7496 8.76774 98.7991 4.42 98.8002C4.29442 98.8015 4.16983 98.7778 4.05353 98.7304C3.93724 98.683 3.83159 98.6128 3.74279 98.524C3.65398 98.4352 3.58381 98.3296 3.5364 98.2133C3.48898 98.097 3.46527 97.9724 3.46667 97.8468V47.7535Z" fill="white"/>
<path d="M28.361 74.6893C31.6257 75.5784 34.9943 76.029 38.3779 76.0292C45.2554 75.9788 52.0101 74.2015 58.0218 70.8604C58.2223 70.7525 58.3996 70.6062 58.5436 70.4298C58.6876 70.2533 58.7954 70.0503 58.8609 69.8322C58.9264 69.6141 58.9483 69.3852 58.9254 69.1587C58.9025 68.9321 58.8351 68.7123 58.7272 68.5117C58.6193 68.3112 58.473 68.1339 58.2966 67.9899C58.1201 67.8459 57.9171 67.7381 57.699 67.6726C57.2585 67.5403 56.7836 67.5884 56.3786 67.8063C35.1747 79.2203 19.0876 66.7801 18.4186 66.2463C18.0593 65.9594 17.6008 65.827 17.1439 65.8782C16.687 65.9294 16.2692 66.16 15.9824 66.5193C15.6955 66.8785 15.5631 67.337 15.6143 67.7939C15.6655 68.2508 15.8961 68.6686 16.2554 68.9555C19.8951 71.6093 24.0018 73.5545 28.361 74.6893Z" fill="white"/>
</g>
<defs>
<clipPath id="clip0_446_399">
<rect width="104" height="104" fill="white"/>
</clipPath>
</defs>
</svg>
