<svg width="120" height="120" viewBox="0 0 120 120" fill="none" xmlns="http://www.w3.org/2000/svg">
<path fill-rule="evenodd" clip-rule="evenodd" d="M60 0C93.1394 0 120 26.8606 120 60C120 93.1394 93.1394 120 60 120C26.8606 120 0 93.1394 0 60C0 26.8606 26.8606 0 60 0Z" fill="#F0B90B"/>
<path d="M32.976 60L33.0192 75.8654L46.5 83.7981V93.0866L25.1298 80.5529V55.3606L32.976 60ZM32.976 44.1347V53.3798L25.125 48.7356V39.4904L32.976 34.8462L40.8654 39.4904L32.976 44.1347ZM52.1298 39.4904L59.9808 34.8462L67.8702 39.4904L59.9808 44.1347L52.1298 39.4904Z" fill="white"/>
<path d="M38.6489 72.577V63.2885L46.4999 67.9327V77.1779L38.6489 72.577ZM52.1297 87.125L59.9807 91.7693L67.8701 87.125V96.3702L59.9807 101.014L52.1297 96.3702V87.125ZM79.1297 39.4904L86.9807 34.8462L94.8701 39.4904V48.7356L86.9807 53.3798V44.1347L79.1297 39.4904ZM86.9807 75.8654L87.0239 60L94.8749 55.3558V80.5481L73.5047 93.0818V83.7933L86.9807 75.8654Z" fill="white"/>
<path d="M81.351 72.577L73.5 77.178V67.9328L81.351 63.2886V72.577Z" fill="white"/>
<path d="M81.3508 47.4229L81.3941 56.7113L67.8749 64.644V80.5479L60.0239 85.1488L52.173 80.5479V64.644L38.6537 56.7113V47.4229L46.5383 42.7786L59.9758 50.7498L73.4951 42.7786L81.3845 47.4229H81.3508ZM38.6489 31.5623L59.9807 18.9854L81.3508 31.5623L73.4999 36.2065L59.9807 28.2354L46.4999 36.2065L38.6489 31.5623Z" fill="white"/>
</svg>
