<svg width="547" height="457" viewBox="0 0 547 457" fill="none" xmlns="http://www.w3.org/2000/svg">
<circle cx="257.5" cy="251.5" r="79.5" fill="white" fill-opacity="0.06"/>
<circle opacity="0.3" cx="257" cy="251" r="113.5" stroke="white" stroke-dasharray="12 12"/>
<path d="M230.915 243V233.176H227.363V231.336H236.643V233.176H233.027V243H230.915ZM242.697 243.144C239.209 243.144 236.889 240.904 236.889 237.16C236.889 233.416 239.209 231.192 242.697 231.192C246.201 231.192 248.505 233.432 248.505 237.16C248.505 240.92 246.185 243.144 242.697 243.144ZM242.697 241.32C244.921 241.32 246.329 239.848 246.329 237.16C246.329 234.472 244.905 233.016 242.697 233.016C240.489 233.016 239.081 234.472 239.081 237.16C239.081 239.864 240.489 241.32 242.697 241.32ZM250.453 243V231.336H252.565V237.16L257.653 231.336H260.197L255.813 236.184L260.277 243H257.765L254.357 237.704L252.565 239.656V243H250.453ZM261.875 243V231.336H270.195V233.16H263.987V236.2H269.411V237.912H263.987V241.176H270.227V243H261.875ZM272.36 243V231.336H274.92L280.392 240.12H280.488L280.408 236.312V231.336H282.44V243H280.008L274.552 234.36H274.44L274.504 237.848V243H272.36ZM219.774 271V259.336H223.038L225.822 267.624H225.902L228.67 259.336H231.934V271H229.87V265.96L229.918 261.56H229.806L226.75 271H224.958L221.918 261.56H221.806L221.838 265.992V271H219.774ZM234.602 271V259.336H242.922V261.16H236.714V264.2H242.138V265.912H236.714V269.176H242.954V271H234.602ZM247.235 271V261.176H243.683V259.336H252.963V261.176H249.347V271H247.235ZM254.43 271V259.336H260.03C262.654 259.336 263.982 260.52 263.982 262.616C263.982 264.024 263.23 265.096 261.95 265.416V265.528C263.166 265.752 263.71 266.488 263.71 267.8V269.688C263.71 270.104 263.71 270.552 263.902 271H261.774C261.63 270.696 261.582 270.248 261.582 269.672V268.168C261.582 267.08 261.198 266.488 259.662 266.488H256.542V271H254.43ZM256.542 264.792H259.726C261.23 264.792 261.822 264.008 261.822 262.904C261.822 261.608 260.974 261.096 259.726 261.096H256.542V264.792ZM266.039 271V259.336H268.151V271H266.039ZM275.861 271.144C272.389 271.144 270.069 268.904 270.069 265.16C270.069 261.432 272.389 259.192 275.861 259.192C278.789 259.192 280.901 260.824 281.237 263.304H279.077C278.789 261.96 277.573 261.016 275.861 261.016C273.653 261.016 272.261 262.472 272.261 265.16C272.261 267.88 273.653 269.32 275.861 269.32C277.541 269.32 278.821 268.408 279.077 267.016H281.237C280.933 269.512 278.773 271.144 275.861 271.144ZM287.226 271.144C284.106 271.144 282.522 269.592 282.506 267.352H284.666C284.698 268.664 285.482 269.512 287.306 269.512C288.762 269.512 289.706 268.984 289.706 267.896C289.706 266.648 289.018 266.328 286.81 265.96C284.138 265.528 282.762 264.648 282.762 262.632C282.762 260.52 284.426 259.192 287.194 259.192C289.898 259.192 291.53 260.568 291.546 262.632H289.418C289.354 261.368 288.41 260.808 287.114 260.808C285.77 260.808 284.954 261.416 284.954 262.36C284.954 263.544 285.802 263.752 287.93 264.104C289.946 264.44 291.914 264.952 291.914 267.688C291.914 269.736 290.314 271.144 287.226 271.144Z" fill="white"/>
<path d="M50.1902 259.849C51.9164 299.998 65.3479 338.765 88.8304 371.376C112.313 403.987 144.821 429.017 182.35 443.384C219.88 457.752 260.792 460.828 300.049 452.236C339.305 443.643 375.191 423.756 403.286 395.024C431.382 366.292 450.46 329.969 458.172 290.531C465.883 251.092 461.891 210.258 446.687 173.06C431.482 135.862 405.73 103.922 372.602 81.1763C339.473 58.4301 300.415 45.8703 260.238 45.0436L259.556 78.1788C293.269 78.8725 326.043 89.4117 353.842 108.498C381.641 127.585 403.25 154.386 416.008 185.599C428.766 216.813 432.116 251.077 425.645 284.171C419.174 317.264 403.165 347.743 379.59 371.852C356.015 395.962 325.902 412.649 292.962 419.86C260.021 427.07 225.691 424.488 194.199 412.433C162.708 400.377 135.43 379.373 115.725 352.009C96.0209 324.645 84.7504 292.115 83.3018 258.426L50.1902 259.849Z" fill="url(#paint0_linear_446_568)"/>
<path d="M85.0669 136.031C60.6068 172.398 48.3827 215.618 50.1717 259.409L64.3924 258.828C62.727 218.062 74.1065 177.828 96.8766 143.974L85.0669 136.031Z" fill="#EA4491"/>
<path d="M85.4121 135.519C111.737 96.6323 150.558 67.9066 195.443 54.102L198.433 63.825C155.765 76.9479 118.861 104.255 93.8359 141.222L85.4121 135.519Z" fill="#2A6EFF"/>
<path d="M195.737 54.0119C216.408 47.6881 237.945 44.6573 259.559 45.0307L259.451 51.2786C238.493 50.9165 217.609 53.8554 197.565 59.9873L195.737 54.0119Z" fill="url(#paint1_linear_446_568)"/>
<path d="M492.436 239C492.436 235.616 493.66 233.456 494.908 231.656H491.728V233.252H490.528V230.348H496.696V231.428C495.232 233.528 494.056 235.448 494.056 239H492.436ZM500.679 239L500.667 236.948H496.527V235.808L500.271 230.348H502.179V235.712H503.331L503.319 236.948H502.179V239H500.679ZM498.039 235.712H500.679V231.92L498.039 235.712ZM504.441 239V237.56H505.893V239H504.441ZM507.027 239V238.772C507.027 235.292 511.347 234.92 511.347 232.868C511.347 232.04 510.783 231.536 509.943 231.536C509.055 231.536 508.467 232.112 508.527 233.096H507.051C506.991 231.368 508.215 230.24 510.039 230.24C511.755 230.24 512.895 231.224 512.895 232.784C512.895 235.376 509.475 236.024 508.911 237.68H512.991V239H507.027ZM517.023 239.108C515.127 239.108 513.987 237.992 513.963 236.324H515.451C515.439 237.224 516.063 237.824 517.023 237.824C517.983 237.824 518.607 237.284 518.607 236.42C518.607 235.568 518.031 235.136 517.203 235.136H516.183V233.996H517.095C517.995 233.996 518.475 233.468 518.475 232.748C518.475 231.968 517.911 231.524 517.047 231.524C516.099 231.524 515.535 232.1 515.523 232.988H514.035C514.047 231.32 515.247 230.24 517.107 230.24C518.859 230.24 520.011 231.14 520.011 232.544C520.011 233.492 519.495 234.212 518.715 234.488V234.548C519.627 234.776 520.143 235.556 520.143 236.552C520.143 238.088 518.871 239.108 517.023 239.108ZM522.646 239L528.202 230.252H529.27L523.702 239H522.646ZM523.09 234.968C521.962 234.968 521.29 234.056 521.29 232.616C521.29 231.14 522.022 230.288 523.114 230.288C524.23 230.288 524.902 231.212 524.902 232.64C524.902 234.14 524.158 234.968 523.09 234.968ZM523.09 234.104C523.546 234.104 523.87 233.816 523.87 232.628C523.87 231.452 523.546 231.164 523.09 231.164C522.646 231.164 522.322 231.452 522.322 232.628C522.322 233.804 522.646 234.104 523.09 234.104ZM528.814 239.048C527.686 239.048 527.014 238.124 527.014 236.696C527.014 235.208 527.746 234.368 528.838 234.368C529.954 234.368 530.626 235.28 530.626 236.708C530.626 238.208 529.894 239.048 528.814 239.048ZM528.826 238.172C529.27 238.172 529.594 237.896 529.594 236.708C529.594 235.52 529.27 235.232 528.826 235.232C528.382 235.232 528.046 235.508 528.046 236.708C528.046 237.896 528.382 238.172 528.826 238.172Z" fill="#A8A8A8"/>
<path d="M491.092 258V248.523H495.031C497.059 248.523 498.385 249.641 498.385 251.578C498.385 253.424 497.137 254.672 495.031 254.672L492.808 254.659V258H491.092ZM494.745 249.992H492.808V253.307L494.745 253.32C495.811 253.32 496.63 252.839 496.63 251.643C496.63 250.447 495.811 249.992 494.745 249.992ZM499.567 258V251.084H501.036L501.114 252.241H501.166C501.478 251.357 502.232 250.993 503.129 250.993C503.285 250.993 503.415 250.993 503.532 250.993V252.527C503.428 252.527 503.272 252.514 503.103 252.514C501.842 252.514 501.244 253.138 501.192 254.217V258H499.567ZM507.303 258.117C505.21 258.117 504.001 256.713 504.001 254.581C504.001 252.358 505.236 250.954 507.251 250.954C509.513 250.954 510.605 252.592 510.41 254.88H505.587C505.6 256.206 506.276 256.882 507.303 256.882C508.122 256.882 508.681 256.466 508.837 255.842H510.371C510.189 257.246 508.954 258.117 507.303 258.117ZM507.251 252.189C506.302 252.189 505.691 252.774 505.6 253.827H508.811C508.772 252.709 508.148 252.189 507.251 252.189ZM514.239 258.13C512.393 258.13 511.262 257.207 511.275 255.816H512.874C512.887 256.609 513.446 256.96 514.291 256.96C515.11 256.96 515.539 256.648 515.539 256.102C515.539 255.465 515.136 255.309 514.07 255.153C512.302 254.893 511.457 254.425 511.457 253.099C511.457 251.812 512.588 250.954 514.291 250.954C515.955 250.954 517.034 251.812 517.06 253.138H515.461C515.448 252.423 514.98 252.111 514.252 252.111C513.511 252.111 513.082 252.423 513.082 252.956C513.082 253.541 513.55 253.723 514.707 253.879C516.358 254.1 517.203 254.594 517.203 255.959C517.203 257.35 516.02 258.13 514.239 258.13ZM520.912 258.117C519.248 258.117 518.13 256.882 518.13 254.542C518.13 252.189 519.248 250.954 520.912 250.954C522.03 250.954 522.862 251.513 523.2 252.358H523.291L523.356 251.084H524.916V258H523.291V256.713H523.2C522.862 257.558 522.03 258.117 520.912 258.117ZM521.523 256.791C522.68 256.791 523.265 255.868 523.265 254.893V254.178C523.265 253.19 522.68 252.28 521.523 252.28C520.483 252.28 519.781 253.021 519.781 254.542C519.781 256.05 520.483 256.791 521.523 256.791ZM526.659 258V248.523H528.284V258H526.659ZM532.909 258.117C530.816 258.117 529.607 256.713 529.607 254.581C529.607 252.358 530.842 250.954 532.857 250.954C535.119 250.954 536.211 252.592 536.016 254.88H531.193C531.206 256.206 531.882 256.882 532.909 256.882C533.728 256.882 534.287 256.466 534.443 255.842H535.977C535.795 257.246 534.56 258.117 532.909 258.117ZM532.857 252.189C531.908 252.189 531.297 252.774 531.206 253.827H534.417C534.378 252.709 533.754 252.189 532.857 252.189ZM542.169 256.401V253.957H539.738V252.67H542.169V250.226H543.495V252.67H545.913V253.957H543.495V256.401H542.169ZM491.092 274V264.523H492.808V272.466H497.176V274H491.092ZM498.158 266.109V264.523H499.783V266.109H498.158ZM498.158 274V267.084H499.783V274H498.158ZM506.267 276.171V272.713H506.176C505.838 273.558 505.006 274.117 503.888 274.117C502.224 274.117 501.106 272.882 501.106 270.542C501.106 268.189 502.224 266.954 503.888 266.954C505.006 266.954 505.838 267.513 506.176 268.358H506.267L506.332 267.084H507.892V276.171H506.267ZM504.499 272.791C505.656 272.791 506.241 271.868 506.241 270.893V270.178C506.241 269.19 505.656 268.28 504.499 268.28C503.459 268.28 502.757 269.021 502.757 270.542C502.757 272.05 503.459 272.791 504.499 272.791ZM512.053 274.117C510.467 274.117 509.57 273.168 509.57 271.374V267.084H511.195V270.945C511.195 272.128 511.624 272.791 512.677 272.791C513.73 272.791 514.38 271.946 514.38 270.854V267.084H516.005V274H514.445L514.38 272.661H514.302C513.951 273.597 513.08 274.117 512.053 274.117ZM517.684 266.109V264.523H519.309V266.109H517.684ZM517.684 274V267.084H519.309V274H517.684ZM523.413 274.117C521.749 274.117 520.631 272.882 520.631 270.542C520.631 268.189 521.749 266.954 523.413 266.954C524.531 266.954 525.363 267.513 525.701 268.358H525.792V264.523H527.417L527.404 274H525.844L525.792 272.713H525.701C525.363 273.558 524.531 274.117 523.413 274.117ZM524.024 272.791C525.181 272.791 525.766 271.868 525.766 270.893V270.178C525.766 269.19 525.181 268.28 524.024 268.28C522.984 268.28 522.282 269.021 522.282 270.542C522.282 272.05 522.984 272.791 524.024 272.791ZM529.16 266.109V264.523H530.785V266.109H529.16ZM529.16 274V267.084H530.785V274H529.16ZM534.682 274C533.395 274 533.044 273.415 533.044 272.427V268.397H531.77V267.084H533.044V265.134L534.656 264.965V267.084H536.125V268.397H534.656V272.128C534.656 272.57 534.838 272.674 535.241 272.674H536.125V274H534.682ZM537.176 276.171V274.832H537.943C538.541 274.832 538.853 274.598 539.048 274.078L539.282 273.48L536.604 267.084H538.385L539.802 271.036L540.062 271.816H540.127L540.361 271.036L541.7 267.084H543.429L540.634 274.455C540.153 275.781 539.386 276.171 538.242 276.171H537.176Z" fill="#A8A8A8"/>
<path d="M6.448 201V194.964H4.312V193.824H4.66C5.812 193.824 6.436 193.236 6.52 192.348H7.948V201H6.448ZM12.6979 201.096C10.7059 201.096 9.49394 199.44 9.49394 196.656C9.49394 193.8 10.7779 192.24 12.7219 192.24C14.7019 192.24 15.9139 193.896 15.9139 196.668C15.9139 199.536 14.6179 201.096 12.6979 201.096ZM12.7099 199.824C13.7299 199.824 14.4139 198.996 14.4139 196.656C14.4139 194.328 13.7299 193.512 12.7099 193.512C11.6659 193.512 10.9939 194.328 10.9939 196.656C10.9939 198.996 11.6659 199.824 12.7099 199.824ZM18.2007 201L23.7567 192.252H24.8247L19.2567 201H18.2007ZM18.6447 196.968C17.5167 196.968 16.8447 196.056 16.8447 194.616C16.8447 193.14 17.5767 192.288 18.6687 192.288C19.7847 192.288 20.4567 193.212 20.4567 194.64C20.4567 196.14 19.7127 196.968 18.6447 196.968ZM18.6447 196.104C19.1007 196.104 19.4247 195.816 19.4247 194.628C19.4247 193.452 19.1007 193.164 18.6447 193.164C18.2007 193.164 17.8767 193.452 17.8767 194.628C17.8767 195.804 18.2007 196.104 18.6447 196.104ZM24.3687 201.048C23.2407 201.048 22.5687 200.124 22.5687 198.696C22.5687 197.208 23.3007 196.368 24.3927 196.368C25.5087 196.368 26.1807 197.28 26.1807 198.708C26.1807 200.208 25.4487 201.048 24.3687 201.048ZM24.3807 200.172C24.8247 200.172 25.1487 199.896 25.1487 198.708C25.1487 197.52 24.8247 197.232 24.3807 197.232C23.9367 197.232 23.6007 197.508 23.6007 198.708C23.6007 199.896 23.9367 200.172 24.3807 200.172Z" fill="#A8A8A8"/>
<path d="M2.62055 219V212.86H0.400547V211.71H6.20055V212.86H3.94055V219H2.62055ZM8.21984 219.09C6.60984 219.09 5.67984 218.01 5.67984 216.37C5.67984 214.66 6.62984 213.58 8.17984 213.58C9.91984 213.58 10.7598 214.84 10.6098 216.6H6.89984C6.90984 217.62 7.42984 218.14 8.21984 218.14C8.84984 218.14 9.27984 217.82 9.39984 217.34H10.5798C10.4398 218.42 9.48984 219.09 8.21984 219.09ZM8.17984 214.53C7.44984 214.53 6.97984 214.98 6.90984 215.79H9.37984C9.34984 214.93 8.86984 214.53 8.17984 214.53ZM13.523 219.09C12.243 219.09 11.383 218.14 11.383 216.34C11.383 214.53 12.243 213.58 13.523 213.58C14.383 213.58 15.023 214.01 15.283 214.66H15.353L15.403 213.68H16.603V219H15.353V218.01H15.283C15.023 218.66 14.383 219.09 13.523 219.09ZM13.993 218.07C14.883 218.07 15.333 217.36 15.333 216.61V216.06C15.333 215.3 14.883 214.6 13.993 214.6C13.193 214.6 12.653 215.17 12.653 216.34C12.653 217.5 13.193 218.07 13.993 218.07ZM17.9434 219V213.68H19.1534L19.1934 214.69H19.2534C19.5334 213.96 20.2034 213.58 20.9434 213.58C21.7134 213.58 22.3734 213.92 22.6534 214.8H22.7334C23.0034 213.99 23.7234 213.58 24.5434 213.58C25.5834 213.58 26.3834 214.2 26.3834 215.81V219H25.1334V216.08C25.1334 215.08 24.8034 214.61 24.0634 214.61C23.2634 214.61 22.7934 215.27 22.7934 216.07V219H21.5334V216.08C21.5334 215.08 21.2034 214.61 20.4734 214.61C19.6634 214.61 19.1934 215.27 19.1934 216.07V219H17.9434Z" fill="#A8A8A8"/>
<path d="M67.448 55V48.964H65.312V47.824H65.66C66.812 47.824 67.436 47.236 67.52 46.348H68.948V55H67.448ZM73.6979 55.096C71.7059 55.096 70.4939 53.44 70.4939 50.656C70.4939 47.8 71.7779 46.24 73.7219 46.24C75.7019 46.24 76.9139 47.896 76.9139 50.668C76.9139 53.536 75.6179 55.096 73.6979 55.096ZM73.7099 53.824C74.7299 53.824 75.4139 52.996 75.4139 50.656C75.4139 48.328 74.7299 47.512 73.7099 47.512C72.6659 47.512 71.9939 48.328 71.9939 50.656C71.9939 52.996 72.6659 53.824 73.7099 53.824ZM77.9407 55V53.56H79.3927V55H77.9407ZM82.4594 55C82.4594 51.616 83.6834 49.456 84.9314 47.656H81.7514V49.252H80.5514V46.348H86.7194V47.428C85.2554 49.528 84.0794 51.448 84.0794 55H82.4594ZM90.8799 55.084C88.9719 55.084 87.6999 54.172 87.6999 52.684C87.6999 51.688 88.3239 50.824 89.3559 50.644V50.584C88.3599 50.368 87.8559 49.564 87.8559 48.616C87.8559 47.2 88.9839 46.24 90.8799 46.24C92.7639 46.24 93.9159 47.212 93.9159 48.64C93.9159 49.552 93.4119 50.368 92.3919 50.584V50.644C93.4359 50.8 94.0479 51.64 94.0479 52.672C94.0479 54.16 92.7759 55.084 90.8799 55.084ZM90.8799 50.032C91.9119 50.032 92.3919 49.504 92.3919 48.772C92.3919 47.968 91.7919 47.488 90.8799 47.488C89.9439 47.488 89.3799 47.98 89.3799 48.772C89.3799 49.54 89.8839 50.032 90.8799 50.032ZM90.8799 53.788C91.8519 53.788 92.4639 53.296 92.4639 52.48C92.4639 51.736 91.9479 51.232 90.8799 51.232C89.7879 51.232 89.2959 51.772 89.2959 52.48C89.2959 53.32 89.9199 53.788 90.8799 53.788ZM96.4741 55L102.03 46.252H103.098L97.5301 55H96.4741ZM96.9181 50.968C95.7901 50.968 95.1181 50.056 95.1181 48.616C95.1181 47.14 95.8501 46.288 96.9421 46.288C98.0581 46.288 98.7301 47.212 98.7301 48.64C98.7301 50.14 97.9861 50.968 96.9181 50.968ZM96.9181 50.104C97.3741 50.104 97.6981 49.816 97.6981 48.628C97.6981 47.452 97.3741 47.164 96.9181 47.164C96.4741 47.164 96.1501 47.452 96.1501 48.628C96.1501 49.804 96.4741 50.104 96.9181 50.104ZM102.642 55.048C101.514 55.048 100.842 54.124 100.842 52.696C100.842 51.208 101.574 50.368 102.666 50.368C103.782 50.368 104.454 51.28 104.454 52.708C104.454 54.208 103.722 55.048 102.642 55.048ZM102.654 54.172C103.098 54.172 103.422 53.896 103.422 52.708C103.422 51.52 103.098 51.232 102.654 51.232C102.21 51.232 101.874 51.508 101.874 52.708C101.874 53.896 102.21 54.172 102.654 54.172Z" fill="#A8A8A8"/>
<path d="M49.0529 73V65.71H51.0929L52.8329 70.89H52.8829L54.6129 65.71H56.6529V73H55.3629V69.85L55.3929 67.1H55.3229L53.4129 73H52.2929L50.3929 67.1H50.3229L50.3429 69.87V73H49.0529ZM59.9605 73.09C58.6805 73.09 57.8205 72.14 57.8205 70.34C57.8205 68.53 58.6805 67.58 59.9605 67.58C60.8205 67.58 61.4605 68.01 61.7205 68.66H61.7905L61.8405 67.68H63.0405V73H61.7905V72.01H61.7205C61.4605 72.66 60.8205 73.09 59.9605 73.09ZM60.4305 72.07C61.3205 72.07 61.7705 71.36 61.7705 70.61V70.06C61.7705 69.3 61.3205 68.6 60.4305 68.6C59.6305 68.6 59.0905 69.17 59.0905 70.34C59.0905 71.5 59.6305 72.07 60.4305 72.07ZM64.3809 73V67.68H65.5109L65.5709 68.57H65.6109C65.8509 67.89 66.4309 67.61 67.1209 67.61C67.2409 67.61 67.3409 67.61 67.4309 67.61V68.79C67.3509 68.79 67.2309 68.78 67.1009 68.78C66.1309 68.78 65.6709 69.26 65.6309 70.09V73H64.3809ZM68.2481 73V65.71H69.5181V70.05L69.9681 69.54L71.7481 67.68H73.2981L71.2381 69.77L73.3481 73H71.8781L70.6781 71.15L70.3581 70.6L69.5181 71.43V73H68.2481ZM76.0148 73.09C74.4048 73.09 73.4748 72.01 73.4748 70.37C73.4748 68.66 74.4248 67.58 75.9748 67.58C77.7148 67.58 78.5548 68.84 78.4048 70.6H74.6948C74.7048 71.62 75.2248 72.14 76.0148 72.14C76.6448 72.14 77.0748 71.82 77.1948 71.34H78.3748C78.2348 72.42 77.2848 73.09 76.0148 73.09ZM75.9748 68.53C75.2448 68.53 74.7748 68.98 74.7048 69.79H77.1748C77.1448 68.93 76.6648 68.53 75.9748 68.53ZM81.0602 73C80.0702 73 79.8002 72.55 79.8002 71.79V68.69H78.8202V67.68H79.8002V66.18L81.0402 66.05V67.68H82.1702V68.69H81.0402V71.56C81.0402 71.9 81.1802 71.98 81.4902 71.98H82.1702V73H81.0602ZM83.1309 66.93V65.71H84.3809V66.93H83.1309ZM83.1309 73V67.68H84.3809V73H83.1309ZM85.7286 73V67.68H86.9286L86.9786 68.69H87.0386C87.3386 67.96 88.0186 67.58 88.7886 67.58C89.8686 67.58 90.6786 68.2 90.6786 69.81V73H89.4286V70.08C89.4286 69.08 89.0886 68.61 88.3086 68.61C87.4686 68.61 86.9786 69.27 86.9786 70.07V73H85.7286ZM94.1388 74.77C92.7988 74.77 91.9688 74.16 91.8788 73.2H93.0788C93.1588 73.61 93.5588 73.87 94.1688 73.87C95.0688 73.87 95.4988 73.5 95.4988 72.64V71.66H95.4288C95.1888 72.28 94.5588 72.69 93.7488 72.69C92.4688 72.69 91.6388 71.79 91.6388 70.13C91.6388 68.48 92.4888 67.58 93.7688 67.58C94.5688 67.58 95.1888 67.98 95.4288 68.59H95.4988L95.5388 67.68H96.7488V72.44C96.7488 74.16 95.6988 74.77 94.1388 74.77ZM94.1988 71.72C95.0388 71.72 95.4788 71.09 95.4988 70.45V69.81C95.4688 69.18 95.0388 68.55 94.2088 68.55C93.4188 68.55 92.9088 69.1 92.9088 70.13C92.9088 71.18 93.4288 71.72 94.1988 71.72ZM101.771 71.77V69.89H99.9008V68.9H101.771V67.02H102.791V68.9H104.651V69.89H102.791V71.77H101.771ZM56.4216 89.09C54.2516 89.09 52.8016 87.69 52.8016 85.35C52.8016 83.02 54.2516 81.62 56.4216 81.62C58.2516 81.62 59.5716 82.64 59.7816 84.19H58.4316C58.2516 83.35 57.4916 82.76 56.4216 82.76C55.0416 82.76 54.1716 83.67 54.1716 85.35C54.1716 87.05 55.0416 87.95 56.4216 87.95C57.4716 87.95 58.2716 87.38 58.4316 86.51H59.7816C59.5916 88.07 58.2416 89.09 56.4216 89.09ZM60.9865 89V81.71H66.1865V82.85H62.3065V84.75H65.6965V85.82H62.3065V87.86H66.2065V89H60.9865ZM66.6892 89L69.3692 85.09L67.0092 81.71H68.5592L70.2092 84.23H70.2492L71.8992 81.71H73.4492L71.1192 85.08L73.7992 89H72.2292L70.2492 86.03H70.2092L68.2192 89H66.6892ZM76.6368 89V81.71H77.8868V89H76.6368ZM79.2345 82.93V81.71H80.4845V82.93H79.2345ZM79.2345 89V83.68H80.4845V89H79.2345ZM83.7428 89.1C82.3228 89.1 81.4528 88.39 81.4628 87.32H82.6928C82.7028 87.93 83.1328 88.2 83.7828 88.2C84.4128 88.2 84.7428 87.96 84.7428 87.54C84.7428 87.05 84.4328 86.93 83.6128 86.81C82.2528 86.61 81.6028 86.25 81.6028 85.23C81.6028 84.24 82.4728 83.58 83.7828 83.58C85.0628 83.58 85.8928 84.24 85.9128 85.26H84.6828C84.6728 84.71 84.3128 84.47 83.7528 84.47C83.1828 84.47 82.8528 84.71 82.8528 85.12C82.8528 85.57 83.2128 85.71 84.1028 85.83C85.3728 86 86.0228 86.38 86.0228 87.43C86.0228 88.5 85.1128 89.1 83.7428 89.1ZM88.6872 89C87.6972 89 87.4272 88.55 87.4272 87.79V84.69H86.4472V83.68H87.4272V82.18L88.6672 82.05V83.68H89.7972V84.69H88.6672V87.56C88.6672 87.9 88.8072 87.98 89.1172 87.98H89.7972V89H88.6872ZM90.7579 82.93V81.71H92.0079V82.93H90.7579ZM90.7579 89V83.68H92.0079V89H90.7579ZM93.3555 89V83.68H94.5555L94.6055 84.69H94.6655C94.9655 83.96 95.6455 83.58 96.4155 83.58C97.4955 83.58 98.3055 84.2 98.3055 85.81V89H97.0555V86.08C97.0555 85.08 96.7155 84.61 95.9355 84.61C95.0955 84.61 94.6055 85.27 94.6055 86.07V89H93.3555ZM101.766 90.77C100.426 90.77 99.5958 90.16 99.5058 89.2H100.706C100.786 89.61 101.186 89.87 101.796 89.87C102.696 89.87 103.126 89.5 103.126 88.64V87.66H103.056C102.816 88.28 102.186 88.69 101.376 88.69C100.096 88.69 99.2658 87.79 99.2658 86.13C99.2658 84.48 100.116 83.58 101.396 83.58C102.196 83.58 102.816 83.98 103.056 84.59H103.126L103.166 83.68H104.376V88.44C104.376 90.16 103.326 90.77 101.766 90.77ZM101.826 87.72C102.666 87.72 103.106 87.09 103.126 86.45V85.81C103.096 85.18 102.666 84.55 101.836 84.55C101.046 84.55 100.536 85.1 100.536 86.13C100.536 87.18 101.056 87.72 101.826 87.72Z" fill="#A8A8A8"/>
<path d="M222.648 12.108C220.812 12.108 219.612 11.004 219.588 9.372H221.1C221.112 10.224 221.724 10.8 222.66 10.8C223.68 10.8 224.28 10.116 224.28 9.144C224.28 8.112 223.656 7.452 222.66 7.452C221.916 7.452 221.4 7.836 221.184 8.364H219.768L219.984 3.348H225.324V4.656H221.304L221.208 6.84L221.268 6.864C221.616 6.468 222.276 6.204 222.984 6.204C224.724 6.204 225.804 7.404 225.804 9.108C225.804 10.908 224.592 12.108 222.648 12.108ZM228.291 12L233.847 3.252H234.915L229.347 12H228.291ZM228.735 7.968C227.607 7.968 226.935 7.056 226.935 5.616C226.935 4.14 227.667 3.288 228.759 3.288C229.875 3.288 230.547 4.212 230.547 5.64C230.547 7.14 229.803 7.968 228.735 7.968ZM228.735 7.104C229.191 7.104 229.515 6.816 229.515 5.628C229.515 4.452 229.191 4.164 228.735 4.164C228.291 4.164 227.967 4.452 227.967 5.628C227.967 6.804 228.291 7.104 228.735 7.104ZM234.459 12.048C233.331 12.048 232.659 11.124 232.659 9.696C232.659 8.208 233.391 7.368 234.483 7.368C235.599 7.368 236.271 8.28 236.271 9.708C236.271 11.208 235.539 12.048 234.459 12.048ZM234.471 11.172C234.915 11.172 235.239 10.896 235.239 9.708C235.239 8.52 234.915 8.232 234.471 8.232C234.027 8.232 233.691 8.508 233.691 9.708C233.691 10.896 234.027 11.172 234.471 11.172Z" fill="#A8A8A8"/>
<path d="M201.62 30L204.13 22.71H205.99L208.5 30H207.13L206.58 28.4H203.54L203 30H201.62ZM203.86 27.38H206.27L205.55 25.33L205.09 23.92H205.04L204.57 25.33L203.86 27.38ZM209.193 23.93V22.71H210.443V23.93H209.193ZM209.193 30V24.68H210.443V30H209.193ZM211.791 30V24.68H212.921L212.981 25.57H213.021C213.261 24.89 213.841 24.61 214.531 24.61C214.651 24.61 214.751 24.61 214.841 24.61V25.79C214.761 25.79 214.641 25.78 214.511 25.78C213.541 25.78 213.081 26.26 213.041 27.09V30H211.791ZM217.341 30.09C216.061 30.09 215.201 29.14 215.201 27.34C215.201 25.53 216.061 24.58 217.341 24.58C218.201 24.58 218.841 25.01 219.101 25.66H219.171V22.71H220.421L220.411 30H219.211L219.171 29.01H219.101C218.841 29.66 218.201 30.09 217.341 30.09ZM217.811 29.07C218.701 29.07 219.151 28.36 219.151 27.61V27.06C219.151 26.3 218.701 25.6 217.811 25.6C217.011 25.6 216.471 26.17 216.471 27.34C216.471 28.5 217.011 29.07 217.811 29.07ZM221.762 30V24.68H222.892L222.952 25.57H222.992C223.232 24.89 223.812 24.61 224.502 24.61C224.622 24.61 224.722 24.61 224.812 24.61V25.79C224.732 25.79 224.612 25.78 224.482 25.78C223.512 25.78 223.052 26.26 223.012 27.09V30H221.762ZM227.812 30.09C226.232 30.09 225.172 29.05 225.172 27.34C225.172 25.7 226.162 24.58 227.812 24.58C229.382 24.58 230.432 25.63 230.432 27.34C230.432 28.98 229.452 30.09 227.812 30.09ZM227.802 29.06C228.622 29.06 229.172 28.48 229.172 27.34C229.172 26.21 228.642 25.61 227.812 25.61C226.982 25.61 226.432 26.2 226.432 27.34C226.432 28.46 226.962 29.06 227.802 29.06ZM231.44 31.67L231.45 24.68H232.65L232.69 25.66H232.77C233.02 25.01 233.66 24.58 234.52 24.58C235.8 24.58 236.67 25.53 236.67 27.34C236.67 29.14 235.8 30.1 234.52 30.1C233.66 30.1 233.02 29.66 232.77 29.02H232.69V31.67H231.44ZM234.06 29.08C234.86 29.08 235.39 28.51 235.39 27.34C235.39 26.17 234.86 25.6 234.06 25.6C233.16 25.6 232.71 26.31 232.71 27.06V27.62C232.71 28.37 233.16 29.08 234.06 29.08Z" fill="#A8A8A8"/>
<defs>
<linearGradient id="paint0_linear_446_568" x1="-37.6747" y1="-239.338" x2="490.041" y2="520.998" gradientUnits="userSpaceOnUse">
<stop stop-color="#CDFF3A"/>
<stop offset="0.764573" stop-color="#547000"/>
</linearGradient>
<linearGradient id="paint1_linear_446_568" x1="-123.813" y1="-72.0454" x2="497.076" y2="422.385" gradientUnits="userSpaceOnUse">
<stop offset="0.149" stop-color="#22C55E"/>
<stop offset="0.684" stop-color="#18763C"/>
</linearGradient>
</defs>
</svg>
