<svg width="120" height="120" viewBox="0 0 120 120" fill="none" xmlns="http://www.w3.org/2000/svg">
<path d="M59.9999 -7.62939e-06C93.1371 -7.62939e-06 120 26.8629 120 60.0001C120 93.1371 93.1371 120 59.9999 120C26.8629 120 0 93.1371 0 60.0001C0 26.8629 26.8629 -7.62939e-06 59.9999 -7.62939e-06Z" fill="black"/>
<path d="M38.7887 73.5574C38.1825 73.5574 37.6108 73.7996 37.1947 74.2157L26.3327 85.078C25.6224 85.788 26.1248 87.001 27.1295 87.001H82.1169C82.7229 87.001 83.2946 86.7583 83.7107 86.343L94.5732 75.4801C95.2835 74.7698 94.7812 73.5574 93.7764 73.5574H38.7887Z" fill="url(#paint0_linear_610_51)"/>
<path d="M38.7887 32.9995C38.1997 32.9995 37.6278 33.2422 37.1947 33.6578L26.3327 44.5207C25.6224 45.2307 26.1248 46.4434 27.1295 46.4434H82.1169C82.7229 46.4434 83.2946 46.2012 83.7107 45.7851L94.5732 34.9228C95.2835 34.2128 94.7812 32.9995 93.7764 32.9995H38.7887Z" fill="url(#paint1_linear_610_51)"/>
<path d="M27.1295 53.1482C26.1248 53.1482 25.6224 54.3606 26.3327 55.0709L37.1947 65.9336C37.6108 66.3497 38.1825 66.5918 38.7887 66.5918H93.7764C94.7812 66.5918 95.2835 65.3794 94.5732 64.6691L83.7107 53.8065C83.2946 53.3909 82.7229 53.1482 82.1169 53.1482H27.1295Z" fill="url(#paint2_linear_610_51)"/>
<defs>
<linearGradient id="paint0_linear_610_51" x1="61.532" y1="25.9755" x2="60.069" y2="99.5949" gradientUnits="userSpaceOnUse">
<stop stop-color="#00FFA3"/>
<stop offset="1" stop-color="#DC1FFF"/>
</linearGradient>
<linearGradient id="paint1_linear_610_51" x1="60.8924" y1="17.6048" x2="59.4293" y2="91.2241" gradientUnits="userSpaceOnUse">
<stop stop-color="#00FFA3"/>
<stop offset="1" stop-color="#DC1FFF"/>
</linearGradient>
<linearGradient id="paint2_linear_610_51" x1="61.2101" y1="21.7631" x2="59.7471" y2="95.3825" gradientUnits="userSpaceOnUse">
<stop stop-color="#00FFA3"/>
<stop offset="1" stop-color="#DC1FFF"/>
</linearGradient>
</defs>
</svg>
