<svg width="102" height="102" viewBox="0 0 102 102" fill="none" xmlns="http://www.w3.org/2000/svg">
<mask id="mask0_446_513" style="mask-type:alpha" maskUnits="userSpaceOnUse" x="0" y="0" width="102" height="102">
<circle cx="51" cy="51" r="51" fill="#D9D9D9"/>
</mask>
<g mask="url(#mask0_446_513)">
<g filter="url(#filter0_di_446_513)">
<rect x="-44" y="-36" width="268" height="175" fill="url(#paint0_linear_446_513)"/>
</g>
</g>
<g clip-path="url(#clip0_446_513)">
<path d="M61.6613 36.7098C62.8618 36.7098 63.8388 35.7328 63.8388 34.5323C63.8388 33.3318 62.8618 32.3549 61.6613 32.3549C60.4608 32.3549 59.4839 33.3318 59.4839 34.5323C59.4839 35.7328 60.4608 36.7098 61.6613 36.7098ZM61.6613 33.8065C62.0613 33.8065 62.3872 34.1323 62.3872 34.5323C62.3872 34.9323 62.0613 35.2582 61.6613 35.2582C61.2614 35.2582 60.9355 34.9323 60.9355 34.5323C60.9355 34.1323 61.2614 33.8065 61.6613 33.8065Z" fill="white"/>
<path d="M56.5806 33.8064H58.0322V35.258H56.5806V33.8064Z" fill="white"/>
<path d="M65.2905 33.8064H66.7421V35.258H65.2905V33.8064Z" fill="white"/>
<path d="M32.6289 39.6129H35.5321V41.0645H32.6289V39.6129Z" fill="white"/>
<path d="M36.9839 39.6129H41.3387V41.0645H36.9839V39.6129Z" fill="white"/>
<path d="M32.6289 42.5161H39.887V43.9677H32.6289V42.5161Z" fill="white"/>
<path d="M32.6289 45.4193H38.4353V46.8709H32.6289V45.4193Z" fill="white"/>
<path d="M72.5484 51.2258H62.3501C62.366 50.9849 62.3871 50.7454 62.3871 50.5C62.3871 44.4969 57.5031 39.6129 51.5 39.6129C49.6651 39.6129 47.9377 40.0738 46.4193 40.8787V35.2581H55.1291V33.8064H46.4193V29.4516C46.4193 28.6511 45.7684 28 44.9677 28H30.4516C29.6511 28 29 28.6511 29 29.4516V48.3225C29 49.1231 29.6511 49.7742 30.4516 49.7742H40.6499C40.634 50.0151 40.6129 50.2546 40.6129 50.5C40.6129 56.5031 45.4969 61.3871 51.5 61.3871C53.3349 61.3871 55.0623 60.9262 56.5807 60.1213V65.742H47.8709V67.1936H56.5807V71.5484C56.5807 72.3489 57.2317 73 58.0323 73H72.5484C73.3489 73 74 72.3489 74 71.5484V52.6774C74 51.8768 73.349 51.2258 72.5484 51.2258ZM47.8709 50.5C47.8709 49.2683 48.0677 48.0438 48.4291 46.8709H54.5701C54.9323 48.0438 55.129 49.2683 55.129 50.5C55.129 51.7317 54.9323 52.9562 54.5709 54.1291H48.4298C48.0677 52.9562 47.8709 51.7317 47.8709 50.5ZM50.3387 43.0968L51.5 41.548L52.6613 43.0968C53.202 43.8175 53.6527 44.5999 54.0222 45.4193H48.9786C49.3473 44.6006 49.798 43.8175 50.3387 43.0968ZM47.4043 45.4193H43.5619C44.9736 43.2216 47.2686 41.6509 49.9439 41.2039L49.1775 42.2258C48.4429 43.2049 47.8535 44.2849 47.4043 45.4193ZM54.0222 55.5807C53.6528 56.3994 53.202 57.1825 52.6613 57.9032L51.5 59.4513L50.3387 57.9032C49.798 57.1825 49.3473 56.4001 48.9778 55.5807H54.0222ZM53.8225 58.7742C54.5571 57.7951 55.1465 56.7159 55.5957 55.5807H59.4381C58.0263 57.7784 55.7314 59.3491 53.0561 59.7961L53.8225 58.7742ZM60.2075 54.1291H56.0799C56.4029 52.9489 56.5807 51.7281 56.5807 50.5C56.5807 49.2719 56.4036 48.0512 56.0799 46.8709H60.2075C60.675 47.9887 60.9356 49.2146 60.9356 50.5C60.9356 51.7854 60.675 53.0113 60.2075 54.1291ZM59.4382 45.4193H55.5958C55.1465 44.2849 54.5572 43.2049 53.8226 42.2258L53.0561 41.2038C55.7315 41.6509 58.0264 43.2216 59.4382 45.4193ZM30.4516 48.3225V29.4516H44.9677V33.8064H37.6015L39.6149 32.1959L38.7084 31.0621L34.3702 34.5323L38.7076 38.0024L39.6141 36.8687L37.6015 35.2581H44.9677V41.8114C42.8832 43.3828 41.3721 45.6749 40.8321 48.3226L30.4516 48.3225ZM42.7925 46.8709H46.9202C46.5965 48.0511 46.4193 49.2719 46.4193 50.5C46.4193 51.7281 46.5965 52.9488 46.9202 54.1291H42.7925C42.3251 53.0113 42.0645 51.7854 42.0645 50.5C42.0645 49.2146 42.325 47.9887 42.7925 46.8709ZM43.5618 55.5807H47.4042C47.8535 56.7151 48.4428 57.7951 49.1774 58.7742L49.9438 59.7962C47.2685 59.3491 44.9736 57.7784 43.5618 55.5807ZM72.5484 71.5484H58.0323V67.1936H65.3985L63.3851 68.8041L64.2916 69.9379L68.6298 66.4677L64.2924 62.9976L63.3859 64.1313L65.3986 65.7419H58.0324V59.1886C60.1168 57.6172 61.628 55.3251 62.168 52.6774H72.5485V71.5484H72.5484Z" fill="white"/>
<path d="M41.3391 64.2904C40.1386 64.2904 39.1616 65.2674 39.1616 66.4679C39.1616 67.6683 40.1386 68.6453 41.3391 68.6453C42.5396 68.6453 43.5165 67.6683 43.5165 66.4679C43.5165 65.2674 42.5396 64.2904 41.3391 64.2904ZM41.3391 67.1936C40.9391 67.1936 40.6132 66.8677 40.6132 66.4678C40.6132 66.0678 40.9391 65.7419 41.3391 65.7419C41.739 65.7419 42.0649 66.0678 42.0649 66.4678C42.0649 66.8677 41.739 67.1936 41.3391 67.1936Z" fill="white"/>
<path d="M44.9678 65.7419H46.4194V67.1935H44.9678V65.7419Z" fill="white"/>
<path d="M36.2578 65.7419H37.7094V67.1935H36.2578V65.7419Z" fill="white"/>
<path d="M67.4678 54.129H70.371V55.5806H67.4678V54.129Z" fill="white"/>
<path d="M63.1133 54.129H66.0165V55.5806H63.1133V54.129Z" fill="white"/>
<path d="M63.1133 57.0322H70.3714V58.4838H63.1133V57.0322Z" fill="white"/>
<path d="M64.5645 59.9355H70.3709V61.3872H64.5645V59.9355Z" fill="white"/>
</g>
<defs>
<filter id="filter0_di_446_513" x="-62" y="-50" width="304" height="211" filterUnits="userSpaceOnUse" color-interpolation-filters="sRGB">
<feFlood flood-opacity="0" result="BackgroundImageFix"/>
<feColorMatrix in="SourceAlpha" type="matrix" values="0 0 0 0 0 0 0 0 0 0 0 0 0 0 0 0 0 0 127 0" result="hardAlpha"/>
<feMorphology radius="2" operator="dilate" in="SourceAlpha" result="effect1_dropShadow_446_513"/>
<feOffset dy="4"/>
<feGaussianBlur stdDeviation="8"/>
<feComposite in2="hardAlpha" operator="out"/>
<feColorMatrix type="matrix" values="0 0 0 0 0 0 0 0 0 0 0 0 0 0 0 0 0 0 0.08 0"/>
<feBlend mode="normal" in2="BackgroundImageFix" result="effect1_dropShadow_446_513"/>
<feBlend mode="normal" in="SourceGraphic" in2="effect1_dropShadow_446_513" result="shape"/>
<feColorMatrix in="SourceAlpha" type="matrix" values="0 0 0 0 0 0 0 0 0 0 0 0 0 0 0 0 0 0 127 0" result="hardAlpha"/>
<feOffset dy="4"/>
<feGaussianBlur stdDeviation="3.65"/>
<feComposite in2="hardAlpha" operator="arithmetic" k2="-1" k3="1"/>
<feColorMatrix type="matrix" values="0 0 0 0 0.375 0 0 0 0 0.375 0 0 0 0 0.375 0 0 0 0.25 0"/>
<feBlend mode="normal" in2="shape" result="effect2_innerShadow_446_513"/>
</filter>
<linearGradient id="paint0_linear_446_513" x1="-157.063" y1="-85.7159" x2="108.291" y2="237.887" gradientUnits="userSpaceOnUse">
<stop offset="0.149" stop-color="#22C55E"/>
<stop offset="0.684" stop-color="#18763C"/>
</linearGradient>
<clipPath id="clip0_446_513">
<rect width="45" height="45" fill="white" transform="translate(29 28)"/>
</clipPath>
</defs>
</svg>
