<svg width="110" height="110" viewBox="0 0 110 110" fill="none" xmlns="http://www.w3.org/2000/svg">
<path d="M95.2841 39.7444C91.4439 39.7444 88.3188 43.2482 88.3188 47.5541V59.8312C87.6389 59.5821 86.9241 59.456 86.2023 59.456C84.1704 59.456 82.2713 60.4339 80.9887 62.1328L71.066 75.5699C69.5242 77.6126 68.7256 80.1071 68.7256 82.952V104.833C68.7256 107.08 70.5475 108.902 72.7971 108.902H87.2885C89.5311 108.902 91.3531 107.08 91.3531 104.833V96.5888L100.603 80.8921C101.731 78.9056 102.292 76.7787 102.292 74.5151V47.5537C102.292 43.2482 99.1454 39.7444 95.2841 39.7444ZM98.2202 74.5159C98.2202 76.117 97.8349 77.5292 97.0987 78.8288L87.2881 95.479V104.834H72.7967V82.9524C72.7967 81.0043 73.3012 79.3612 74.3385 77.9875L84.2329 64.5858C84.7653 63.878 85.4805 63.5244 86.202 63.5244C86.8745 63.5244 87.5543 63.8399 88.0868 64.4705C89.152 65.8089 89.1799 68.0232 88.178 69.3966L80.4695 79.8203C80.2316 80.1284 80.1753 80.5456 80.2945 80.9659C80.4419 81.3477 80.7078 81.579 81.0303 81.579H81.2406C82.8382 81.579 84.2325 80.8153 85.3327 79.2879L90.8688 71.6109C91.8781 70.2375 92.3822 68.5945 92.3822 66.7232V47.5541C92.3822 45.4904 93.6857 43.812 95.2838 43.812C96.8884 43.812 98.2198 45.4904 98.2198 47.5541V74.5159H98.2202Z" fill="white"/>
<path d="M29.0343 62.1687C27.7242 60.4306 25.8247 59.4565 23.7998 59.4565C23.078 59.4565 22.3632 59.5827 21.6833 59.8244V47.5578C21.6833 43.2515 18.5578 39.748 14.7106 39.748C10.8494 39.748 7.70996 43.2519 7.70996 47.5578V74.5157C7.70996 76.7754 8.26334 78.9058 9.36388 80.8399L18.6417 96.5894V104.834C18.6417 107.08 20.4636 108.902 22.7132 108.902H37.2046C39.4472 108.902 41.2692 107.08 41.2692 104.834V82.9525C41.2692 80.1041 40.4775 77.6093 38.9078 75.5355L29.0343 62.1687ZM37.205 104.834H22.7136V95.4792L12.903 78.829C12.1672 77.529 11.7749 76.1172 11.7749 74.5161V47.5582C11.7749 45.4945 13.1063 43.8126 14.711 43.8126C16.3086 43.8126 17.6191 45.4945 17.6191 47.5582V66.7238C17.6191 68.5946 18.1236 70.2381 19.1256 71.6114L24.6687 79.2884C25.7618 80.8162 27.1565 81.5796 28.7612 81.5796H28.9645C29.294 81.5796 29.5602 81.3483 29.7072 80.9664C29.8264 80.5462 29.7635 80.129 29.5318 79.8209L21.8234 69.3971C20.8144 68.0238 20.8424 65.8095 21.9076 64.4711C22.4404 63.8405 23.1199 63.525 23.7998 63.525C24.5146 63.525 25.2294 63.8785 25.7618 64.5863L35.6636 77.988C36.7009 79.3618 37.2054 81.0048 37.2054 82.9529V104.834H37.205Z" fill="white"/>
<path d="M82.4605 43.8124V13.3014C82.4605 12.4674 81.956 11.7212 81.1853 11.4131L55.7549 1.24159C55.2713 1.05261 54.7315 1.05261 54.248 1.24159L28.8245 11.4131C28.0469 11.7212 27.542 12.4674 27.542 13.3014V43.8124C27.542 44.6428 28.0465 45.3926 28.8245 45.7011L54.248 55.8691C54.4863 55.9672 54.7455 56.0161 54.9981 56.0161C55.2574 56.0161 55.5166 55.9672 55.7549 55.8691L81.1853 45.7011C81.956 45.3929 82.4605 44.6432 82.4605 43.8124ZM54.9981 5.32362L74.9484 13.3018L54.9981 21.2799L35.0545 13.3014L54.9981 5.32362ZM31.6135 16.3077L52.9655 24.8501V50.9779L31.6135 42.4324V16.3077ZM57.0374 50.9779V24.8501L78.3893 16.3077V42.432L57.0374 50.9779Z" fill="white"/>
</svg>
