<svg width="102" height="102" viewBox="0 0 102 102" fill="none" xmlns="http://www.w3.org/2000/svg">
<mask id="mask0_446_488" style="mask-type:alpha" maskUnits="userSpaceOnUse" x="0" y="0" width="102" height="102">
<circle cx="51" cy="51" r="51" fill="#D9D9D9"/>
</mask>
<g mask="url(#mask0_446_488)">
<g filter="url(#filter0_di_446_488)">
<rect x="-44" y="-36" width="268" height="175" fill="url(#paint0_linear_446_488)"/>
</g>
</g>
<g clip-path="url(#clip0_446_488)">
<path d="M34.7829 60.1786C34.7829 59.786 35.1012 59.4677 35.4938 59.4677H52.6817C53.0743 59.4677 53.3926 59.786 53.3926 60.1786C53.3926 60.5713 53.0743 60.8895 52.6817 60.8895H35.4938C35.1012 60.8895 34.7829 60.5713 34.7829 60.1786ZM35.4938 55.6189H48.05C48.4427 55.6189 48.761 55.3006 48.761 54.9079C48.761 54.5153 48.4427 54.197 48.05 54.197H35.4938C35.1012 54.197 34.7829 54.5153 34.7829 54.9079C34.7829 55.3006 35.1012 55.6189 35.4938 55.6189ZM64.5936 66.0033V74.4391C64.5936 75.3473 63.8549 76.086 62.9467 76.086H51.6156C50.7074 76.086 49.9686 75.3473 49.9686 74.4391V69.2879C48.0822 69.7261 46.1085 69.9485 44.0878 69.9485C43.2501 69.9485 42.4081 69.9093 41.581 69.8319L32.8001 75.9583C32.6779 76.0435 32.5356 76.0861 32.3933 76.0861C32.2543 76.0861 32.1154 76.0455 31.9949 75.964C31.7513 75.799 31.6343 75.501 31.7008 75.2144L33.4636 67.6204C28.7243 65.2954 25.9141 61.561 25.9141 57.5433C25.9141 54.7879 27.1978 52.1834 29.6265 50.0115C31.95 47.9336 35.1119 46.4342 38.7703 45.6753C39.1547 45.5958 39.5311 45.8426 39.6108 46.227C39.6905 46.6115 39.4435 46.9878 39.0591 47.0675C35.6943 47.7654 32.681 49.1874 30.5744 51.0713C28.4558 52.9659 27.3359 55.2039 27.3359 57.5433C27.3359 61.1348 30.0441 64.5114 34.5803 66.5754C34.8884 66.7156 35.0549 67.0536 34.9783 67.3833L33.5043 73.733L40.9828 68.5154C41.1228 68.4177 41.2932 68.3739 41.4631 68.3913C42.3263 68.4809 43.2092 68.5264 44.0878 68.5264C46.1158 68.5264 48.091 68.2902 49.9686 67.8253V66.0032C49.9686 65.0951 50.7074 64.3563 51.6156 64.3563H57.2039C59.5503 62.4181 60.8396 60.0068 60.8396 57.5432C60.8396 54.9109 59.381 52.359 56.7326 50.3577C56.4194 50.121 56.3573 49.6752 56.594 49.3619C56.8307 49.0487 57.2765 48.9866 57.5898 49.2234C60.6023 51.4998 62.2615 54.4544 62.2615 57.5432C62.2615 59.9801 61.2189 62.3481 59.2927 64.3563H62.9466C63.8548 64.3563 64.5936 65.0952 64.5936 66.0033ZM63.1718 66.0033C63.1718 65.8813 63.0687 65.7783 62.9467 65.7783H51.6156C51.4936 65.7783 51.3905 65.8813 51.3905 66.0033V74.4391C51.3905 74.5611 51.4936 74.6642 51.6156 74.6642H62.9467C63.0687 74.6642 63.1718 74.5611 63.1718 74.4391V66.0033ZM60.0205 70.2211C60.0205 70.4751 59.885 70.7098 59.665 70.8368L55.6082 73.1789C55.4982 73.2424 55.3754 73.2742 55.2527 73.2742C55.13 73.2742 55.0072 73.2425 54.8973 73.1789C54.6773 73.052 54.5418 72.8173 54.5418 72.5632V67.8789C54.5418 67.6249 54.6773 67.3902 54.8973 67.2632C55.1172 67.1362 55.3882 67.1362 55.6082 67.2632L59.665 69.6054C59.885 69.7325 60.0205 69.9671 60.0205 70.2211ZM57.8877 70.2211L55.9637 69.1103V71.3319L57.8877 70.2211ZM71.4461 33.3447C71.5667 33.3447 71.6889 33.314 71.8009 33.2493L74.5467 31.6641C74.8867 31.4678 75.0032 31.033 74.8069 30.693C74.6106 30.353 74.176 30.2365 73.8357 30.4328L71.09 32.018C70.7499 32.2143 70.6335 32.6491 70.8298 32.9891C70.9614 33.2171 71.2004 33.3447 71.4461 33.3447ZM66.8695 30.1371C66.9816 30.2018 67.1037 30.2325 67.2244 30.2325C67.4701 30.2325 67.7091 30.105 67.8407 29.8769L69.5129 26.9806C69.7092 26.6405 69.5927 26.2058 69.2527 26.0094C68.9127 25.8131 68.4779 25.9296 68.2816 26.2696L66.6093 29.166C66.413 29.506 66.5295 29.9408 66.8695 30.1371ZM71.3196 37.8447C71.3196 38.2374 71.6379 38.5557 72.0305 38.5557H75.375C75.7676 38.5557 76.0859 38.2374 76.0859 37.8447C76.0859 37.4521 75.7676 37.1338 75.375 37.1338H72.0305C71.6379 37.1338 71.3196 37.4521 71.3196 37.8447ZM41.1997 45.6469C41.5777 44.2359 42.4783 43.0592 43.7356 42.3334L47.4543 40.1864C47.6175 40.0921 47.8116 40.0665 47.9937 40.1153C48.0657 40.1346 48.1331 40.1652 48.1945 40.2047C52.0161 37.3446 55.0295 34.0335 56.7557 30.7926L56.6903 30.6794C55.8848 29.2841 56.3645 27.4936 57.7598 26.6879C59.1553 25.8824 60.9457 26.3622 61.7513 27.7573L64.6523 32.782C66.1932 31.9849 68.1106 32.535 68.9869 34.053C69.8632 35.5708 69.381 37.5061 67.9203 38.4423L70.8213 43.467C71.2104 44.1409 71.3131 44.928 71.1107 45.6836C70.9082 46.4391 70.4257 47.0695 69.7518 47.4586C69.3038 47.7173 68.8057 47.8494 68.3002 47.8494C68.0452 47.8494 67.7885 47.8158 67.5353 47.748C66.7798 47.5456 66.1494 47.0629 65.7604 46.3892L65.695 46.2759C62.0574 46.1514 57.7268 47.0879 53.3774 48.9352L58.5105 55.8447C59.0228 56.5343 58.9329 57.4865 58.3014 58.0595L57.1722 59.0843C56.8663 59.3617 56.4674 59.5142 56.0582 59.5142C56.0056 59.5142 55.9529 59.5117 55.9002 59.5066C55.4424 59.4624 55.0225 59.2264 54.7481 58.8589L49.3778 51.673L49.1905 51.7811C48.3548 52.2635 47.4254 52.51 46.4818 52.51C46.0057 52.51 45.526 52.4473 45.0528 52.3205C43.6418 51.9425 42.4651 51.0418 41.7392 49.7846C41.0133 48.5273 40.8217 47.0579 41.1997 45.6469ZM57.3691 56.6926L52.3605 49.9508L50.6178 50.9569L55.8871 58.0078C55.933 58.0694 55.9938 58.0871 56.0368 58.0913C56.0753 58.095 56.1495 58.0921 56.2167 58.0312L57.3458 57.0065C57.4346 56.926 57.4444 56.7939 57.3691 56.6926ZM65.3652 34.0168L67.2074 37.2076C67.9895 36.6656 68.2397 35.6025 67.7556 34.7639C67.2714 33.9254 66.2256 33.6106 65.3652 34.0168ZM57.9217 29.9684L66.9916 45.6781C67.1908 46.023 67.5145 46.2703 67.9033 46.3744C68.2919 46.4784 68.6958 46.4263 69.0409 46.2272C69.3858 46.0281 69.6331 45.7043 69.7373 45.3157C69.8414 44.927 69.7891 44.523 69.59 44.1781L60.52 28.4684C60.2425 27.9877 59.7371 27.7186 59.2183 27.7186C58.964 27.7186 58.7065 27.7832 58.4708 27.9193C58.1259 28.1184 57.8786 28.4422 57.7745 28.8308C57.6704 29.2195 57.7226 29.6235 57.9217 29.9684ZM48.9742 41.3972L52.6203 47.7125C56.8845 45.8755 61.1621 44.8766 64.8686 44.8446L57.5821 32.2237C55.7012 35.4176 52.6973 38.6228 48.9742 41.3972ZM42.9705 49.0736C43.5064 50.0019 44.3766 50.6673 45.4207 50.947C46.4646 51.2268 47.5509 51.0856 48.4793 50.5497L51.5823 48.7582L47.5494 41.7732L44.4465 43.5646C43.5181 44.1006 42.8529 44.9707 42.5731 46.0148C42.2932 47.0589 42.4345 48.1453 42.9705 49.0736ZM29.8144 34.1327C29.8144 31.7517 31.7515 29.8145 34.1326 29.8145C36.5137 29.8145 38.4508 31.7516 38.4508 34.1327C38.4508 36.5137 36.5137 38.4508 34.1326 38.4508C31.7515 38.4508 29.8144 36.5137 29.8144 34.1327ZM31.2362 34.1327C31.2362 35.7298 32.5355 37.029 34.1326 37.029C35.7297 37.029 37.029 35.7298 37.029 34.1327C37.029 32.5356 35.7297 31.2363 34.1326 31.2363C32.5355 31.2363 31.2362 32.5356 31.2362 34.1327ZM25.9141 34.8835V33.382C25.9141 32.7179 26.4542 32.1778 27.1181 32.1778C27.7061 32.1778 27.9381 31.7283 27.9951 31.5905C28.0522 31.4527 28.2061 30.9708 27.7902 30.555C27.5628 30.3277 27.4375 30.0253 27.4375 29.7036C27.4375 29.3819 27.5627 29.0795 27.7902 28.8521L28.8519 27.7903C29.3213 27.3208 30.0852 27.3208 30.5548 27.7903C30.9707 28.2062 31.4526 28.0523 31.5903 27.9952C31.7281 27.9381 32.1776 27.7062 32.1776 27.1182C32.1776 26.4542 32.7177 25.9141 33.3816 25.9141H34.8831C35.5471 25.9141 36.0872 26.4542 36.0872 27.1182C36.0872 27.7062 36.5367 27.9381 36.6745 27.9952C36.8122 28.0523 37.2943 28.206 37.71 27.7903C38.1796 27.3208 38.9434 27.3208 39.4129 27.7903L40.4747 28.8521C40.7021 29.0795 40.8273 29.3818 40.8273 29.7035C40.8273 30.0251 40.7021 30.3276 40.4746 30.555C40.0588 30.9708 40.2127 31.4527 40.2698 31.5905C40.3269 31.7282 40.5588 32.1778 41.1468 32.1778C41.8107 32.1778 42.3508 32.7179 42.3508 33.382V34.8835C42.3508 35.5474 41.8107 36.0875 41.1468 36.0875C40.5588 36.0875 40.3268 36.537 40.2698 36.6748C40.2127 36.8125 40.0588 37.2945 40.4747 37.7103C40.9442 38.1799 40.9442 38.9438 40.4747 39.4132L39.4129 40.475C39.1856 40.7024 38.8832 40.8277 38.5615 40.8277C38.2399 40.8277 37.9374 40.7025 37.71 40.475C37.2942 40.0593 36.8124 40.213 36.6745 40.2702C36.5368 40.3273 36.0872 40.5592 36.0872 41.1473C36.0872 41.8112 35.5471 42.3513 34.8831 42.3513H33.3819C32.7179 42.3513 32.1778 41.8112 32.1778 41.1473C32.1778 40.558 31.7286 40.3261 31.591 40.2691C31.4532 40.212 30.9717 40.0583 30.555 40.4751C30.3277 40.7025 30.0252 40.8278 29.7036 40.8278C29.3819 40.8278 29.0794 40.7026 28.8521 40.4751L27.7904 39.4134C27.563 39.1862 27.4377 38.8837 27.4377 38.5619C27.4377 38.2403 27.5629 37.9378 27.7904 37.7104C28.2062 37.2947 28.0523 36.8127 27.9952 36.675C27.9381 36.5372 27.7062 36.0877 27.1182 36.0877C26.4542 36.0875 25.9141 35.5474 25.9141 34.8835ZM27.3359 34.675C28.2186 34.7519 28.9627 35.2949 29.3088 36.1307C29.655 36.9666 29.5128 37.8767 28.943 38.5552L29.7101 39.3223C30.3891 38.7519 31.2994 38.6094 32.135 38.9554C32.9706 39.3015 33.5134 40.046 33.5902 40.9296H34.6748C34.7517 40.0469 35.2947 39.3028 36.1305 38.9566C36.9663 38.6106 37.8764 38.7526 38.555 39.3223L39.3221 38.5552C38.7523 37.8767 38.6102 36.9666 38.9563 36.1307C39.3025 35.295 40.0465 34.7519 40.9292 34.675V33.5904C40.0465 33.5135 39.3024 32.9705 38.9563 32.1347C38.6102 31.2988 38.7523 30.3888 39.322 29.7102L38.5549 28.9431C37.8762 29.5128 36.9662 29.6549 36.1304 29.3088C35.2947 28.9626 34.7517 28.2186 34.6748 27.3359H33.5902C33.5133 28.2186 32.9703 28.9627 32.1346 29.3088C31.2987 29.655 30.3886 29.5128 29.7101 28.943L28.943 29.7101C29.5127 30.3888 29.6549 31.2988 29.3087 32.1346C28.9627 32.9705 28.2186 33.5135 27.3359 33.5904V34.675ZM76.0301 53.5768C75.7791 55.682 74.7668 57.6847 74.1857 58.6911C73.6046 59.6975 72.3765 61.5755 70.6788 62.8454C69.5782 63.6688 68.4699 64.083 67.3959 64.083C66.646 64.083 65.9127 63.8811 65.2104 63.4755L64.9551 63.3281C64.5344 63.0852 64.2335 62.6925 64.1074 62.222C63.9813 61.7515 64.0456 61.2609 64.2884 60.8403L65.3092 59.0722C65.8113 58.2025 66.9273 57.9035 67.797 58.4055L68.3958 58.7513C68.5655 58.8494 68.7664 58.8162 68.8958 58.6688C69.4541 58.0322 69.9683 57.3091 70.4242 56.5194C70.8801 55.7298 71.2493 54.9228 71.5214 54.1211C71.5844 53.9355 71.5127 53.7448 71.343 53.6468L70.7442 53.3012C70.3235 53.0584 70.0226 52.6655 69.8964 52.1951C69.7704 51.7247 69.8347 51.2339 70.0775 50.8133L71.0983 49.0452C71.6002 48.1757 72.7163 47.8767 73.5861 48.3786L73.8415 48.526C75.5497 49.5122 76.3064 51.2587 76.0301 53.5768ZM73.1306 49.7574L72.8752 49.6099C72.6846 49.4998 72.4397 49.5654 72.3298 49.7561L71.3089 51.5242C71.256 51.6159 71.2421 51.7233 71.2699 51.8269C71.2977 51.9305 71.3635 52.0167 71.4552 52.0697L72.054 52.4153C72.816 52.8553 73.1508 53.7446 72.8679 54.5779C72.566 55.4676 72.1581 56.36 71.6557 57.2303C71.1534 58.1003 70.5844 58.8997 69.9649 59.6063C69.3845 60.2681 68.4471 60.4227 67.685 59.9827L67.0862 59.6371C67.0235 59.6009 66.955 59.5837 66.8872 59.5837C66.7491 59.5837 66.6145 59.6553 66.5406 59.7832L65.5198 61.5513C65.4669 61.643 65.453 61.7505 65.4808 61.8541C65.5085 61.9577 65.5743 62.0439 65.666 62.0968L65.9214 62.2443C67.1321 62.9432 68.4096 62.7674 69.8271 61.7069C71.3772 60.5474 72.5304 58.7145 72.9545 57.9802C73.3784 57.246 74.3891 55.3306 74.6183 53.4086C74.8278 51.6506 74.3412 50.4563 73.1306 49.7574Z" fill="white"/>
</g>
<defs>
<filter id="filter0_di_446_488" x="-62" y="-50" width="304" height="211" filterUnits="userSpaceOnUse" color-interpolation-filters="sRGB">
<feFlood flood-opacity="0" result="BackgroundImageFix"/>
<feColorMatrix in="SourceAlpha" type="matrix" values="0 0 0 0 0 0 0 0 0 0 0 0 0 0 0 0 0 0 127 0" result="hardAlpha"/>
<feMorphology radius="2" operator="dilate" in="SourceAlpha" result="effect1_dropShadow_446_488"/>
<feOffset dy="4"/>
<feGaussianBlur stdDeviation="8"/>
<feComposite in2="hardAlpha" operator="out"/>
<feColorMatrix type="matrix" values="0 0 0 0 0 0 0 0 0 0 0 0 0 0 0 0 0 0 0.08 0"/>
<feBlend mode="normal" in2="BackgroundImageFix" result="effect1_dropShadow_446_488"/>
<feBlend mode="normal" in="SourceGraphic" in2="effect1_dropShadow_446_488" result="shape"/>
<feColorMatrix in="SourceAlpha" type="matrix" values="0 0 0 0 0 0 0 0 0 0 0 0 0 0 0 0 0 0 127 0" result="hardAlpha"/>
<feOffset dy="4"/>
<feGaussianBlur stdDeviation="3.65"/>
<feComposite in2="hardAlpha" operator="arithmetic" k2="-1" k3="1"/>
<feColorMatrix type="matrix" values="0 0 0 0 0.375 0 0 0 0 0.375 0 0 0 0 0.375 0 0 0 0.25 0"/>
<feBlend mode="normal" in2="shape" result="effect2_innerShadow_446_488"/>
</filter>
<linearGradient id="paint0_linear_446_488" x1="-157.063" y1="-85.7159" x2="108.291" y2="237.887" gradientUnits="userSpaceOnUse">
<stop offset="0.149" stop-color="#22C55E"/>
<stop offset="0.684" stop-color="#18763C"/>
</linearGradient>
<clipPath id="clip0_446_488">
<rect width="52" height="52" fill="white" transform="translate(25 25)"/>
</clipPath>
</defs>
</svg>
