<svg width="512" height="512" viewBox="0 0 512 512" fill="none" xmlns="http://www.w3.org/2000/svg">
<path d="M184 192C157.102 192 130.808 199.976 108.443 214.92C86.0774 229.864 68.646 251.104 58.3524 275.955C48.0589 300.806 45.3657 328.151 50.6133 354.532C55.8609 380.914 68.8136 405.147 87.8335 424.167C106.853 443.186 131.086 456.139 157.468 461.387C183.849 466.634 211.194 463.941 236.045 453.648C260.896 443.354 282.136 425.923 297.08 403.558C312.024 381.192 320 354.898 320 328C320 291.931 305.672 257.338 280.167 231.833C254.662 206.329 220.07 192 184 192ZM184 448C160.266 448 137.066 440.962 117.332 427.776C97.5977 414.591 82.217 395.849 73.1345 373.922C64.052 351.995 61.6756 327.867 66.3058 304.589C70.9361 281.311 82.3649 259.929 99.1472 243.147C115.93 226.365 137.311 214.936 160.589 210.306C183.867 205.676 207.995 208.052 229.922 217.134C251.849 226.217 270.591 241.598 283.776 261.332C296.962 281.065 304 304.266 304 328C304 359.826 291.357 390.348 268.853 412.853C246.349 435.357 215.826 448 184 448Z" fill="white"/>
<path d="M252 284L188 247.08C186.784 246.378 185.405 246.008 184 246.008C182.596 246.008 181.216 246.378 180 247.08L116 284C114.785 284.702 113.776 285.71 113.074 286.925C112.372 288.139 112.002 289.517 112 290.92V364.88C111.966 366.317 112.319 367.736 113.023 368.989C113.727 370.242 114.756 371.282 116 372L180 408.96C181.216 409.662 182.596 410.032 184 410.032C185.405 410.032 186.784 409.662 188 408.96L252 372C253.215 371.299 254.224 370.29 254.926 369.075C255.629 367.861 255.999 366.483 256 365.08V290.96C256.006 289.55 255.639 288.164 254.936 286.942C254.234 285.72 253.221 284.705 252 284ZM184 263.2L233.24 291.64L184 320L134.76 291.68L184 263.2ZM128 306.28L176 334V388L128 360.24V306.28ZM192 388V334L240 306.28V360.24L192 388Z" fill="white"/>
<path d="M312 64C235.72 64 176 92 176 128V168C176 170.122 176.843 172.157 178.343 173.657C179.843 175.157 181.878 176 184 176C186.122 176 188.157 175.157 189.657 173.657C191.157 172.157 192 170.122 192 168V158.56C214.72 178.56 259.44 192 312 192C364.56 192 409.28 178.64 432 158.56V232.88C432 250.16 400 271.92 338.96 280.08C336.963 280.364 335.147 281.391 333.876 282.956C332.604 284.522 331.971 286.51 332.102 288.522C332.234 290.534 333.12 292.423 334.585 293.81C336.049 295.196 337.983 295.978 340 296H341.04C382.64 290.48 414.28 278.8 432 263.4V336.44C432 355.36 395.76 378.08 335.16 383.28C333.038 383.37 331.039 384.299 329.603 385.864C328.166 387.428 327.41 389.498 327.5 391.62C327.59 393.742 328.52 395.741 330.084 397.177C331.648 398.614 333.718 399.37 335.84 399.28H336.52C402.16 393.56 448 367.76 448 336.44V128C448 92 388.28 64 312 64ZM312 176C241.28 176 192 150.72 192 128C192 105.28 241.28 80 312 80C382.72 80 432 105.28 432 128C432 150.72 382.72 176 312 176Z" fill="white"/>
</svg>
