<svg width="107" height="107" viewBox="0 0 107 107" fill="none" xmlns="http://www.w3.org/2000/svg">
<g clip-path="url(#clip0_446_386)">
<path d="M99.6599 64.632L92.8763 42.545C92.7954 31.3368 88.4266 20.7801 80.5542 12.7867C72.6162 4.72722 62.021 0.188319 50.7204 0.00587689C42.6848 -0.125991 34.8272 1.96363 27.9954 6.04256C27.0044 6.6342 26.6806 7.91714 27.2725 8.90814C27.8643 9.89914 29.1473 10.2229 30.1381 9.63101C36.3018 5.95082 43.397 4.06746 50.6529 4.1847C71.6308 4.52347 88.6976 21.8741 88.6976 42.8621C88.6976 43.07 88.7286 43.2769 88.7898 43.4756L95.6593 65.8427H86.2854C85.1311 65.8427 84.1955 66.7783 84.1955 67.9325V79.4719C84.1955 84.9709 79.7218 89.4446 74.2228 89.4446H58.2618C53.293 89.4446 48.6218 87.5096 45.1084 83.9962C44.2923 83.1803 42.969 83.1803 42.1527 83.9962C41.3366 84.8123 41.3366 86.1356 42.1527 86.9516C46.3109 91.1098 51.7933 93.4621 57.6486 93.6157L54.5782 104.334C54.2604 105.444 54.9021 106.6 56.0116 106.918C56.2039 106.973 56.3976 107 56.5882 107C57.4971 107 58.3334 106.402 58.5961 105.485L61.9938 93.6241H74.2226C82.0263 93.6241 88.375 87.2754 88.375 79.4717V70.0221H95.6764C97.0123 70.0221 98.2338 69.406 99.0277 68.3317C99.8218 67.2577 100.052 65.9091 99.6599 64.632Z" fill="white"/>
<path d="M11.3385 42.1885C11.4612 34.9688 13.5625 27.9735 17.4149 21.9592C18.0375 20.9874 17.7543 19.6949 16.7825 19.0723C15.8105 18.4497 14.5182 18.7329 13.8956 19.7047C9.62465 26.3721 7.29532 34.1222 7.15969 42.1175C7.02176 50.2242 9.12873 59.271 12.9404 66.9386C16.6047 74.3103 17.5842 82.6774 15.6983 90.4983L12.3414 104.42C12.0708 105.542 12.7611 106.671 13.8831 106.941C14.0478 106.981 14.2125 107 14.3748 107C15.318 107 16.1738 106.357 16.4047 105.399L19.7616 91.4781C21.8773 82.7035 20.7841 73.3279 16.6833 65.0781C13.1596 57.9906 11.2117 49.6476 11.3385 42.1885Z" fill="white"/>
<path d="M20.1604 12.0427C19.3244 12.8387 19.2923 14.1616 20.0883 14.9973L20.0904 14.9994C20.5008 15.4306 21.0511 15.6475 21.6024 15.6475C22.1202 15.6475 22.6389 15.4558 23.0437 15.0705C23.8797 14.2744 23.9108 12.9505 23.1148 12.1148C22.319 11.2789 20.9961 11.2465 20.1604 12.0427Z" fill="white"/>
<path d="M57.6698 70.2738C58.824 70.2738 59.7596 69.3382 59.7596 68.184V58.5234V58.5231C59.7596 55.98 60.9136 53.5698 62.9261 51.9107C67.6253 48.0362 70.3204 42.3249 70.3204 36.2412C70.3204 30.9411 68.2903 25.926 64.6042 22.1193C60.927 18.3221 55.9971 16.1315 50.7227 15.9512C44.9941 15.7556 39.6627 17.781 35.7123 21.6548C31.7636 25.527 29.6351 30.8143 29.7187 36.5425C29.8067 42.5681 32.5452 48.2059 37.2323 52.01C39.1674 53.5805 40.2773 55.9545 40.2773 58.5234V68.184C40.2773 69.3382 41.213 70.2738 42.3672 70.2738H57.6698ZM55.5799 66.0942H44.457V60.6132H55.5799V66.0942ZM39.8661 48.7649C36.143 45.7432 33.9675 41.2661 33.8977 36.4819C33.8311 31.9085 35.5146 27.7027 38.6387 24.6395C41.7643 21.5743 46.0031 19.9729 50.58 20.1288C59.3055 20.4268 66.1405 27.5042 66.1405 36.2414C66.1405 41.0726 63.9997 45.6086 60.267 48.6861C57.8422 50.6852 56.2591 53.4334 55.754 56.4339H52.1081V43.6617C54.5735 42.7965 56.3465 40.4469 56.3465 37.6896C56.3465 34.2002 53.5077 31.3614 50.0183 31.3614C46.5289 31.3614 43.69 34.2002 43.69 37.6896C43.69 40.4469 45.4631 42.7965 47.9284 43.6617V56.4337H44.2884C43.7964 53.4164 42.2449 50.6953 39.8661 48.7649ZM50.0183 39.838C48.8335 39.838 47.8697 38.8741 47.8697 37.6894C47.8697 36.5047 48.8335 35.5408 50.0183 35.5408C51.203 35.5408 52.1668 36.5047 52.1668 37.6894C52.1668 38.8741 51.203 39.838 50.0183 39.838Z" fill="white"/>
</g>
<defs>
<clipPath id="clip0_446_386">
<rect width="107" height="107" fill="white"/>
</clipPath>
</defs>
</svg>
